<?xml version="1.0" standalone="no"?>
<!DOCTYPE svg PUBLIC "-//W3C//DTD SVG 1.1//EN" "http://www.w3.org/Graphics/SVG/1.1/DTD/svg11.dtd" >
<svg xmlns="http://www.w3.org/2000/svg" xmlns:xlink="http://www.w3.org/1999/xlink" version="1.1">
<metadata>
Created by FontForge 20170731 at Fri Mar  9 13:58:43 2018
 By Aleksey,,,
Copyright (c) 2014 by Arwan Sutanto. All rights reserved.
</metadata>
<defs>
<font id="Fonarto" horiz-adv-x="616" >
  <font-face 
    font-family="Fonarto"
    font-weight="400"
    font-stretch="normal"
    units-per-em="1000"
    panose-1="0 0 0 0 0 0 0 0 0 0"
    ascent="750"
    descent="-250"
    x-height="518"
    cap-height="700"
    bbox="-76 -206 1229 966"
    underline-thickness="50"
    underline-position="-150"
    unicode-range="U+000D-FB02"
  />
<missing-glyph horiz-adv-x="300" 
 />
    <glyph glyph-name="fi" unicode="fi" horiz-adv-x="539" 
d="M50 519h46v48t2 40.5t8.5 34t19.5 29.5q29 30 67.5 45.5t79.5 19t81 -3t70.5 -21t49 -35t17 -44.5t-27 -49.5t-82.5 -50.5q5 29 -5 48t-27 30t-38.5 13.5t-40 -2t-31.5 -15.5t-13 -27v-60h262v-1h2v-518h-129v405l-135 3v-408h-130v408h-46v111z" />
    <glyph glyph-name="fl" unicode="fl" horiz-adv-x="604" 
d="M50 519h46q0 26 -0.5 51.5t2 48t8 41.5t17.5 34q14 17 37.5 26.5t61.5 11.5q41 1 75 -11t52.5 -33.5t18 -49.5t-28.5 -59q-7 20 -25.5 32t-38 13t-34.5 -9.5t-15 -35.5v-60h128q0 -50 -28 -80.5t-70 -30.5h-30v-408h-130v408h-46v111zM554 700v-700h-126v598
q0 48 34 75.5t92 26.5z" />
    <glyph glyph-name=".notdef" horiz-adv-x="300" 
 />
    <glyph glyph-name=".null" horiz-adv-x="0" 
 />
    <glyph glyph-name="nonmarkingreturn" unicode="&#xd;" horiz-adv-x="300" 
 />
    <glyph glyph-name="NULL" horiz-adv-x="0" 
 />
    <glyph glyph-name="NULL" horiz-adv-x="0" 
 />
    <glyph glyph-name="space" unicode=" " horiz-adv-x="250" 
 />
    <glyph glyph-name="exclam" unicode="!" horiz-adv-x="262" 
d="M68 700h126v-503q-26 0 -48 5t-39 16.5t-27 31t-12 49.5v401zM132 -10q-34 0 -57 23q-16 16 -21 41t-3.5 51.5t7 51t9.5 39.5q6 -17 21 -24.5t33 -12.5t36.5 -11t31.5 -19q23 -25 23 -57q0 -34 -24 -58q-23 -24 -56 -24z" />
    <glyph glyph-name="quotedbl" unicode="&#x22;" horiz-adv-x="383" 
d="M313 517q-2 -23 -24.5 -37t-53.5 -15l-14 125q-3 31 -1.5 52.5t13.5 35t35.5 18.5t64.5 2zM144 517q-2 -23 -24.5 -37t-53.5 -15l-13 125q-4 31 -2 52.5t13.5 35t35 18.5t64.5 2z" />
    <glyph glyph-name="numbersign" unicode="#" horiz-adv-x="599" 
d="M459 222h-38l-25 -170q-3 -18 -12 -28.5t-22.5 -16t-31 -6.5t-35.5 -1l33 222h-89l-32 -222h-93l33 222h-107l13 92h108l13 87h-109q1 17 6.5 33.5t15 29.5t23 21t31.5 8h46l22 149q5 35 31 48.5t69 7.5l-29 -205h88l30 205h93l-30 -205h98l-13 -92h-99l-12 -87h99
q-5 -40 -24.5 -66t-50.5 -26zM354 401h-88l-13 -87h88z" />
    <glyph glyph-name="dollar" unicode="$" horiz-adv-x="543" 
d="M490 265q19 -42 17.5 -87t-21.5 -84t-59 -67.5t-95 -35.5v-65h-79v65q-68 12 -126 56t-91 110l104 75q9 -18 23 -36.5t31 -33.5t35 -26.5t35 -15.5q30 -8 56 -2t41 22.5t14.5 40.5t-22.5 53q-16 21 -41 42t-53 44t-55.5 47.5t-49.5 51.5t-36 57t-14 64q0 33 11.5 61.5
t32 50.5t47.5 37t58 21v54h79v-52q37 -5 68 -17t52 -31q18 -17 28 -38t9.5 -42.5t-12 -42t-35.5 -36.5q-19 37 -44.5 57t-52 26.5t-50.5 2t-40 -16.5t-20 -29t10 -35q18 -24 53 -52t72.5 -59.5t71 -65.5t48.5 -68z" />
    <glyph glyph-name="percent" unicode="%" horiz-adv-x="786" 
d="M541 652q21 33 54.5 42t72.5 4l-425 -654q-11 -17 -25 -26t-30 -13t-34 -4.5t-36 0.5zM333 549q0 -31 -12 -58t-32 -47.5t-47 -32t-58 -11.5t-58 11.5t-47.5 32t-32 47.5t-11.5 58t11.5 58t32 47t47.5 32t58 12t58 -12t47 -32t32 -47t12 -58zM108 549q0 -32 22 -54
t54 -22t54 22t22 54q0 31 -22 53t-54 22t-54 -22t-22 -53zM602 299q31 0 58 -12t47 -32t32 -47t12 -58t-12 -58t-32 -47.5t-47 -32t-58 -11.5t-58 11.5t-47.5 32t-32 47.5t-11.5 58t11.5 58t32 47t47.5 32t58 12zM602 74q32 0 53.5 22t21.5 54q0 31 -21.5 53t-53.5 22
t-54 -22t-22 -53q0 -32 22 -54t54 -22z" />
    <glyph glyph-name="ampersand" unicode="&#x26;" horiz-adv-x="677" 
d="M378 458q8 20 7 39.5t-10 35.5t-26.5 25.5t-42.5 9.5q-52 0 -78.5 -21t-26.5 -48q0 -23 11 -39t28.5 -26.5t38.5 -16t42 -8.5q32 -5 57 -22.5t37 -41t9.5 -48.5t-25.5 -44q-12 26 -34.5 39t-49 16t-53.5 -4t-49.5 -22t-36.5 -37t-13 -49q1 -23 10 -41t23 -31t32.5 -20.5
t37.5 -7.5q33 -1 59 17t47.5 46t40.5 61.5t37 65.5q19 32 46.5 49t55.5 18t51.5 -15t33.5 -49q-28 -6 -46.5 -24.5t-36.5 -48t-40.5 -68t-58.5 -83.5q-31 -40 -76.5 -62.5t-105.5 -22.5q-65 0 -112.5 25t-76.5 63.5t-38.5 85.5t0.5 91t39.5 79t79.5 51q-52 26 -75 65t-20 83
q4 47 29 80t61.5 52.5t80 26.5t84.5 2q50 -6 81 -24.5t45.5 -42.5t15 -51t-10.5 -50t-31 -39.5t-47 -18.5z" />
    <glyph glyph-name="quotesingle" unicode="'" horiz-adv-x="226" 
d="M147 533q-2 -22 -22 -34.5t-49 -13.5l-13 115q-3 28 -1 48.5t12.5 32.5t32.5 16.5t59 2.5z" />
    <glyph glyph-name="parenleft" unicode="(" horiz-adv-x="384" 
d="M334 698q-80 -90 -117.5 -198t-36 -220t40.5 -220.5t113 -199.5q-41 0 -70.5 2t-51 9.5t-37.5 22.5t-30 41q-43 82 -64 171.5t-20 181t23.5 180.5t66.5 170q14 26 33.5 39t43 18t50.5 4.5t56 -1.5z" />
    <glyph glyph-name="parenright" unicode=")" horiz-adv-x="385" 
d="M50 698q30 1 57 1.5t50.5 -4.5t43 -18t33.5 -39q44 -81 66.5 -170t23.5 -180.5t-20 -181t-64 -171.5q-14 -26 -30 -41t-37.5 -22.5t-51.5 -9.5t-71 -2q74 91 113 199.5t40.5 220.5t-36 220t-117.5 198z" />
    <glyph glyph-name="asterisk" unicode="*" horiz-adv-x="448" 
d="M194 626q0 42 15.5 58t44.5 14v-121l42 25q36 20 58 15t34 -31l-105 -61l43 -24q36 -21 42.5 -43t-10.5 -45l-104 61v-50q0 -42 -16 -57.5t-44 -13.5v121l-43 -25q-36 -21 -57.5 -15.5t-33.5 31.5l104 60l-42 25q-36 21 -42.5 42.5t9.5 44.5l105 -60v49z" />
    <glyph glyph-name="plus" unicode="+" horiz-adv-x="550" 
d="M222 498q0 42 27.5 58t78.5 14v-161h89q42 0 58 -27.5t14 -78.5h-161v-89q0 -42 -27.5 -58t-78.5 -14v161h-89q-42 0 -58 27.5t-14 78.5h161v89z" />
    <glyph glyph-name="comma" unicode="," horiz-adv-x="305" 
d="M146 -24q-13 -17 -37 -18.5t-49 12.5l47 106q11 26 22.5 42.5t27 22t36.5 -1.5t52 -28z" />
    <glyph glyph-name="hyphen" unicode="-" horiz-adv-x="402" 
d="M252 308q46 0 63.5 -30.5t15.5 -85.5h-181q-46 0 -63.5 30.5t-15.5 85.5h181z" />
    <glyph glyph-name="period" unicode="." horiz-adv-x="317" 
d="M153 128q31 0 52 -22q22 -21 22 -52t-22 -52q-21 -22 -52 -22q-30 0 -52 22q-21 21 -21 52t21 52q22 22 52 22z" />
    <glyph glyph-name="slash" unicode="/" horiz-adv-x="482" 
d="M50 -131l293 787q13 35 42.5 43.5t66.5 5.5l-296 -793q-6 -16 -16.5 -25.5t-25 -14t-31 -5t-33.5 1.5z" />
    <glyph glyph-name="zero" unicode="0" horiz-adv-x="588" 
d="M292 713q76 0 124 -31.5t75 -82.5t37 -116.5t10 -133.5t-9.5 -133.5t-36.5 -117t-74.5 -83t-122.5 -31.5t-122.5 30.5t-75 80.5t-37.5 114.5t-10 132.5q0 191 59 277q66 94 183 94zM296 588q-41 0 -63.5 -25.5t-33.5 -63.5t-13.5 -81t-2.5 -79q0 -39 4 -80t16 -74.5
t34.5 -55t58.5 -21.5t57.5 23t33 58.5t15.5 77.5t4 81q0 40 -3.5 82.5t-15.5 77.5t-33.5 57.5t-57.5 22.5z" />
    <glyph glyph-name="one" unicode="1" horiz-adv-x="355" 
d="M182 700h123v-700h-132v575h-131q-8 55 28 90t112 35z" />
    <glyph glyph-name="two" unicode="2" horiz-adv-x="582" 
d="M191 453q-39 -7 -66.5 7t-41.5 39.5t-13.5 58.5t18.5 63q24 40 66 62t90 28.5t95 -1t80 -25.5q24 -13 43.5 -32.5t34 -43.5t22 -50t7.5 -53q0 -56 -22.5 -106.5t-58 -98t-78.5 -92t-83 -87.5h248v-122h-482q0 41 29 82t91 103q30 30 61 62t58.5 62t48.5 56t30 44
q25 47 23 83t-21 59t-49.5 32.5t-60.5 3.5q-18 -3 -36 -16t-30 -31.5t-14.5 -41t11.5 -45.5z" />
    <glyph glyph-name="three" unicode="3" horiz-adv-x="574" 
d="M156 486q-32 5 -53.5 22t-30.5 40t-4.5 49.5t23.5 50t53.5 41.5t86.5 24q42 5 87 -2t82.5 -27.5t63 -54.5t29.5 -83q4 -45 -19.5 -85.5t-77.5 -66.5q51 -16 81.5 -52.5t41 -82t0 -94t-40 -88.5t-78.5 -65.5t-116 -25.5q-52 0 -94 16t-72 45.5t-47.5 71.5t-20.5 94h130
q6 -40 24.5 -64t42.5 -34.5t50.5 -8t48.5 15t36.5 35t15.5 52.5q0 28 -13 49.5t-33.5 36.5t-45.5 22.5t-48.5 7t-42.5 -9.5t-27 -27q-23 19 -31 42t-2 43.5t26 35.5t53 20q21 3 43.5 9t40.5 16.5t29.5 27t11.5 40.5q0 28 -27.5 49.5t-81.5 21.5q-26 0 -47 -9t-34.5 -24
t-17 -34t4.5 -40z" />
    <glyph glyph-name="four" unicode="4" horiz-adv-x="585" 
d="M346 697q61 11 94.5 -17.5t33.5 -96.5v-325h61v-119h-61v-139h-127v139h-297v119zM347 258v229l-155 -229h155z" />
    <glyph glyph-name="five" unicode="5" horiz-adv-x="553" 
d="M167 700h326q2 -52 -21.5 -87t-75.5 -35h-130l-29 -129q54 13 102 3.5t84.5 -39t58 -77t21.5 -110.5q0 -72 -31.5 -124t-80 -81t-107 -35t-111.5 14q-64 24 -93.5 65.5t-29 81t28.5 66t80 20.5q-9 -23 -4.5 -44t18 -37.5t34 -27.5t44.5 -14q22 -3 44 3t39 20.5t28 37
t11 51.5q0 46 -23 73t-54 36t-62.5 0t-48.5 -37l-89 84z" />
    <glyph glyph-name="six" unicode="6" horiz-adv-x="530" 
d="M278 701q26 -3 45 -14.5t28.5 -29.5t9.5 -39.5t-11 -43.5l-159 -321q-8 -15 -11.5 -35.5t1 -41.5t20 -38.5t46.5 -26.5q18 -5 36.5 -0.5t33.5 17t24 31.5t9 43q0 22 -10.5 39.5t-27 29t-37 14t-41.5 -5.5q-5 20 3 39t24.5 33t40 21.5t49 4.5t51 -18.5t46.5 -46.5
q19 -29 26.5 -63t3.5 -69.5t-19.5 -69t-43.5 -60.5q-39 -39 -85 -53t-90.5 -8t-84.5 29t-66.5 59.5t-35.5 84t7 100.5q4 13 19 46t36.5 76t46 91.5t47.5 93t41.5 80t27.5 52.5z" />
    <glyph glyph-name="seven" unicode="7" horiz-adv-x="560" 
d="M51 700h459v-70l-307 -630h-139l281 575h-180q-59 0 -88 31t-26 94z" />
    <glyph glyph-name="eight" unicode="8" horiz-adv-x="558" 
d="M279 711q40 0 75.5 -15.5t61.5 -41.5t41.5 -62t15.5 -76q0 -36 -12.5 -68.5t-34.5 -58.5q38 -32 60 -77t22 -99q0 -48 -18 -89.5t-49 -72.5t-73 -49t-89 -18q-48 0 -89.5 18t-72.5 49t-49 72.5t-18 89.5q0 54 22 99t60 77q-23 26 -35.5 58.5t-12.5 68.5q0 40 15.5 76
t41.5 62t61.5 41.5t76.5 15.5zM279 315q-21 0 -40 -8t-33 -22t-22 -32.5t-8 -39.5t8 -40t22 -33t33 -22t40 -8t39.5 8t32.5 22t22 33t8 40t-8 39.5t-22 32.5t-32.5 22t-39.5 8zM279 593q-32 0 -54.5 -22.5t-22.5 -54.5t22.5 -54t54.5 -22t54.5 22t22.5 54t-22.5 54.5
t-54.5 22.5z" />
    <glyph glyph-name="nine" unicode="9" horiz-adv-x="534" 
d="M254 -4q-26 3 -45 14.5t-28.5 29.5t-10 39.5t10.5 44.5l161 324q7 15 11 36t-0.5 42t-20 39t-46.5 27q-19 5 -37.5 0.5t-33.5 -17.5t-24 -32t-9 -43q0 -23 10.5 -41t27 -29t37.5 -14t42 6q5 -20 -3 -39.5t-25 -33.5t-40.5 -22t-49.5 -5t-51.5 18.5t-46.5 47.5
q-19 29 -27 64t-4 70t20 69t44 62q39 39 85.5 53t91.5 8.5t85 -29.5t66.5 -60.5t36 -84t-6.5 -101.5q-4 -13 -19 -46.5t-36.5 -77t-47 -92t-48.5 -93.5t-41.5 -81t-27.5 -53z" />
    <glyph glyph-name="colon" unicode=":" horiz-adv-x="340" 
d="M167 128q30 0 52 -22q21 -21 21 -52t-21 -52q-22 -22 -52 -22q-31 0 -53 22q-21 21 -21 52t21 52q22 22 53 22zM167 517q30 0 52 -22q21 -21 21 -52q0 -30 -21 -52q-24 -22 -52 -22q-29 0 -53 22q-21 21 -21 52t21 52q22 22 53 22z" />
    <glyph glyph-name="semicolon" unicode=";" horiz-adv-x="345" 
d="M155 -84q-14 -20 -40.5 -20.5t-54.5 14.5l52 116q13 29 25.5 47t29.5 24t40.5 -1.5t57.5 -30.5zM162 517q31 0 52 -22q22 -21 22 -52t-22 -52q-22 -22 -52 -22t-52 22t-22 52t22 52q21 22 52 22z" />
    <glyph glyph-name="less" unicode="&#x3c;" horiz-adv-x="595" 
d="M534 165v-118l-404 206q-41 21 -59 55.5t-7 82.5l470 240q4 -52 -11 -91.5t-47 -56.5l-277 -144z" />
    <glyph glyph-name="equal" unicode="=" horiz-adv-x="533" 
d="M400 469q36 0 50 -24t12 -68h-329q-36 0 -50 24t-12 68h329zM400 306q36 0 50 -24t12 -68h-329q-36 0 -50 24t-12 68h329z" />
    <glyph glyph-name="greater" unicode="&#x3e;" horiz-adv-x="595" 
d="M61 513v118l404 -206q41 -21 59 -55.5t7 -82.5l-470 -240q-4 52 11 91.5t47 56.5l277 144z" />
    <glyph glyph-name="question" unicode="?" horiz-adv-x="566" 
d="M173 456q-38 -7 -64 6.5t-38.5 39t-10.5 58.5t20 63q24 40 64 61.5t85.5 27.5t91 -1t80.5 -24q24 -12 45 -29.5t35.5 -41t20.5 -52.5t0 -65q-7 -38 -23 -65.5t-35.5 -50t-39.5 -42.5t-36 -42t-25 -49t-6 -63q-36 -1 -60 6.5t-38.5 20t-20.5 28.5t-6 32q0 28 8.5 48
t22.5 37.5t32.5 35.5t39.5 41q31 34 41 60.5t5 46t-22 32t-39 17.5q-33 7 -64 -2.5t-51 -29.5t-25 -48t13 -56zM273 -23q28 0 47.5 15t28 37t5 46.5t-22.5 43.5q-13 13 -31.5 19.5t-36.5 11.5t-33.5 12.5t-21.5 24.5q-5 -16 -10.5 -40.5t-7 -51.5t3 -52.5t21.5 -41.5
q24 -24 58 -24z" />
    <glyph glyph-name="at" unicode="@" horiz-adv-x="807" 
d="M566 268q-4 -26 3 -36t20 -6.5t29.5 18t30.5 37t23.5 50.5t8.5 58q-1 52 -16.5 94t-42 73.5t-61.5 52.5t-75 31q-46 11 -94.5 8.5t-94 -20t-84 -48.5t-64.5 -77q-26 -47 -35 -98.5t-1.5 -102t31.5 -96t62.5 -80.5t92 -55.5t120.5 -20.5q58 0 104 21.5t91 62.5h90
q-30 -38 -61 -66.5t-66 -48t-75.5 -29.5t-90.5 -10q-73 0 -134.5 24t-109 65t-78.5 96t-42.5 116.5t-1.5 126.5t45 127q43 76 113 121t149 57.5t158 -9t139 -77.5q57 -54 80.5 -120.5t15 -131.5t-46.5 -121.5t-104 -89.5q-10 -5 -26 -10.5t-35 -8.5q-21 -3 -36 -4t-24.5 4
t-12.5 16.5t0 32.5q-32 -27 -66.5 -39.5t-67 -11.5t-61 15t-48 39.5t-28 61.5t-1.5 82q7 44 28 80.5t50.5 63t65 40.5t70.5 13q34 -2 53 -16t26 -32.5t4.5 -38t-10.5 -31.5q-10 18 -32 24.5t-42 6.5q-34 0 -59 -16.5t-40.5 -41t-20 -53t3 -53t27.5 -41t54 -16.5q29 0 50 13
t35.5 33.5t23.5 46t13 51.5l24 154h94l-40 -260v0z" />
    <glyph glyph-name="A" unicode="A" horiz-adv-x="721" 
d="M260 607q20 53 59.5 77t108.5 12l268 -696h-138l-54 143q-30 0 -65 0.5t-63.5 -4.5t-44.5 -17.5t-8 -39.5q-36 10 -54.5 30.5t-22.5 43.5t5 45.5t27 37.5q17 15 38.5 21.5t45 9t47.5 2t46 -0.5l-94 240l-198 -511h-138z" />
    <glyph glyph-name="B" unicode="B" horiz-adv-x="584" 
d="M50 0v582q1 104 96 118h137q51 0 91.5 -20t68.5 -55q22 -27 31.5 -60.5t5.5 -66.5t-21.5 -63t-49.5 -51q41 -16 68.5 -44t41.5 -62t14.5 -71t-12 -71.5t-37.5 -64t-62 -47.5q-48 -24 -133 -24h-239zM182 572v-446q16 0 36 -0.5t41 -0.5t41 1.5t35 6.5q38 10 54 34.5
t12.5 51.5t-24.5 51t-57 32q-11 2 -27 3.5t-33.5 0t-32.5 -6.5t-22 -17q-12 28 -14.5 51.5t7 42.5t33 32t63.5 21q25 5 41.5 25t16.5 47q0 29 -19.5 46t-44.5 22q-11 2 -25.5 3t-29 1t-28.5 -0.5t-23 -0.5z" />
    <glyph glyph-name="C" unicode="C" horiz-adv-x="725" 
d="M618 461q-14 37 -44 63t-68.5 40.5t-81.5 18t-81 -4.5q-41 -9 -73.5 -30.5t-55 -52t-34.5 -67.5t-12 -77q0 -75 32 -127.5t81 -80.5t107 -30t110 22q45 20 101 78l86 -93q-34 -35 -66 -60t-66.5 -41t-73 -24t-83.5 -8q-81 0 -143 26t-106 69.5t-69.5 100t-33.5 117.5
t3 121.5t40 112.5q28 49 63.5 82.5t77 54t88 29.5t96.5 10q35 0 73.5 -6.5t73 -20t61.5 -34.5t38 -49t3 -62.5t-43 -76.5z" />
    <glyph glyph-name="D" unicode="D" horiz-adv-x="660" 
d="M298 700q45 0 80.5 -12t64.5 -27q59 -30 97 -83.5t55 -118.5t13.5 -134.5t-28 -131t-69.5 -109t-110 -67.5q-26 -8 -70.5 -11.5t-94.5 -5t-99.5 -1t-86.5 0.5v581q0 25 6 47t19.5 38t36 25t55.5 9h131zM183 130h83t71.5 7.5t59.5 26.5t47 57q16 31 24 71t5.5 81t-16 78.5
t-40.5 64.5q-23 23 -55 37t-67 14h-112v-437z" />
    <glyph glyph-name="E" unicode="E" horiz-adv-x="503" 
d="M453 700v-131h-270v-155h270q-1 -23 -7 -46t-19 -41t-33.5 -29.5t-50.5 -11.5h-160v-155h270v-131h-403v579q0 58 32.5 89.5t82.5 31.5h288z" />
    <glyph glyph-name="F" unicode="F" horiz-adv-x="503" 
d="M453 700v-131h-271v-155h271q-1 -23 -7 -46t-19 -41t-33.5 -29.5t-51.5 -11.5h-160v-286h-132v582q0 54 24.5 86t86.5 32h292z" />
    <glyph glyph-name="G" unicode="G" horiz-adv-x="796" 
d="M663 450q-10 31 -35.5 57t-61.5 44t-78.5 27t-86 6t-84.5 -19.5t-74 -48.5q-37 -36 -53.5 -80t-15.5 -89t18.5 -87.5t50 -75.5t78 -53t102.5 -20q68 0 116 29t67 90h-185q-26 0 -46 11t-32.5 28.5t-18.5 39.5t-4 45h434q8 -91 -20 -160.5t-78.5 -116.5t-116.5 -71
t-133 -23q-46 1 -91.5 12.5t-87 34t-77 56.5t-60.5 79q-30 52 -41.5 107.5t-7 109.5t24.5 104t53 92q48 61 123 98.5t172 37.5q72 0 136.5 -20.5t105 -56.5t46.5 -84t-39 -103z" />
    <glyph glyph-name="H" unicode="H" horiz-adv-x="604" 
d="M185 700v-286h234v286h135v-700h-135v286h-133q-17 0 -34 4t-30.5 13t-23.5 23.5t-13 36.5v-363h-135v593q0 28 11.5 48.5t30 33.5t43 19t50.5 6z" />
    <glyph glyph-name="I" unicode="I" horiz-adv-x="252" 
d="M192 0h-132v595q0 50 36 78t96 27v-700z" />
    <glyph glyph-name="J" unicode="J" horiz-adv-x="449" 
d="M389 240q0 -39 -2 -72.5t-9.5 -61.5t-22 -51t-40.5 -40q-41 -26 -96 -26q-45 0 -77.5 12.5t-53 31.5t-30 43t-8.5 47.5t12.5 43.5t31.5 32q9 -37 33.5 -56t49.5 -24q29 -6 45.5 -1.5t24 18t9 33.5t1.5 46v381q0 49 36 77t96 27v-460z" />
    <glyph glyph-name="K" unicode="K" horiz-adv-x="588" 
d="M194 458l138 177q39 56 90 69t122 -3l-129 -165l-116 -148l269 -388h-158l-216 312v-312h-135v701h135v-243z" />
    <glyph glyph-name="L" unicode="L" horiz-adv-x="481" 
d="M191 127h240v-127h-372v595q0 50 36 78t96 27v-573z" />
    <glyph glyph-name="M" unicode="M" horiz-adv-x="775" 
d="M223 701l163 -489l164 489h175v-700h-133v440l-109 -324q-5 -15 -8.5 -30.5t-4 -30t4 -27t16.5 -20.5q-27 -14 -59.5 -14.5t-53.5 7.5q-18 7 -32.5 19.5t-25.5 28t-18.5 33t-13.5 34.5l-105 315v-431h-133v595q0 49 30.5 77t83.5 28h59z" />
    <glyph glyph-name="N" unicode="N" horiz-adv-x="660" 
d="M50 594q0 21 6.5 40t19.5 34t32.5 23.5t45.5 8.5h22l302 -461v461h132v-700h-127l-301 459v-459h-132v594z" />
    <glyph glyph-name="O" unicode="O" horiz-adv-x="771" 
d="M387 713q148 0 253 -107q106 -106 106 -260q0 -153 -104 -257q-105 -105 -254 -105q-157 0 -260 108q-103 107 -103 257q0 15 1.5 32.5t4.5 36.5t8 36.5t13 32.5q16 32 45 52t61.5 27t65 1.5t56.5 -22.5t35 -46.5t0 -69.5q-19 23 -46.5 29t-52.5 -6t-42 -42t-15 -79
q4 -104 82 -167q64 -53 147 -53q93 0 159 68q66 69 66 168t-66 168q-68 68 -162 68q-44 0 -80 -13q-18 16 -42.5 25t-52 10t-55 -6t-51.5 -22q42 52 101 87q85 49 182 49z" />
    <glyph glyph-name="P" unicode="P" horiz-adv-x="571" 
d="M160 700h154q81 0 132 -36.5t74.5 -91t20 -118t-30.5 -118t-77 -91t-120 -36.5q-53 0 -81.5 17.5t-38.5 42t-5 51.5t19 47q5 -11 19 -17t31.5 -9t34.5 -3t28 2q27 5 46.5 24t29 44.5t9.5 54t-11.5 52.5t-36 39.5t-62.5 15.5h-113v-570h-132v577q0 55 25 89t85 34z" />
    <glyph glyph-name="Q" unicode="Q" horiz-adv-x="806" 
d="M672 103l79 -102h-159l-18 23q-51 -27 -108.5 -36t-114.5 -0.5t-110.5 34.5t-95.5 70q-57 59 -82 128t-22.5 138.5t29.5 133.5t75 113.5t114 79t145 29.5q78 0 143 -29t112 -78t74.5 -112t31 -131t-18.5 -135.5t-74 -125.5zM589 210q39 59 41.5 125t-25 121.5t-80 91.5
t-122.5 36q-58 0 -102 -22.5t-73 -58.5t-42.5 -81.5t-10.5 -92.5t23 -90.5t59 -74.5q51 -42 114 -50.5t122 15.5q-16 20 -33.5 42.5t-37.5 37.5t-42.5 18.5t-46.5 -13.5q-3 28 3.5 48.5t19 33.5t29 20t31.5 10q37 6 77 -15.5t70 -63.5z" />
    <glyph glyph-name="R" unicode="R" horiz-adv-x="614" 
d="M161 700h153q73 0 122 -30t75 -76.5t29.5 -103t-12.5 -109.5t-51.5 -96t-87.5 -63l175 -222h-163l-194 246q-22 28 -19.5 62t19.5 59q5 -11 19 -17t31.5 -9t34.5 -3t29 2q27 5 46.5 24t29 44.5t9.5 54t-11.5 52.5t-36 39.5t-62.5 15.5h-113v-570h-133v577q0 55 25 89
t86 34z" />
    <glyph glyph-name="S" unicode="S" horiz-adv-x="547" 
d="M445 504q-19 37 -45 57t-52.5 27t-51 2t-40.5 -17t-20 -29t10 -35q19 -24 54 -52.5t72.5 -60.5t71.5 -66t50 -69q20 -45 17 -94.5t-28.5 -90.5t-72.5 -67.5t-114 -26.5q-40 0 -78.5 12.5t-72.5 35t-62.5 53.5t-47.5 69l105 77q9 -19 23 -37t31 -33.5t35.5 -27t35.5 -16.5
q30 -8 56.5 -2t41.5 22.5t15 41t-23 53.5q-25 31 -67 64t-83 70t-71 80t-30 94q0 39 16 72t42.5 56t61.5 36t73 13q48 0 89.5 -13.5t67.5 -38.5q19 -17 29 -38t10 -42.5t-11.5 -42t-36.5 -36.5z" />
    <glyph glyph-name="T" unicode="T" horiz-adv-x="569" 
d="M50 700h479q0 -31 -9 -55.5t-24 -41.5t-34.5 -26t-41.5 -9h-80v-568h-135v568h-155v132z" />
    <glyph glyph-name="U" unicode="U" horiz-adv-x="598" 
d="M50 700h133v-436q0 -33 5.5 -60.5t18.5 -47t34.5 -30.5t53.5 -11q65 0 93 40t28 112v312q0 27 6 50t21 39t40.5 24.5t64.5 7.5v-414q0 -65 -11 -120t-39.5 -94.5t-77.5 -61.5t-124 -22t-123 22t-75.5 61.5t-37.5 94t-10 120.5v414z" />
    <glyph glyph-name="V" unicode="V" horiz-adv-x="676" 
d="M25 698h136l175 -496l135 374q28 77 73 103.5t107 18.5l-252 -698h-128z" />
    <glyph glyph-name="W" unicode="W" horiz-adv-x="880" 
d="M35 698h131l101 -446l91 325q17 59 50.5 92.5t93.5 28.5l127 -446l73 326q15 65 52 97t106 23l-159 -698h-127l-128 451l-126 -451h-126z" />
    <glyph glyph-name="X" unicode="X" horiz-adv-x="693" 
d="M49 699h151l147 -224l91 139q20 30 39.5 51t43 32t53.5 11.5t71 -9.5l-223 -340l236 -359h-152l-159 244l-160 -244h-152l236 359z" />
    <glyph glyph-name="Y" unicode="Y" horiz-adv-x="560" 
d="M248 -9q-49 0 -90 12.5t-68 38t-36.5 64t5.5 89.5q12 -22 31.5 -38.5t43.5 -27t50 -15.5t51 -4q71 2 109 36.5t38 106.5q-7 -18 -24 -32t-38 -23.5t-43 -14.5t-40 -6q-38 -2 -74.5 10t-66.5 43q-44 44 -44 133v337h126q0 -17 -0.5 -45.5t-0.5 -62.5v-70.5t1 -69t3 -58
t5 -37.5q8 -31 29.5 -47.5t47.5 -15.5q17 0 32 5.5t26.5 15t18 22t6.5 27.5q14 -4 22.5 -13t13.5 -22v371h128v-453q0 -117 -66.5 -186.5t-195.5 -69.5z" />
    <glyph glyph-name="Z" unicode="Z" horiz-adv-x="608" 
d="M206 700h352l-287 -571h270v-129h-494l292 568h-122q-22 0 -40.5 -0.5t-34.5 -5t-29.5 -14.5t-25.5 -30q-27 40 -26.5 73.5t20 57.5t53.5 37.5t72 13.5z" />
    <glyph glyph-name="bracketleft" unicode="[" horiz-adv-x="318" 
d="M60 577q0 54 32.5 87.5t89.5 33.5h76v-115h-73v-630h73v-114h-198v738z" />
    <glyph glyph-name="backslash" unicode="\" horiz-adv-x="506" 
d="M439 -102q-33 -3 -62 4t-40 37l-284 761q35 3 64 -5.5t41 -41.5l281 -755v0z" />
    <glyph glyph-name="bracketright" unicode="]" horiz-adv-x="318" 
d="M258 -40q0 -54 -32.5 -87.5t-89.5 -33.5h-76v114h73v630h-73v115h198v-738z" />
    <glyph glyph-name="asciicircum" unicode="^" horiz-adv-x="568" 
d="M165 201h-110l155 431q14 40 49 56t77 11l177 -498q-20 -2 -40.5 0t-38 8.5t-30.5 17t-19 26.5l-101 284z" />
    <glyph glyph-name="underscore" unicode="_" horiz-adv-x="572" 
d="M98 -51h425q-4 -23 -16.5 -35t-37.5 -12h-419q2 17 14.5 32t33.5 15z" />
    <glyph glyph-name="grave" unicode="`" horiz-adv-x="371" 
d="M72 682q28 20 49.5 27t39 2t32.5 -21.5t32 -44.5l36 -60q-24 -14 -49.5 -13t-42.5 19z" />
    <glyph glyph-name="a" unicode="a" 
d="M436 57q-38 -37 -82.5 -54t-89.5 -15.5t-87.5 20.5t-75 54.5t-52 85t-19.5 112.5q0 60 21 111t56.5 87t81 55.5t94.5 17.5q48 -2 77 -21.5t42.5 -45.5t14 -52.5t-8.5 -42.5q-17 25 -48 33.5t-60 8.5q-46 0 -77 -22.5t-47 -56.5t-16.5 -73.5t15 -73.5t47 -56.5t78.5 -22.5
q40 0 66 18t41.5 46.5t22 64t6.5 70.5v213h130v-518h-130v57z" />
    <glyph glyph-name="b" unicode="b" horiz-adv-x="613" 
d="M176 0h-126v597q0 41 33.5 71t92.5 32v-403q0 -34 6.5 -68.5t21.5 -62.5t41 -45.5t65 -17.5q46 0 76.5 22t45.5 55t14.5 72t-16 72t-46 55t-75.5 22q-27 0 -57.5 -8.5t-47.5 -32.5q-9 16 -9.5 42t12.5 51t41 44t78 21q48 1 92.5 -18t79 -54t55 -84.5t20.5 -108.5
q0 -61 -19 -109.5t-51 -82.5t-73 -53t-85 -20.5t-88 14.5t-81 53v-55z" />
    <glyph glyph-name="c" unicode="c" horiz-adv-x="550" 
d="M453 326q-8 28 -30.5 47t-52.5 28.5t-64 9t-64.5 -13.5t-53.5 -38.5t-32 -64.5q-7 -32 -2 -65t23 -59.5t48.5 -43.5t73.5 -17q81 0 126 59l95 -69q-76 -107 -219 -107q-75 0 -129.5 28.5t-88.5 74t-46 102t-2.5 112t41.5 105t87 80.5q41 23 87.5 31.5t93.5 1.5
q62 -9 96.5 -37t45.5 -60.5t1.5 -62t-34.5 -41.5z" />
    <glyph glyph-name="d" unicode="d" horiz-adv-x="601" 
d="M425 56q-37 -36 -80.5 -52.5t-87.5 -15t-85 20t-72.5 53t-50.5 82.5t-19 109q0 59 20.5 108t55 84.5t78.5 54.5t92 17q50 -2 78.5 -21t41 -44t12 -50.5t-9.5 -41.5q-17 24 -47.5 32.5t-57.5 8.5q-45 0 -75.5 -22t-46 -55t-15.5 -71.5t15 -71.5t45 -55t76 -22
q39 0 64.5 17.5t40.5 45.5t21.5 62.5t6.5 68.5v401q59 -2 92.5 -32t33.5 -70v-596h-126v55z" />
    <glyph glyph-name="e" unicode="e" horiz-adv-x="570" 
d="M403 200q-54 -14 -98.5 -10t-73 21.5t-38 47t5.5 66.5q31 -26 72 -28.5t79 1.5q32 3 48.5 14t20.5 25.5t-3 30.5t-22.5 29t-38 21t-49.5 7q-29 -2 -55 -14t-46 -33t-32 -49t-13 -62q-1 -28 6.5 -55t22.5 -49.5t36 -38t48 -19.5q38 -7 78 5t71 44l105 -51
q-41 -61 -97 -87.5t-128 -26.5q-67 0 -117.5 23.5t-84 62.5t-50 88.5t-15.5 101t20 101t55 87.5q40 43 93.5 61t109.5 18q62 0 107 -21t73 -53.5t37 -72t-1.5 -76.5t-41.5 -66.5t-84 -42.5z" />
    <glyph glyph-name="f" unicode="f" horiz-adv-x="378" 
d="M50 519h46q0 26 -0.5 51.5t2 48t8 41.5t17.5 34q14 17 37.5 26.5t61.5 11.5q41 1 75 -11t52.5 -33.5t18 -49.5t-28.5 -59q-7 20 -25.5 32t-38 13t-34.5 -9.5t-15 -35.5v-60h128q0 -50 -28 -80.5t-70 -30.5h-30v-408h-130v408h-46v111z" />
    <glyph glyph-name="g" unicode="g" 
d="M301 -201q-50 0 -96.5 12t-79.5 36.5t-47 62t1 89.5q16 -18 41.5 -33t54 -25.5t58 -16.5t54.5 -5q46 2 75 15t45.5 33.5t22.5 46.5t6 54q-38 -38 -82.5 -54.5t-89.5 -15t-87.5 21t-75 54.5t-52 85t-19.5 112q0 60 21 109t56.5 83t81 52t94.5 16q48 -2 77 -21.5t42.5 -45
t14 -52.5t-8.5 -43q-9 12 -21.5 20.5t-27 13.5t-30 7t-29.5 2q-46 0 -77 -22t-47 -54.5t-16.5 -70.5t15 -70.5t47 -54.5t78.5 -22q40 0 66 16t41.5 42.5t22 60t6.5 68.5v213h130v-460q0 -59 -17 -107t-50.5 -82t-83 -52t-114.5 -18z" />
    <glyph glyph-name="h" unicode="h" horiz-adv-x="547" 
d="M176 700v-253q8 17 24 30t35.5 21.5t40 13.5t38.5 6q37 2 73 -10t66 -43q44 -46 44 -132v-333h-125q0 16 0.5 44.5t0.5 62v70t-1 69t-3 57.5t-5 37q-8 30 -29 46t-47 16q-34 0 -52.5 -18t-18.5 -47q-11 3 -23.5 15t-17.5 26v-378h-126v598q0 48 34 75.5t92 26.5z" />
    <glyph glyph-name="i" unicode="i" horiz-adv-x="268" 
d="M70 413q2 30 12.5 50t27.5 32t39.5 17.5t49.5 5.5v-518h-129v413zM135 731q34 0 58 -25q25 -24 25 -59t-24 -60q-14 -14 -32.5 -19.5l-37 -11t-34 -13t-21.5 -24.5q-5 16 -10.5 41t-7 52t3 52.5t21.5 42.5q24 24 59 24z" />
    <glyph glyph-name="j" unicode="j" horiz-adv-x="265" 
d="M202 -20q0 -73 -14 -110q-16 -40 -48.5 -58t-74.5 -18q-33 0 -60.5 12.5t-44 32t-19.5 44t14 48.5q9 -9 22.5 -17t28.5 -11.5t29 -1t24 14.5q13 14 13 55q0 110 -0.5 219.5t-0.5 220.5q2 31 12.5 51t28 32t40.5 17t50 6v-537zM137 730q34 0 59 -25q24 -24 24 -60
q0 -35 -24 -59q-14 -14 -32.5 -20t-37 -11t-34 -13t-21.5 -25q-5 16 -10.5 41t-7 52.5t3 53t21.5 42.5q24 24 59 24z" />
    <glyph glyph-name="k" unicode="k" horiz-adv-x="559" 
d="M177 297l109 121q33 37 65 60t77 26q22 1 42 -3.5t33 -16t17 -29t-5 -42.5q-4 7 -14.5 9.5t-25 -0.5t-31.5 -12.5t-33 -28.5l-106 -117l244 -264h-158l-214 233v-233h-127v598q0 48 34.5 75.5t92.5 26.5v-403z" />
    <glyph glyph-name="l" unicode="l" horiz-adv-x="226" 
d="M176 700v-700h-126v598q0 48 34 75.5t92 26.5z" />
    <glyph glyph-name="m" unicode="m" horiz-adv-x="883" 
d="M180 458q8 18 24 31t36 21.5t41 13.5t39 6q38 3 75.5 -9.5t67.5 -43.5q9 -10 16.5 -20.5t12.5 -23.5q3 22 18 39.5t36.5 30t46.5 19.5t49 8q39 3 76.5 -9.5t69.5 -43.5q45 -47 45 -135v-342h-130v46t-0.5 63.5t-0.5 71.5t-1 70t-2.5 59t-3.5 38q-11 65 -73 68
q-35 1 -58.5 -20t-22.5 -51q-9 3 -18 10.5t-16 17.5q1 -8 1 -15.5v-15.5v-342h-128q0 17 0.5 46t0.5 63.5v71.5t-1 70t-3 59t-5 38q-8 32 -30 48t-48 16q-35 0 -54 -18.5t-19 -48.5q-12 4 -24 16.5t-17 26.5v-388h-130v517h130v-59z" />
    <glyph glyph-name="n" unicode="n" horiz-adv-x="558" 
d="M179 458q8 18 24.5 31t36.5 22t41 14t39 6q38 2 75 -10.5t68 -43.5q45 -47 45 -135v-342h-128q0 17 0.5 46t0.5 63.5v71.5t-1 70t-3 59t-5 38q-8 32 -30.5 48t-48.5 16q-34 0 -53 -18.5t-19 -48.5q-12 4 -24 16.5t-18 26.5v-388h-129v518h129v-60z" />
    <glyph glyph-name="o" unicode="o" horiz-adv-x="606" 
d="M301 530q79 0 140.5 -38t96.5 -97t37.5 -131t-36.5 -141q-33 -57 -86 -91t-113 -42.5t-120.5 10t-108.5 66.5q-54 55 -72 127t3 144q9 29 29.5 48t46.5 28t54 8t52 -11.5t40.5 -30t19.5 -47.5q-15 11 -36 11.5t-40.5 -9t-33 -29t-13.5 -48.5q0 -50 21 -83t52.5 -49.5
t68 -16.5t68 17t52.5 50.5t21 83.5q0 39 -14 69t-37.5 49.5t-54.5 27t-66 0.5q-15 18 -36.5 28.5t-46.5 14t-50 -1t-47 -17.5q40 48 93 74.5t116 26.5z" />
    <glyph glyph-name="p" unicode="p" horiz-adv-x="612" 
d="M179 461q37 37 81.5 54t89.5 15t87 -21t74 -54t51.5 -84.5t19.5 -111.5q0 -60 -21 -110t-56 -86t-80.5 -55.5t-93.5 -17.5q-50 2 -79 21.5t-42 45t-13 52t9 42.5q9 -12 21.5 -20.5t27 -13t30 -6.5t29.5 -2q46 0 77 22.5t46.5 56t15.5 73t-15 73t-46 56t-78 22.5
q-39 0 -65 -18t-41.5 -46.5t-22 -63.5t-6.5 -70v-409h-129v608q0 26 10.5 46t28.5 33.5t41 19.5t49 5v-56z" />
    <glyph glyph-name="q" unicode="q" horiz-adv-x="611" 
d="M433 517h128v-607q0 -41 -34 -71.5t-94 -32.5v409q0 34 -6.5 69.5t-22 63.5t-42 46t-65.5 18q-47 0 -77.5 -22.5t-46 -56t-15 -73t16 -73t46.5 -56t77 -22.5q14 0 29 2t29.5 6.5t27 13t21.5 20.5q9 -16 9 -42.5t-12.5 -52t-41.5 -44.5t-79 -21q-49 -2 -94 17.5t-80 55.5
t-56 86t-21 110q0 62 19.5 111.5t51.5 84t74 53.5t87 20.5t89.5 -15t81.5 -53.5v56z" />
    <glyph glyph-name="r" unicode="r" horiz-adv-x="426" 
d="M50 520h112v-66q17 35 43.5 55.5t58.5 22.5q42 3 68 -15.5t36.5 -45t5.5 -54t-27 -43.5q-9 25 -34.5 32.5t-53.5 -2t-50.5 -35.5t-26.5 -68q-2 -24 -2 -47.5v-43.5v-210h-130v520z" />
    <glyph glyph-name="s" unicode="s" horiz-adv-x="425" 
d="M307 359q-8 19 -22 30.5t-30.5 17.5t-32 6.5t-25.5 -3.5q-18 -6 -23.5 -20.5t5.5 -27.5q9 -10 28.5 -19.5t43.5 -21t49.5 -26t46.5 -34.5t34.5 -47t13.5 -64q0 -43 -19 -75.5t-50.5 -52.5t-71 -27.5t-80 -1.5t-78.5 27.5t-66 58.5l80 86q25 -30 52.5 -43t51 -14.5t39.5 7
t19.5 23t-8.5 32t-46 34.5q-32 16 -62.5 33t-54 38t-38 47t-14.5 61q0 36 15 64t40 47t57 28t66 8q58 -3 88.5 -25.5t38 -51t-5 -55.5t-41.5 -39z" />
    <glyph glyph-name="t" unicode="t" horiz-adv-x="376" 
d="M104 598q0 28 10.5 47.5t28 31.5t40.5 17.5t47 5.5v-186h116q0 -20 -3.5 -39t-13.5 -34.5t-27 -25t-44 -9.5h-28v-283q0 -16 12 -22.5t28 -6t32 7.5t23 19q13 -33 1.5 -58.5t-36 -41t-57 -20t-61 5t-48.5 34t-20 66.5v299h-64v108h64v84z" />
    <glyph glyph-name="u" unicode="u" horiz-adv-x="554" 
d="M181 517v-248q0 -18 0.5 -38.5t4 -40t12 -36.5t25.5 -29q11 -8 25.5 -12t29.5 -4t29 4t26 12q17 11 25.5 27.5t12 35.5t3.5 39v38v149q-1 54 35 80.5t94 24.5v-220q1 -68 -4.5 -113.5t-16.5 -71.5q-29 -67 -82 -96t-124 -29q-77 0 -132 34t-79 109q-7 23 -11 62.5
t-4 86.5v236h131z" />
    <glyph glyph-name="v" unicode="v" horiz-adv-x="577" 
d="M20 517h133l130 -305l98 226q10 22 25 40.5t35 30.5t46.5 15.5t59.5 -3.5l-223 -521h-83z" />
    <glyph glyph-name="w" unicode="w" horiz-adv-x="823" 
d="M30 517h126l105 -295l85 222q9 24 20.5 38.5t25 22.5t29 10.5t31.5 1.5l110 -291l79 221q11 30 28.5 47t38 24.5t42.5 6.5t43 -8l-187 -518h-83l-111 295l-114 -295h-82z" />
    <glyph glyph-name="x" unicode="x" horiz-adv-x="615" 
d="M54 517h151l102 -141l69 95q16 23 36.5 35.5t44 17t49 2.5t52.5 -9l-176 -243l198 -274h-151l-123 169l-122 -169h-149l197 272z" />
    <glyph glyph-name="y" unicode="y" horiz-adv-x="547" 
d="M234 -194q-49 0 -90.5 13t-68.5 38.5t-36.5 64.5t5.5 90q12 -22 31.5 -38.5t43.5 -27.5t50 -16.5t51 -4.5q72 3 110 37.5t38 107.5q-7 -19 -24 -33t-38 -23.5t-43 -14.5t-40 -6q-38 -2 -75 10t-67 43q-45 46 -45 134v339h127q0 -17 -0.5 -45.5t-0.5 -63v-71t1 -69.5
t3 -58.5t5 -37.5q8 -32 30 -48t48 -16q17 0 32 5.5t26.5 15.5t18.5 22.5t7 27.5q25 -7 35 -35v373h129v-456q0 -118 -66.5 -187.5t-196.5 -69.5z" />
    <glyph glyph-name="z" unicode="z" horiz-adv-x="533" 
d="M178 518h305l-233 -408h219v-110h-419l233 408h-82q-15 0 -32.5 -1.5t-33 -7t-27 -15t-14.5 -25.5q-20 18 -27.5 45.5t0.5 52.5t35 43t76 18z" />
    <glyph glyph-name="braceleft" unicode="{" horiz-adv-x="505" 
d="M54 210q-3 53 15 79t59 37q16 5 22 10t14 16q16 20 20 52.5t4 75.5q0 79 10 124.5t46 68.5q12 7 25 12t30 8t38 4.5t49 1.5h58q1 -22 -3 -41.5t-13 -34.5t-23 -23.5t-32 -8.5q-15 0 -23 -0.5t-12.5 -2t-7.5 -3.5t-7 -6q-9 -7 -12.5 -19.5t-4.5 -34t-1.5 -53t-3.5 -74.5
q-4 -45 -22.5 -76t-57.5 -57q39 -26 57.5 -57t22.5 -77q3 -44 3.5 -75t1.5 -52.5t4.5 -34t12.5 -19.5q4 -4 7 -6t7.5 -3t12.5 -1.5t23 -0.5q37 -1 55.5 -32.5t15.5 -76.5h-58q-28 0 -49 1.5t-38 4.5t-30 8t-25 13q-36 22 -46 67.5t-10 125.5q0 36 -2.5 65t-12.5 49.5t-30 32
t-54 13.5h-35z" />
    <glyph glyph-name="bar" unicode="|" horiz-adv-x="245" 
d="M85 647q0 12 6.5 22t17 17t24 10.5t27.5 1.5v-808q0 -12 -6.5 -22t-17 -17t-24 -10.5t-27.5 -1.5v808z" />
    <glyph glyph-name="braceright" unicode="}" horiz-adv-x="502" 
d="M451 319q4 -53 -14 -79t-59 -37q-16 -4 -22 -9.5t-14 -15.5q-17 -21 -20.5 -53t-3.5 -75q0 -80 -10 -125.5t-46 -67.5q-23 -15 -55 -21t-88 -6h-58q-2 45 16.5 76.5t55.5 32.5q15 0 23 0.5t12.5 1.5t7 3l7.5 6q9 7 12.5 19.5t4.5 34t1.5 52.5t3.5 75q3 46 21.5 77
t57.5 57q-39 26 -57.5 57t-21.5 76q-3 43 -3.5 74.5t-1.5 53t-4.5 34t-12.5 19.5l-7.5 6t-7 3.5t-12.5 2t-23 0.5q-18 0 -32 8.5t-23.5 23.5t-13.5 34.5t-3 41.5h58q56 0 88 -6t55 -20q36 -23 46 -68.5t10 -124.5q0 -36 2.5 -65.5t12.5 -50t29.5 -32.5t53.5 -13h35z" />
    <glyph glyph-name="asciitilde" unicode="~" horiz-adv-x="668" 
d="M92 268q-18 13 -29 32t-12 40t10 42t37 39q32 22 67 28t70.5 1t70 -18t66.5 -28q22 -11 52.5 -20t60.5 -9t55 12t37 43q14 -7 25.5 -23.5t14.5 -38t-5.5 -45.5t-34.5 -45q-28 -23 -60.5 -28.5t-67 -1t-69.5 16.5t-67.5 24t-60.5 21.5t-48 10.5q-34 1 -64.5 -10t-47.5 -43
z" />
    <glyph glyph-name="exclamdown" unicode="&#xa1;" horiz-adv-x="267" 
d="M70 228q2 30 12.5 50t27.5 32t39.5 17t49.5 5v-515h-129v411zM134 544q34 0 59 -25q24 -24 24 -59t-24 -59q-14 -14 -32.5 -19.5t-36.5 -11t-33.5 -13t-21.5 -24.5q-5 16 -10.5 41t-7 52t3 52t21.5 42q24 24 58 24z" />
    <glyph glyph-name="cent" unicode="&#xa2;" horiz-adv-x="568" 
d="M460 330q-8 27 -29.5 46t-50.5 29l-108 -289q8 -2 16 -3t18 -1q81 0 126 60l96 -70q-78 -108 -220 -108q-44 0 -78 10l-22 -58q-6 -16 -17 -25.5t-25 -14t-31 -5t-34 1.5l50 135q-59 39 -88 101.5t-27.5 130t34.5 129.5t99 100q38 21 80.5 30t86.5 5l16 44q13 35 43 43.5
t67 5.5l-42 -115q37 -18 56 -45t22.5 -54t-7 -50t-31.5 -33zM291 413q-45 -7 -81 -34.5t-48 -80.5q-8 -37 0 -74.5t34 -65.5z" />
    <glyph glyph-name="sterling" unicode="&#xa3;" horiz-adv-x="566" 
d="M396 514q-5 45 -31.5 63.5t-56 16t-53.5 -22.5t-24 -51q0 -18 10 -45t18 -47h162q-2 -56 -24.5 -87.5t-73.5 -31.5h-29q4 -25 5 -46.5t-2.5 -43t-10.5 -45t-19 -52.5q24 -3 56.5 -6t62.5 2t53 21.5t29 52.5q16 -6 30 -18.5t20 -32t0.5 -44.5t-28.5 -56
q-22 -29 -57.5 -42.5t-74.5 -13.5q-33 0 -64 5.5t-63.5 9t-67.5 2t-74 -15.5l-44 113q43 16 75 20q14 25 24 47.5t15 45t5.5 46t-3.5 51.5h-114v119h73q-25 53 -23 104t26.5 91.5t70 65.5t107.5 27q22 0 44.5 -4.5t43 -14.5t36 -23.5t24.5 -31.5q7 -15 9.5 -34.5t-3 -38
t-20 -33.5t-39.5 -22z" />
    <glyph glyph-name="currency" unicode="&#xa4;" horiz-adv-x="626" 
d="M313 630q39 0 74.5 -12t64.5 -33l46 46q9 9 21 11.5t25 0t25.5 -10t21.5 -19.5l-83 -83q21 -30 32.5 -65.5t11.5 -74.5q0 -38 -11.5 -73.5t-32.5 -65.5l45 -45q17 -18 11.5 -46.5t-28.5 -47.5l-84 84q-29 -21 -64.5 -33t-74.5 -12t-74.5 12t-64.5 33l-46 -46
q-9 -9 -21 -11.5t-25 0t-25.5 10t-21.5 19.5l83 83q-21 29 -32.5 65t-11.5 74q0 39 11.5 74.5t32.5 65.5l-45 45q-9 9 -11.5 21t0 25t9.5 26t19 22l84 -84q29 21 64.5 33t74.5 12zM313 547q-32 0 -60.5 -12.5t-49.5 -33.5t-33.5 -49.5t-12.5 -61.5q0 -32 12.5 -60.5
t33.5 -49.5t49.5 -33.5t60.5 -12.5t60.5 12.5t49.5 33.5t33.5 49.5t12.5 60.5q0 33 -12.5 61.5t-33.5 49.5t-49.5 33.5t-60.5 12.5z" />
    <glyph glyph-name="yen" unicode="&#xa5;" horiz-adv-x="599" 
d="M50 698h138l111 -247l112 247h138l-148 -327h73q32 0 45 -20.5t11 -57.5h-164v-66h108q32 0 45 -20.5t11 -57.5h-164v-147h-134v147h-107q-32 0 -45 20.5t-11 57.5h163v66h-107q-32 0 -45 20.5t-11 57.5h128z" />
    <glyph glyph-name="brokenbar" unicode="&#xa6;" horiz-adv-x="338" 
d="M208 266v-398q0 -12 -6.5 -23t-17.5 -18.5t-25 -11t-29 -1.5v423zM130 662q0 12 6.5 22.5t17.5 18t25 11t29 2.5v-326l-78 -29v301z" />
    <glyph glyph-name="section" unicode="&#xa7;" horiz-adv-x="562" 
d="M416 532q-18 35 -42 53.5t-49 24.5t-47.5 2t-37.5 -15.5t-18.5 -27.5t9.5 -33q17 -22 49.5 -48.5t68 -56t66.5 -61.5t46 -64q23 -50 15 -103.5t-43 -93.5q19 -23 28 -44q19 -42 16 -88t-26.5 -84.5t-67.5 -63t-106 -24.5q-37 0 -73 11.5t-67.5 32.5t-58 50t-44.5 64
l98 72q8 -17 21.5 -34t29 -31.5t32.5 -25.5t33 -15q28 -8 53 -2t39 21t13.5 38t-21.5 50q-23 29 -62 59.5t-77 65t-66 74.5t-28 88q0 37 14.5 67t38.5 52q-23 27 -38 57t-15 65q0 36 14.5 66.5t39.5 52t57 33.5t68 12q45 0 83.5 -12t63.5 -35q17 -16 26.5 -35.5t9 -39.5
t-11 -39.5t-33.5 -34.5zM344 194q11 16 9.5 37t-21.5 46q-15 20 -39 39.5t-50 41.5q-17 -11 -21.5 -28t9.5 -34q17 -22 48 -47.5t65 -54.5z" />
    <glyph glyph-name="dieresis" unicode="&#xa8;" horiz-adv-x="465" 
d="M337 747q28 0 48 -20q20 -19 20 -48t-20 -48q-20 -20 -48 -20q-26 0 -48 20q-20 20 -20 48t20 48q22 20 48 20zM128 747q28 0 48 -20t20 -48t-20 -48t-48 -20t-48 20t-20 48t20 48t48 20z" />
    <glyph glyph-name="copyright" unicode="&#xa9;" horiz-adv-x="816" 
d="M408 718q75 0 139.5 -28t113.5 -77t77 -113.5t28 -139.5t-28 -139.5t-77 -113.5t-113.5 -77t-139.5 -28t-139.5 28t-113.5 77t-77 113.5t-28 139.5t28 139.5t77 113.5t113.5 77t139.5 28zM609 561q-39 38 -90.5 60.5t-110.5 22.5t-110.5 -22.5t-90.5 -60.5
q-38 -39 -60.5 -90.5t-22.5 -110.5t22.5 -110.5t60.5 -90.5q39 -38 90.5 -60.5t110.5 -22.5t110.5 22.5t90.5 60.5q38 39 60.5 90.5t22.5 110.5t-22.5 110.5t-60.5 90.5zM408 579q-45 0 -85 -17t-70 -47t-47 -70t-17 -85q0 -49 18 -88.5t48 -68t69 -45t80.5 -17.5t83 14.5
t75.5 49.5q7 8 13.5 15t11.5 15l-67 35l-11 -12q-34 -34 -77 -40.5t-80.5 9.5t-63 50.5t-25.5 82.5q0 33 12.5 60t33.5 46t47.5 29t55.5 9q32 -1 60 -15t48 -39q23 10 29 25.5t1.5 30.5t-17 28.5t-26.5 20.5q-23 11 -47.5 17.5t-52.5 6.5z" />
    <glyph glyph-name="ordfeminine" unicode="&#xaa;" horiz-adv-x="424" 
d="M296 421q-35 -34 -77.5 -40t-80 11t-63 56t-25.5 96q0 36 13 66.5t34 52.5t48.5 33.5t57.5 10.5q29 -1 46.5 -12.5t25.5 -27t8.5 -31.5t-4.5 -26q-11 15 -29.5 20t-35.5 5q-28 0 -47 -13.5t-28.5 -34t-9.5 -44.5t9 -44.5t28 -34t47 -13.5q24 0 40 11t25.5 28t13.5 38.5
t4 42.5v128h78v-312h-78v34z" />
    <glyph glyph-name="guillemotleft" unicode="&#xab;" horiz-adv-x="516" 
d="M347 512h118l-86 -255l87 -251h-119l-86 251zM116 451q11 31 48 49t89 10l-85 -255h1l-1 -1l85 -255q-52 -8 -89 10t-48 50l-66 196z" />
    <glyph glyph-name="uni00AD" unicode="&#xad;" horiz-adv-x="627" 
d="M486 339q47 0 64.5 -31t15.5 -87h-425q-47 0 -64.5 31t-15.5 87h425z" />
    <glyph glyph-name="registered" unicode="&#xae;" horiz-adv-x="698" 
d="M608 564q40 -68 40 -149t-40 -149q-40 -69 -109 -109q-70 -40 -150 -40t-150 40q-71 42 -109 109q-40 68 -40 149t40 149q38 68 109 110q71 40 150 40q78 0 150 -40q69 -41 109 -110zM555 298q31 53 31 116q0 100 -69 169t-167 69q-99 0 -169 -69q-70 -70 -70 -167
q0 -62 32 -117q31 -54 87 -86t119 -32q62 0 119 31q55 31 87 86zM485 270q3 -9 14 -19h-82q-5 12 -7 22q-1 5 -1.5 12.5t-0.5 18.5q-2 46 -5 53q-3 10 -12 16q-10 5 -36 5h-58v-127h-72v328h145q44 0 68 -11q22 -9 34 -32q14 -22 14 -52q0 -25 -8 -43q-9 -17 -31 -33
q20 -12 25 -23q7 -13 8 -45q2 -30 3 -47.5t2 -22.5zM404 447q11 9 11 30q0 22 -11 30t-46 8h-61v-77h60q35 0 47 9z" />
    <glyph glyph-name="degree" unicode="&#xb0;" horiz-adv-x="422" 
d="M372 548q0 -67 -47 -114t-114 -47t-114 47t-47 115q0 65 48 112q49 47 114 47q66 0 113 -47t47 -113zM317 547q0 44 -31 77q-30 31 -73 31q-45 0 -76 -31t-31 -76t31 -76q31 -32 75 -32q43 0 74 31q31 33 31 76z" />
    <glyph glyph-name="plusminus" unicode="&#xb1;" horiz-adv-x="589" 
d="M237 572q0 45 30.5 62.5t85.5 15.5v-176h97q46 0 63.5 -30.5t14.5 -85.5h-175v-97q0 -46 -30.5 -63.5t-85.5 -14.5v175h-98q-45 0 -62.5 30.5t-15.5 85.5h176v98zM450 121q46 0 63.5 -30.5t14.5 -84.5h-389q-45 0 -62.5 30t-15.5 85h389z" />
    <glyph glyph-name="twosuperior" unicode="&#xb2;" horiz-adv-x="395" 
d="M130 567q-23 -5 -39.5 3.5t-25 23.5t-8.5 35t11 38q14 24 39 37t53.5 16.5t56.5 -1t48 -15.5q29 -15 46.5 -44.5t17.5 -60.5q0 -33 -13.5 -63.5t-34.5 -59t-46.5 -55t-49.5 -51.5h147v-72h-286q0 24 17 48.5t54 61.5q18 18 36.5 37t35 37t28.5 33t18 26q15 28 13.5 49.5
t-12.5 35t-29 19t-36 2.5q-11 -2 -21.5 -10t-18 -19t-9 -24.5t7.5 -26.5z" />
    <glyph glyph-name="threesuperior" unicode="&#xb3;" horiz-adv-x="360" 
d="M102 585q-29 4 -42.5 23.5t-9.5 42t27 42.5t69 26q25 3 51.5 -1.5t49 -16.5t37.5 -32t17 -49q2 -26 -12 -50t-46 -39q30 -10 48.5 -31.5t24.5 -48.5t0 -55.5t-23.5 -52t-46.5 -38.5t-69 -15q-61 0 -98 36t-40 98h77q6 -35 26.5 -50t43 -13t40.5 18t19 43q0 25 -16.5 41
t-38 22.5t-42 2.5t-27.5 -20q-14 12 -19 25t-1 25t15.5 21t31.5 12q12 1 25.5 5t24 10.5t17.5 16t7 23.5q0 17 -16.5 29.5t-48.5 12.5q-15 0 -27.5 -5.5t-20 -14t-10 -20t2.5 -23.5z" />
    <glyph glyph-name="acute" unicode="&#xb4;" horiz-adv-x="339" 
d="M186 580q-17 -18 -42.5 -19t-49.5 13l42 70q16 28 31.5 44.5t33 21.5t39 -2t49.5 -27z" />
    <glyph glyph-name="mu" unicode="&#xb5;" horiz-adv-x="577" 
d="M386 -4v60q-8 -18 -24 -31t-36 -22t-41.5 -14t-39.5 -6q-15 -1 -30.5 0t-30.5 5v-182h-128v619q0 21 8 38.5t24.5 30.5t40 19t55.5 4v-203q1 -49 2.5 -90t6.5 -58q8 -32 30.5 -48t48.5 -16q35 0 54 18.5t19 48.5q12 -3 24 -15.5t17 -26.5v390h131v-521h-131z" />
    <glyph glyph-name="paragraph" unicode="&#xb6;" horiz-adv-x="564" 
d="M253 -187v521q-66 0 -110.5 29t-65.5 71.5t-19 92.5t28.5 92.5t78 71t128.5 28.5h221q-2 -23 -14.5 -39.5t-32.5 -16.5h-12v-803q0 -26 -20.5 -36.5t-46.5 -10.5v850h-68v-803q0 -26 -20.5 -37.5t-46.5 -9.5z" />
    <glyph glyph-name="cedilla" unicode="&#xb8;" horiz-adv-x="559" 
d="M333 -6l5 -1q31 -12 43.5 -36.5t6.5 -50t-30.5 -46.5t-67.5 -25q-34 -3 -57 5t-36 22t-15 31t6 32q36 -26 65.5 -23.5t43 16t6 29.5t-43.5 17l-26 -1l7 37q9 -2 20.5 1t20 8.5t11 13t-6.5 13.5h50q13 -8 11 -21.5t-13 -20.5z" />
    <glyph glyph-name="onesuperior" unicode="&#xb9;" horiz-adv-x="240" 
d="M117 700h70v-399h-75v328h-75q-5 31 15.5 51t64.5 20z" />
    <glyph glyph-name="guillemotright" unicode="&#xbb;" horiz-adv-x="516" 
d="M255 257l-86 -251h-119l86 251l-86 255h119zM466 255l-66 -196q-11 -32 -48 -50t-90 -10l85 255v1l-85 255q53 8 90 -10t48 -49z" />
    <glyph glyph-name="onequarter" unicode="&#xbc;" horiz-adv-x="776" 
d="M459 673q11 30 37 38t58 5l-258 -694q-11 -28 -37 -34.5t-57 -2.5zM716 121v-63h-32v-75h-68v75h-159v63l158 235q32 6 50.5 -9.5t18.5 -51.5v-174h32zM61 652q-4 28 15 46.5t58 18.5h64v-364h-69v299h-68zM616 243l-83 -122h83v122z" />
    <glyph glyph-name="onehalf" unicode="&#xbd;" horiz-adv-x="806" 
d="M458 673q11 30 37.5 38t58.5 5l-259 -694q-11 -28 -37 -34.5t-56 -2.5zM746 47v-64h-252q0 22 15.5 43.5t47.5 53.5q15 15 31.5 32t30.5 32.5t25.5 29.5t16.5 23q13 25 11.5 44t-11.5 31t-25.5 17t-31.5 2q-9 -2 -19 -9t-16 -16.5t-7.5 -21t6.5 -23.5q-20 -4 -34.5 3
t-22 20.5t-7 30.5t9.5 33q12 21 34 33t47 15.5t49.5 -0.5t42.5 -14q26 -14 41 -40t15 -54q0 -29 -12 -55.5t-30.5 -51.5t-41 -48.5t-43.5 -45.5h130zM61 652q-5 28 14 46.5t58 18.5h64v-364h-69v299h-67z" />
    <glyph glyph-name="threequarters" unicode="&#xbe;" horiz-adv-x="787" 
d="M487 673q11 30 37.5 38t58.5 5l-259 -694q-10 -28 -36.5 -34.5t-56.5 -2.5zM727 127v-63h-32v-75h-68v75h-159v63l158 235q32 5 50.5 -10t18.5 -52v-173h32zM241 553q27 -8 43 -27t21.5 -43t0 -49t-21 -46t-41.5 -34.5t-61 -13.5q-54 0 -86.5 32t-35.5 87h68
q5 -32 23 -45t38 -11.5t36 16t17 38.5q0 22 -14.5 36t-33.5 20t-37.5 2.5t-24.5 -17.5q-12 10 -16 22t-1 22.5t13.5 18.5t27.5 10q11 1 23 4.5t21.5 9t15.5 14.5t6 21q0 15 -14.5 26t-42.5 11t-43 -17t-6 -39q-26 4 -38 21t-9 37.5t23.5 38t61.5 22.5q22 3 46 -1t43.5 -14.5
t33 -28.5t15.5 -43q2 -23 -10.5 -44.5t-40.5 -35.5zM627 249l-83 -122h83v122z" />
    <glyph glyph-name="questiondown" unicode="&#xbf;" horiz-adv-x="550" 
d="M380 63q38 7 63.5 -6.5t38 -39t10.5 -58t-20 -62.5q-23 -40 -63 -61t-85 -27t-90.5 1.5t-79.5 24.5q-24 12 -45 29t-35 40.5t-20 52.5t0 64q7 37 22.5 64.5t34.5 50t39.5 42t36.5 41.5t25 48t6 62q35 1 58.5 -6.5t38 -19.5t20.5 -28t6 -31q0 -28 -8 -48t-22 -37.5
t-32.5 -35t-39.5 -40.5q-31 -34 -40.5 -60t-4.5 -45.5t21.5 -31.5t38.5 -17q33 -8 63.5 1.5t50 29.5t25 47.5t-12.5 55.5zM281 537q34 0 57 -24q16 -16 21 -41t3.5 -51.5t-7 -51t-9.5 -40.5q-7 17 -22 24.5t-33 13t-36 11.5t-31 19q-19 19 -22.5 43t5 45.5t28 36.5t46.5 15z
" />
    <glyph glyph-name="Agrave" unicode="&#xc0;" horiz-adv-x="721" 
d="M260 607q20 53 59.5 77t108.5 12l268 -696h-138l-54 143q-30 0 -65 0.5t-63.5 -4.5t-44.5 -17.5t-8 -39.5q-36 10 -54.5 30.5t-22.5 43.5t5 45.5t27 37.5q17 15 38.5 21.5t45 9t47.5 2t46 -0.5l-94 240l-198 -511h-138zM272 864q28 20 49.5 27t39 2t32.5 -21.5t32 -44.5
l36 -60q-24 -14 -49.5 -13t-42.5 19z" />
    <glyph glyph-name="Aacute" unicode="&#xc1;" horiz-adv-x="721" 
d="M260 607q20 53 59.5 77t108.5 12l268 -696h-138l-54 143q-30 0 -65 0.5t-63.5 -4.5t-44.5 -17.5t-8 -39.5q-36 10 -54.5 30.5t-22.5 43.5t5 45.5t27 37.5q17 15 38.5 21.5t45 9t47.5 2t46 -0.5l-94 240l-198 -511h-138zM388 762q-17 -18 -42.5 -19t-49.5 13l42 70
q16 28 31.5 44.5t33 21.5t39 -2t49.5 -27z" />
    <glyph glyph-name="Acircumflex" unicode="&#xc2;" horiz-adv-x="721" 
d="M260 607q20 53 59.5 77t108.5 12l268 -696h-138l-54 143q-30 0 -65 0.5t-63.5 -4.5t-44.5 -17.5t-8 -39.5q-36 10 -54.5 30.5t-22.5 43.5t5 45.5t27 37.5q17 15 38.5 21.5t45 9t47.5 2t46 -0.5l-94 240l-198 -511h-138zM189 761l97 91q20 19 42.5 31t54.5 11h50l141 -133
h-133l-58 61l-60 -61h-134z" />
    <glyph glyph-name="Atilde" unicode="&#xc3;" horiz-adv-x="721" 
d="M260 607q20 53 59.5 77t108.5 12l268 -696h-138l-54 143q-30 0 -65 0.5t-63.5 -4.5t-44.5 -17.5t-8 -39.5q-36 10 -54.5 30.5t-22.5 43.5t5 45.5t27 37.5q17 15 38.5 21.5t45 9t47.5 2t46 -0.5l-94 240l-198 -511h-138zM210 777q-11 9 -17.5 21t-7 25.5t6 27t22.5 25.5
q19 13 40.5 16.5t43.5 0.5t43 -11t41 -18q14 -7 33 -12.5t37 -5.5t33.5 7.5t22.5 27.5q9 -5 16 -15t9 -23.5t-3.5 -28.5t-21.5 -28q-25 -22 -56.5 -21t-64 11.5t-61.5 22.5t-48 12q-20 1 -38.5 -5.5t-29.5 -28.5z" />
    <glyph glyph-name="Adieresis" unicode="&#xc4;" horiz-adv-x="721" 
d="M260 607q20 53 59.5 77t108.5 12l268 -696h-138l-54 143q-30 0 -65 0.5t-63.5 -4.5t-44.5 -17.5t-8 -39.5q-36 10 -54.5 30.5t-22.5 43.5t5 45.5t27 37.5q17 15 38.5 21.5t45 9t47.5 2t46 -0.5l-94 240l-198 -511h-138zM486 929q28 0 48 -20q20 -19 20 -48t-20 -48
q-20 -20 -48 -20q-26 0 -48 20q-20 20 -20 48t20 48q22 20 48 20zM277 929q28 0 48 -20t20 -48t-20 -48t-48 -20t-48 20t-20 48t20 48t48 20z" />
    <glyph glyph-name="Aring" unicode="&#xc5;" horiz-adv-x="724" 
d="M261 610q20 54 60 77.5t109 11.5l269 -699h-139l-54 144q-30 0 -65 0.5t-63.5 -4.5t-45 -17.5t-8.5 -39.5q-37 10 -55.5 30t-22 43.5t5.5 46.5t27 38q17 14 38.5 21t45 9.5t48 2t46.5 -0.5l-94 241l-200 -514h-138zM365 966q22 0 42 -8.5t35 -23.5t23.5 -35t8.5 -42
q0 -23 -8.5 -42.5t-23.5 -34t-35 -23t-42 -8.5q-23 0 -42.5 8.5t-34 23t-23 34t-8.5 42.5q0 22 8.5 42t23 35t34 23.5t42.5 8.5zM365 900q-17 0 -30 -12.5t-13 -30.5t13 -30.5t30 -12.5q18 0 30.5 12.5t12.5 30.5t-12.5 30.5t-30.5 12.5z" />
    <glyph glyph-name="AE" unicode="&#xc6;" horiz-adv-x="903" 
d="M320 610q25 52 67.5 71t109.5 18h356v-130h-270v-155h270q-1 -23 -7 -46t-19 -41t-33.5 -29.5t-50.5 -11.5h-160v-155h270v-131h-403v145q-24 0 -47 -2.5t-40.5 -9.5t-26 -19t-4.5 -31q-36 10 -52.5 30t-18 43.5t9.5 46.5t31 38q30 23 70 28t78 4v306v8l-287 -587h-138z
" />
    <glyph glyph-name="Ccedilla" unicode="&#xc7;" horiz-adv-x="727" 
d="M622 463q-14 38 -43 64t-66 40t-78 17t-80 -6q-41 -9 -76 -30t-60 -51t-39 -67t-14 -77q0 -77 32.5 -129.5t82 -80.5t108 -30.5t111.5 21.5q47 23 102 79l87 -95q-34 -34 -66 -59t-66.5 -41.5t-72 -25t-82.5 -8.5l8 -2q31 -12 44 -36.5t7 -51t-31 -48t-69 -25.5
q-35 -3 -58.5 5t-36 22.5t-14.5 32t6 32.5q24 -18 46 -22t38 0t25.5 14t9 20.5t-11.5 18.5t-35 9l-27 -1l8 41q-65 13 -114 45.5t-83 77.5t-53 98.5t-23 109.5t7.5 111.5t38.5 102.5q28 50 64 84t78 54.5t89.5 29.5t97.5 10q35 0 74 -6.5t74 -20.5t62 -35t39 -49.5t3.5 -64
t-43.5 -77.5z" />
    <glyph glyph-name="Egrave" unicode="&#xc8;" horiz-adv-x="503" 
d="M453 700v-131h-270v-155h270q-1 -23 -7 -46t-19 -41t-33.5 -29.5t-50.5 -11.5h-160v-155h270v-131h-403v579q0 58 32.5 89.5t82.5 31.5h288zM138 933q28 20 49.5 27t39 2t32.5 -21.5t32 -44.5l66 -112q-24 -14 -49.5 -13t-42.5 19z" />
    <glyph glyph-name="Eacute" unicode="&#xc9;" horiz-adv-x="503" 
d="M453 700v-131h-270v-155h270q-1 -23 -7 -46t-19 -41t-33.5 -29.5t-50.5 -11.5h-160v-155h270v-131h-403v579q0 58 32.5 89.5t82.5 31.5h288zM323 790q-17 -18 -42.5 -19t-49.5 13l66 112q16 28 31.5 44.5t33 21.5t39 -2t49.5 -27z" />
    <glyph glyph-name="Ecircumflex" unicode="&#xca;" horiz-adv-x="506" 
d="M453 700v-131h-270v-155h270q-1 -23 -7 -46t-19 -41t-33.5 -29.5t-50.5 -11.5h-160v-155h270v-131h-403v579q0 58 32.5 89.5t82.5 31.5h288zM71 790l97 91q20 19 42.5 31t54.5 11h50l141 -133h-133l-58 61l-60 -61h-134z" />
    <glyph glyph-name="Edieresis" unicode="&#xcb;" horiz-adv-x="503" 
d="M453 700v-131h-270v-155h270q-1 -23 -7 -46t-19 -41t-33.5 -29.5t-50.5 -11.5h-160v-155h270v-131h-403v579q0 58 32.5 89.5t82.5 31.5h288zM361 929q28 0 48 -20q20 -19 20 -48t-20 -48q-20 -20 -48 -20q-26 0 -48 20q-20 20 -20 48t20 48q22 20 48 20zM152 929
q28 0 48 -20t20 -48t-20 -48t-48 -20t-48 20t-20 48t20 48t48 20z" />
    <glyph glyph-name="Igrave" unicode="&#xcc;" horiz-adv-x="319" 
d="M225 0h-132v595q0 50 36 78t96 27v-700zM50 864q28 20 49.5 27t39 2t32.5 -21.5t32 -44.5l36 -60q-24 -14 -49.5 -13t-42.5 19z" />
    <glyph glyph-name="Iacute" unicode="&#xcd;" horiz-adv-x="319" 
d="M225 0h-132v595q0 50 36 78t96 27v-700zM166 762q-17 -18 -42.5 -19t-49.5 13l42 70q16 28 31.5 44.5t33 21.5t39 -2t49.5 -27z" />
    <glyph glyph-name="Icircumflex" unicode="&#xce;" horiz-adv-x="232" 
d="M182 0h-132v595q0 50 36 78t96 27v-700zM-76 761l97 91q20 19 42.5 31t54.5 11h50l141 -133h-133l-58 61l-60 -61h-134z" />
    <glyph glyph-name="Idieresis" unicode="&#xcf;" horiz-adv-x="232" 
d="M182 0h-132v595q0 50 36 78t96 27v-700zM221 929q28 0 48 -20q20 -19 20 -48t-20 -48q-20 -20 -48 -20q-26 0 -48 20q-20 20 -20 48t20 48q22 20 48 20zM12 929q28 0 48 -20t20 -48t-20 -48t-48 -20t-48 20t-20 48t20 48t48 20z" />
    <glyph glyph-name="Eth" unicode="&#xd0;" horiz-adv-x="676" 
d="M334 700q45 0 80.5 -12t64.5 -27q59 -30 97 -83.5t55 -118.5t13.5 -134.5t-28 -131t-69.5 -109t-110 -67.5q-26 -8 -70.5 -11.5t-94.5 -5t-99.5 -1t-86.5 0.5v312h-12q-33 0 -48.5 24t-15.5 53h76v192q0 52 25.5 85.5t91.5 33.5h131zM219 389h75q33 0 51 -20t21 -57h-147
v-182h83t71.5 7.5t59.5 26.5t47 57q16 31 24 71t5.5 81t-16 78.5t-40.5 64.5q-23 23 -55 37t-67 14h-112v-178z" />
    <glyph glyph-name="Ntilde" unicode="&#xd1;" horiz-adv-x="660" 
d="M50 594q0 21 6.5 40t19.5 34t32.5 23.5t45.5 8.5h22l302 -461v461h132v-700h-127l-301 459v-459h-132v594zM159 777q-11 9 -17.5 21t-7 25.5t6 27t22.5 25.5q19 13 40.5 16.5t43.5 0.5t43 -11t41 -18q14 -7 33 -12.5t37 -5.5t33.5 7.5t22.5 27.5q9 -5 16 -15t9 -23.5
t-3.5 -28.5t-21.5 -28q-25 -22 -56.5 -21t-64 11.5t-61.5 22.5t-48 12q-20 1 -38.5 -5.5t-29.5 -28.5z" />
    <glyph glyph-name="Ograve" unicode="&#xd2;" horiz-adv-x="771" 
d="M387 713q148 0 253 -107q106 -106 106 -260q0 -153 -104 -257q-105 -105 -254 -105q-157 0 -260 108q-103 107 -103 257q0 15 1.5 32.5t4.5 36.5t8 36.5t13 32.5q16 32 45 52t61.5 27t65 1.5t56.5 -22.5t35 -46.5t0 -69.5q-19 23 -46.5 29t-52.5 -6t-42 -42t-15 -79
q4 -104 82 -167q64 -53 147 -53q93 0 159 68q66 69 66 168t-66 168q-68 68 -162 68q-44 0 -80 -13q-18 16 -42.5 25t-52 10t-55 -6t-51.5 -22q42 52 101 87q85 49 182 49zM289 864q28 20 49.5 27t39 2t32.5 -21.5t32 -44.5l36 -60q-24 -14 -49.5 -13t-42.5 19z" />
    <glyph glyph-name="Oacute" unicode="&#xd3;" horiz-adv-x="771" 
d="M387 713q148 0 253 -107q106 -106 106 -260q0 -153 -104 -257q-105 -105 -254 -105q-157 0 -260 108q-103 107 -103 257q0 15 1.5 32.5t4.5 36.5t8 36.5t13 32.5q16 32 45 52t61.5 27t65 1.5t56.5 -22.5t35 -46.5t0 -69.5q-19 23 -46.5 29t-52.5 -6t-42 -42t-15 -79
q4 -104 82 -167q64 -53 147 -53q93 0 159 68q66 69 66 168t-66 168q-68 68 -162 68q-44 0 -80 -13q-18 16 -42.5 25t-52 10t-55 -6t-51.5 -22q42 52 101 87q85 49 182 49zM393 762q-17 -18 -42.5 -19t-49.5 13l42 70q16 28 31.5 44.5t33 21.5t39 -2t49.5 -27z" />
    <glyph glyph-name="Ocircumflex" unicode="&#xd4;" horiz-adv-x="771" 
d="M387 713q148 0 253 -107q106 -106 106 -260q0 -153 -104 -257q-105 -105 -254 -105q-157 0 -260 108q-103 107 -103 257q0 15 1.5 32.5t4.5 36.5t8 36.5t13 32.5q16 32 45 52t61.5 27t65 1.5t56.5 -22.5t35 -46.5t0 -69.5q-19 23 -46.5 29t-52.5 -6t-42 -42t-15 -79
q4 -104 82 -167q64 -53 147 -53q93 0 159 68q66 69 66 168t-66 168q-68 68 -162 68q-44 0 -80 -13q-18 16 -42.5 25t-52 10t-55 -6t-51.5 -22q42 52 101 87q85 49 182 49zM194 761l97 91q20 19 42.5 31t54.5 11h50l141 -133h-133l-58 61l-60 -61h-134z" />
    <glyph glyph-name="Otilde" unicode="&#xd5;" horiz-adv-x="771" 
d="M387 713q148 0 253 -107q106 -106 106 -260q0 -153 -104 -257q-105 -105 -254 -105q-157 0 -260 108q-103 107 -103 257q0 15 1.5 32.5t4.5 36.5t8 36.5t13 32.5q16 32 45 52t61.5 27t65 1.5t56.5 -22.5t35 -46.5t0 -69.5q-19 23 -46.5 29t-52.5 -6t-42 -42t-15 -79
q4 -104 82 -167q64 -53 147 -53q93 0 159 68q66 69 66 168t-66 168q-68 68 -162 68q-44 0 -80 -13q-18 16 -42.5 25t-52 10t-55 -6t-51.5 -22q42 52 101 87q85 49 182 49zM216 777q-11 9 -17.5 21t-7 25.5t6 27t22.5 25.5q19 13 40.5 16.5t43.5 0.5t43 -11t41 -18
q14 -7 33 -12.5t37 -5.5t33.5 7.5t22.5 27.5q9 -5 16 -15t9 -23.5t-3.5 -28.5t-21.5 -28q-25 -22 -56.5 -21t-64 11.5t-61.5 22.5t-48 12q-20 1 -38.5 -5.5t-29.5 -28.5z" />
    <glyph glyph-name="Odieresis" unicode="&#xd6;" horiz-adv-x="771" 
d="M387 713q148 0 253 -107q106 -106 106 -260q0 -153 -104 -257q-105 -105 -254 -105q-157 0 -260 108q-103 107 -103 257q0 15 1.5 32.5t4.5 36.5t8 36.5t13 32.5q16 32 45 52t61.5 27t65 1.5t56.5 -22.5t35 -46.5t0 -69.5q-19 23 -46.5 29t-52.5 -6t-42 -42t-15 -79
q4 -104 82 -167q64 -53 147 -53q93 0 159 68q66 69 66 168t-66 168q-68 68 -162 68q-44 0 -80 -13q-18 16 -42.5 25t-52 10t-55 -6t-51.5 -22q42 52 101 87q85 49 182 49zM491 929q28 0 48 -20q20 -19 20 -48t-20 -48q-20 -20 -48 -20q-26 0 -48 20q-20 20 -20 48t20 48
q22 20 48 20zM282 929q28 0 48 -20t20 -48t-20 -48t-48 -20t-48 20t-20 48t20 48t48 20z" />
    <glyph glyph-name="multiply" unicode="&#xd7;" horiz-adv-x="543" 
d="M346 502q35 35 71 25t76 -53l-134 -134l74 -74q35 -35 25.5 -71.5t-53.5 -75.5l-134 133l-74 -74q-35 -35 -71 -25t-76 53l133 134l-74 74q-35 35 -25 71.5t54 75.5l133 -133z" />
    <glyph glyph-name="Oslash" unicode="&#xd8;" horiz-adv-x="848" 
d="M441 711q111 0 199 -61l19 22q28 34 56 43t66 -11l-86 -102q103 -104 103 -256q0 -150 -104 -256q-104 -104 -252 -104q-122 0 -211 65l-68 -81q-32 -37 -60.5 -37.5t-52.5 16.5l127 151q-97 104 -97 249q0 29 6.5 68.5t20.5 68.5q16 32 44.5 52t61 27t65 1.5t56 -22.5
t34.5 -46t1 -69q-19 22 -46.5 28t-52.5 -5.5t-42 -41.5t-15 -79q5 -78 48 -132l295 351q-53 32 -117 32q-45 0 -80 -13q-18 16 -42.5 25t-51.5 10t-54.5 -6t-51.5 -22q43 54 101 87q84 48 181 48zM314 150q56 -37 127 -37q93 0 159 67q65 68 65 167q0 89 -54 155z" />
    <glyph glyph-name="Ugrave" unicode="&#xd9;" horiz-adv-x="598" 
d="M50 700h133v-436q0 -33 5.5 -60.5t18.5 -47t34.5 -30.5t53.5 -11q65 0 93 40t28 112v312q0 27 6 50t21 39t40.5 24.5t64.5 7.5v-414q0 -65 -11 -120t-39.5 -94.5t-77.5 -61.5t-124 -22t-123 22t-75.5 61.5t-37.5 94t-10 120.5v414zM186 864q28 20 49.5 27t39 2
t32.5 -21.5t32 -44.5l36 -60q-24 -14 -49.5 -13t-42.5 19z" />
    <glyph glyph-name="Uacute" unicode="&#xda;" horiz-adv-x="598" 
d="M50 700h133v-436q0 -33 5.5 -60.5t18.5 -47t34.5 -30.5t53.5 -11q65 0 93 40t28 112v312q0 27 6 50t21 39t40.5 24.5t64.5 7.5v-414q0 -65 -11 -120t-39.5 -94.5t-77.5 -61.5t-124 -22t-123 22t-75.5 61.5t-37.5 94t-10 120.5v414zM306 762q-17 -18 -42.5 -19t-49.5 13
l42 70q16 28 31.5 44.5t33 21.5t39 -2t49.5 -27z" />
    <glyph glyph-name="Ucircumflex" unicode="&#xdb;" horiz-adv-x="598" 
d="M50 700h133v-436q0 -33 5.5 -60.5t18.5 -47t34.5 -30.5t53.5 -11q65 0 93 40t28 112v312q0 27 6 50t21 39t40.5 24.5t64.5 7.5v-414q0 -65 -11 -120t-39.5 -94.5t-77.5 -61.5t-124 -22t-123 22t-75.5 61.5t-37.5 94t-10 120.5v414zM107 761l97 91q20 19 42.5 31t54.5 11
h50l141 -133h-133l-58 61l-60 -61h-134z" />
    <glyph glyph-name="Udieresis" unicode="&#xdc;" horiz-adv-x="598" 
d="M50 700h133v-436q0 -33 5.5 -60.5t18.5 -47t34.5 -30.5t53.5 -11q65 0 93 40t28 112v312q0 27 6 50t21 39t40.5 24.5t64.5 7.5v-414q0 -65 -11 -120t-39.5 -94.5t-77.5 -61.5t-124 -22t-123 22t-75.5 61.5t-37.5 94t-10 120.5v414zM404 929q28 0 48 -20q20 -19 20 -48
t-20 -48q-20 -20 -48 -20q-26 0 -48 20q-20 20 -20 48t20 48q22 20 48 20zM195 929q28 0 48 -20t20 -48t-20 -48t-48 -20t-48 20t-20 48t20 48t48 20z" />
    <glyph glyph-name="Yacute" unicode="&#xdd;" horiz-adv-x="560" 
d="M248 -9q-49 0 -90 12.5t-68 38t-36.5 64t5.5 89.5q12 -22 31.5 -38.5t43.5 -27t50 -15.5t51 -4q71 2 109 36.5t38 106.5q-7 -18 -24 -32t-38 -23.5t-43 -14.5t-40 -6q-38 -2 -74.5 10t-66.5 43q-44 44 -44 133v337h126q0 -17 -0.5 -45.5t-0.5 -62.5v-70.5t1 -69t3 -58
t5 -37.5q8 -31 29.5 -47.5t47.5 -15.5q17 0 32 5.5t26.5 15t18 22t6.5 27.5q14 -4 22.5 -13t13.5 -22v371h128v-453q0 -117 -66.5 -186.5t-195.5 -69.5zM283 762q-17 -18 -42.5 -19t-49.5 13l42 70q16 28 31.5 44.5t33 21.5t39 -2t49.5 -27z" />
    <glyph glyph-name="Thorn" unicode="&#xde;" horiz-adv-x="511" 
d="M50 592q0 48 33.5 75t97.5 27v-146q43 0 80.5 -2.5t69 -11.5t56.5 -26.5t44 -47.5q15 -24 22.5 -55t7 -62.5t-10 -62t-27.5 -53.5q-22 -27 -47.5 -42.5t-55.5 -23.5t-64.5 -10t-74.5 -2v-146h-131v589zM181 277q24 0 51 -0.5t49.5 5t37.5 20.5t15 46q0 30 -14.5 45
t-37 21t-49.5 6h-52v-143z" />
    <glyph glyph-name="germandbls" unicode="&#xdf;" horiz-adv-x="553" 
d="M263 319q-23 2 -41 -3t-30 -22q-23 60 3.5 93.5t98.5 53.5q35 10 49.5 34.5t11 49.5t-22.5 44.5t-52 19.5q-32 0 -57.5 -19.5t-36.5 -50.5q-11 -33 -11 -108v-411h-125v411q0 43 4 81.5t16 71.5t33 60t55 48q47 29 103.5 33.5t105.5 -14t82 -58.5t33 -99q0 -66 -39 -104
t-104 -49q63 -11 102.5 -44.5t57 -77t12.5 -91.5t-29.5 -88t-68.5 -66t-105 -26q-41 0 -77 16v117q41 -21 72.5 -15.5t51.5 27t26 52.5t-4 60t-38 50.5t-76 23.5z" />
    <glyph glyph-name="agrave" unicode="&#xe0;" 
d="M436 57q-38 -37 -82.5 -54t-89.5 -15.5t-87.5 20.5t-75 54.5t-52 85t-19.5 112.5q0 60 21 111t56.5 87t81 55.5t94.5 17.5q48 -2 77 -21.5t42.5 -45.5t14 -52.5t-8.5 -42.5q-17 25 -48 33.5t-60 8.5q-46 0 -77 -22.5t-47 -56.5t-16.5 -73.5t15 -73.5t47 -56.5t78.5 -22.5
q40 0 66 18t41.5 46.5t22 64t6.5 70.5v213h130v-518h-130v57zM188 682q28 20 49.5 27t39 2t32.5 -21.5t32 -44.5l36 -60q-24 -14 -49.5 -13t-42.5 19z" />
    <glyph glyph-name="aacute" unicode="&#xe1;" 
d="M436 0h130v518h-130v-213q0 -35 -6.5 -70.5t-22 -64t-41.5 -46.5t-66 -18q-47 0 -78.5 22.5t-47 56.5t-15 73.5t16.5 73.5t47 56.5t77 22.5q29 0 60 -8.5t48 -33.5q9 16 8.5 42.5t-14 52.5t-42.5 45.5t-77 21.5q-49 2 -94.5 -17.5t-81 -55.5t-56.5 -87t-21 -111
q0 -63 19.5 -112.5t52 -85t75 -54.5t87.5 -20.5t89.5 15.5t82.5 54v-57zM304 580q-17 -18 -42.5 -19t-49.5 13l42 70q16 28 31.5 44.5t33 21.5t39 -2t49.5 -27z" />
    <glyph glyph-name="acircumflex" unicode="&#xe2;" 
d="M436 0h130v518h-130v-213q0 -35 -6.5 -70.5t-22 -64t-41.5 -46.5t-66 -18q-47 0 -78.5 22.5t-47 56.5t-15 73.5t16.5 73.5t47 56.5t77 22.5q29 0 60 -8.5t48 -33.5q9 16 8.5 42.5t-14 52.5t-42.5 45.5t-77 21.5q-49 2 -94.5 -17.5t-81 -55.5t-56.5 -87t-21 -111
q0 -63 19.5 -112.5t52 -85t75 -54.5t87.5 -20.5t89.5 15.5t82.5 54v-57zM105 579l97 91q20 19 42.5 31t54.5 11h50l141 -133h-133l-58 61l-60 -61h-134z" />
    <glyph glyph-name="atilde" unicode="&#xe3;" 
d="M436 0h130v518h-130v-213q0 -35 -6.5 -70.5t-22 -64t-41.5 -46.5t-66 -18q-47 0 -78.5 22.5t-47 56.5t-15 73.5t16.5 73.5t47 56.5t77 22.5q29 0 60 -8.5t48 -33.5q9 16 8.5 42.5t-14 52.5t-42.5 45.5t-77 21.5q-49 2 -94.5 -17.5t-81 -55.5t-56.5 -87t-21 -111
q0 -63 19.5 -112.5t52 -85t75 -54.5t87.5 -20.5t89.5 15.5t82.5 54v-57zM127 595q-11 9 -17.5 21t-7 25.5t6 27t22.5 25.5q19 13 40.5 16.5t43.5 0.5t43 -11t41 -18q14 -7 33 -12.5t37 -5.5t33.5 7.5t22.5 27.5q9 -5 16 -15t9 -23.5t-3.5 -28.5t-21.5 -28q-25 -22 -56.5 -21
t-64 11.5t-61.5 22.5t-48 12q-20 1 -38.5 -5.5t-29.5 -28.5z" />
    <glyph glyph-name="adieresis" unicode="&#xe4;" 
d="M436 0h130v518h-130v-213q0 -35 -6.5 -70.5t-22 -64t-41.5 -46.5t-66 -18q-47 0 -78.5 22.5t-47 56.5t-15 73.5t16.5 73.5t47 56.5t77 22.5q29 0 60 -8.5t48 -33.5q9 16 8.5 42.5t-14 52.5t-42.5 45.5t-77 21.5q-49 2 -94.5 -17.5t-81 -55.5t-56.5 -87t-21 -111
q0 -63 19.5 -112.5t52 -85t75 -54.5t87.5 -20.5t89.5 15.5t82.5 54v-57zM402 747q28 0 48 -20q20 -19 20 -48t-20 -48q-20 -20 -48 -20q-26 0 -48 20q-20 20 -20 48t20 48q22 20 48 20zM193 747q28 0 48 -20t20 -48t-20 -48t-48 -20t-48 20t-20 48t20 48t48 20z" />
    <glyph glyph-name="aring" unicode="&#xe5;" 
d="M436 57q-38 -37 -82.5 -54t-89.5 -15.5t-87.5 20.5t-75 54.5t-52 85t-19.5 112.5q0 60 21 111t56.5 87t81 55.5t94.5 17.5q48 -2 77 -21.5t42.5 -45.5t14 -52.5t-8.5 -42.5q-17 25 -48 33.5t-60 8.5q-46 0 -77 -22.5t-47 -56.5t-16.5 -73.5t15 -73.5t47 -56.5t78.5 -22.5
q40 0 66 18t41.5 46.5t22 64t6.5 70.5v213h130v-518h-130v57z" />
    <glyph glyph-name="ae" unicode="&#xe6;" horiz-adv-x="1002" 
d="M835 193q-54 -14 -98.5 -10t-73 21.5t-38.5 47t5 66.5q31 -26 72 -28.5t79 1.5q32 3 48.5 14t20.5 25.5t-3 30.5t-22.5 29t-38 21t-49.5 7q-29 -2 -55 -14t-46 -32.5t-32 -49t-13 -62.5q-1 -28 6.5 -55t22.5 -49.5t36 -38t48 -19.5q38 -7 78 5.5t71 43.5l106 -51
q-42 -61 -98 -87.5t-128 -26.5q-52 0 -93.5 14.5t-73.5 39.5v-37h-130v57q-38 -38 -82.5 -54.5t-89.5 -15t-87.5 20.5t-75 54.5t-52 85t-19.5 112.5q0 60 21 111t56.5 87t81 55.5t94.5 17.5q48 -2 77 -21.5t42.5 -45.5t14 -52.5t-8.5 -42.5q-17 25 -48.5 33.5t-59.5 8.5
q-46 0 -77 -22.5t-47 -56.5t-16.5 -73.5t15 -73.5t47 -56.5t78.5 -22.5q40 0 66 18t41.5 46.5t22 64t6.5 70.5v213h130v-48q38 30 84 43t94 13q62 0 107 -21t73 -53.5t37 -72t-1.5 -76.5t-41.5 -66.5t-83 -42.5z" />
    <glyph glyph-name="ccedilla" unicode="&#xe7;" horiz-adv-x="559" 
d="M457 325q-8 27 -30 46t-52 28.5t-63.5 8.5t-63.5 -13.5t-53 -37.5t-32 -64q-7 -32 -2 -64.5t23 -58.5t48 -43t72 -17q80 0 125 58l95 -69q-71 -96 -191 -105l5 -1q31 -12 43.5 -36.5t6.5 -50t-30.5 -46.5t-67.5 -25q-34 -3 -57 5t-36 22t-15 31t6 32q36 -26 65.5 -23.5
t43 16t6 29.5t-43.5 17l-26 -1l7 37q-60 13 -102.5 46.5t-67 78.5t-30.5 97t6 102.5t43 94t81 72.5q40 23 86.5 31.5t92.5 1.5q62 -9 96 -36.5t45 -60t1.5 -61.5t-34.5 -41z" />
    <glyph glyph-name="egrave" unicode="&#xe8;" horiz-adv-x="570" 
d="M403 200q-54 -14 -98.5 -10t-73 21.5t-38 47t5.5 66.5q31 -26 72 -28.5t79 1.5q32 3 48.5 14t20.5 25.5t-3 30.5t-22.5 29t-38 21t-49.5 7q-29 -2 -55 -14t-46 -33t-32 -49t-13 -62q-1 -28 6.5 -55t22.5 -49.5t36 -38t48 -19.5q38 -7 78 5t71 44l105 -51
q-41 -61 -97 -87.5t-128 -26.5q-67 0 -117.5 23.5t-84 62.5t-50 88.5t-15.5 101t20 101t55 87.5q40 43 93.5 61t109.5 18q62 0 107 -21t73 -53.5t37 -72t-1.5 -76.5t-41.5 -66.5t-84 -42.5zM168 682q28 20 49.5 27t39 2t32.5 -21.5t32 -44.5l36 -60q-24 -14 -49.5 -13
t-42.5 19z" />
    <glyph glyph-name="eacute" unicode="&#xe9;" horiz-adv-x="570" 
d="M403 200q-54 -14 -98.5 -10t-73 21.5t-38 47t5.5 66.5q31 -26 72 -28.5t79 1.5q32 3 48.5 14t20.5 25.5t-3 30.5t-22.5 29t-38 21t-49.5 7q-29 -2 -55 -14t-46 -33t-32 -49t-13 -62q-1 -28 6.5 -55t22.5 -49.5t36 -38t48 -19.5q38 -7 78 5t71 44l105 -51
q-41 -61 -97 -87.5t-128 -26.5q-67 0 -117.5 23.5t-84 62.5t-50 88.5t-15.5 101t20 101t55 87.5q40 43 93.5 61t109.5 18q62 0 107 -21t73 -53.5t37 -72t-1.5 -76.5t-41.5 -66.5t-84 -42.5zM284 580q-17 -18 -42.5 -19t-49.5 13l42 70q16 28 31.5 44.5t33 21.5t39 -2
t49.5 -27z" />
    <glyph glyph-name="ecircumflex" unicode="&#xea;" horiz-adv-x="570" 
d="M403 200q-54 -14 -98.5 -10t-73 21.5t-38 47t5.5 66.5q31 -26 72 -28.5t79 1.5q32 3 48.5 14t20.5 25.5t-3 30.5t-22.5 29t-38 21t-49.5 7q-29 -2 -55 -14t-46 -33t-32 -49t-13 -62q-1 -28 6.5 -55t22.5 -49.5t36 -38t48 -19.5q38 -7 78 5t71 44l105 -51
q-41 -61 -97 -87.5t-128 -26.5q-67 0 -117.5 23.5t-84 62.5t-50 88.5t-15.5 101t20 101t55 87.5q40 43 93.5 61t109.5 18q62 0 107 -21t73 -53.5t37 -72t-1.5 -76.5t-41.5 -66.5t-84 -42.5zM85 579l97 91q20 19 42.5 31t54.5 11h50l141 -133h-133l-58 61l-60 -61h-134z" />
    <glyph glyph-name="edieresis" unicode="&#xeb;" horiz-adv-x="570" 
d="M403 200q-54 -14 -98.5 -10t-73 21.5t-38 47t5.5 66.5q31 -26 72 -28.5t79 1.5q32 3 48.5 14t20.5 25.5t-3 30.5t-22.5 29t-38 21t-49.5 7q-29 -2 -55 -14t-46 -33t-32 -49t-13 -62q-1 -28 6.5 -55t22.5 -49.5t36 -38t48 -19.5q38 -7 78 5t71 44l105 -51
q-41 -61 -97 -87.5t-128 -26.5q-67 0 -117.5 23.5t-84 62.5t-50 88.5t-15.5 101t20 101t55 87.5q40 43 93.5 61t109.5 18q62 0 107 -21t73 -53.5t37 -72t-1.5 -76.5t-41.5 -66.5t-84 -42.5zM382 747q28 0 48 -20q20 -19 20 -48t-20 -48q-20 -20 -48 -20q-26 0 -48 20
q-20 20 -20 48t20 48q22 20 48 20zM173 747q28 0 48 -20t20 -48t-20 -48t-48 -20t-48 20t-20 48t20 48t48 20z" />
    <glyph glyph-name="igrave" unicode="&#xec;" horiz-adv-x="319" 
d="M90 413q2 30 12.5 50t27.5 32t39.5 17.5t49.5 5.5v-518h-129v413zM50 682q28 20 49.5 27t39 2t32.5 -21.5t32 -44.5l36 -60q-24 -14 -49.5 -13t-42.5 19z" />
    <glyph glyph-name="iacute" unicode="&#xed;" horiz-adv-x="319" 
d="M90 413q2 30 12.5 50t27.5 32t39.5 17.5t49.5 5.5v-518h-129v413zM166 580q-17 -18 -42.5 -19t-49.5 13l42 70q16 28 31.5 44.5t33 21.5t39 -2t49.5 -27z" />
    <glyph glyph-name="icircumflex" unicode="&#xee;" horiz-adv-x="485" 
d="M173 413q2 30 12.5 50t27.5 32t39.5 17.5t49.5 5.5v-518h-129v413zM50 579l97 91q20 19 42.5 31t54.5 11h50l141 -133h-133l-58 61l-60 -61h-134z" />
    <glyph glyph-name="idieresis" unicode="&#xef;" horiz-adv-x="445" 
d="M153 413q2 30 12.5 50t27.5 32t39.5 17.5t49.5 5.5v-518h-129v413zM327 747q28 0 48 -20q20 -19 20 -48t-20 -48q-20 -20 -48 -20q-26 0 -48 20q-20 20 -20 48t20 48q22 20 48 20zM118 747q28 0 48 -20t20 -48t-20 -48t-48 -20t-48 20t-20 48t20 48t48 20z" />
    <glyph glyph-name="eth" unicode="&#xf0;" horiz-adv-x="607" 
d="M300 513q19 0 39 -3q-8 14 -17.5 28.5t-20.5 29.5l-131 -40l-26 84l93 29q-30 28 -61 52h122l31 -24l101 32l29 -85l-51 -16q88 -87 122.5 -170t33.5 -163q2 -37 -6.5 -74t-28.5 -72q-32 -55 -83 -87.5t-109 -40.5t-116 9.5t-104 63.5q-53 53 -69.5 122.5t3.5 138.5
q8 28 28 46t45 26.5t52 8t50 -10.5t39 -28.5t19 -45.5q-15 10 -35.5 10.5t-38.5 -8.5t-31 -28t-13 -47q0 -48 20.5 -80t50.5 -48t65.5 -15.5t65.5 17t50 48.5t20 80q0 37 -13.5 66.5t-36 48t-53 26t-63.5 0.5q-14 17 -35 27.5t-44.5 13.5t-48 -1.5t-45.5 -16.5
q38 47 89.5 72t111.5 25z" />
    <glyph glyph-name="ntilde" unicode="&#xf1;" horiz-adv-x="538" 
d="M169 458q8 18 24.5 31t36.5 22t41 14t39 6q38 2 75 -10.5t68 -43.5q45 -47 45 -135v-342h-128q0 17 0.5 46t0.5 63.5v71.5t-1 70t-3 59t-5 38q-8 32 -30.5 48t-48.5 16q-34 0 -53 -18.5t-19 -48.5q-12 4 -24 16.5t-18 26.5v-388h-129v518h129v-60zM98 595q-11 9 -17.5 21
t-7 25.5t6 27t22.5 25.5q19 13 40.5 16.5t43.5 0.5t43 -11t41 -18q14 -7 33 -12.5t37 -5.5t33.5 7.5t22.5 27.5q9 -5 16 -15t9 -23.5t-3.5 -28.5t-21.5 -28q-25 -22 -56.5 -21t-64 11.5t-61.5 22.5t-48 12q-20 1 -38.5 -5.5t-29.5 -28.5z" />
    <glyph glyph-name="ograve" unicode="&#xf2;" horiz-adv-x="606" 
d="M301 530q79 0 140.5 -38t96.5 -97t37.5 -131t-36.5 -141q-33 -57 -86 -91t-113 -42.5t-120.5 10t-108.5 66.5q-54 55 -72 127t3 144q9 29 29.5 48t46.5 28t54 8t52 -11.5t40.5 -30t19.5 -47.5q-15 11 -36 11.5t-40.5 -9t-33 -29t-13.5 -48.5q0 -50 21 -83t52.5 -49.5
t68 -16.5t68 17t52.5 50.5t21 83.5q0 39 -14 69t-37.5 49.5t-54.5 27t-66 0.5q-15 18 -36.5 28.5t-46.5 14t-50 -1t-47 -17.5q40 48 93 74.5t116 26.5zM193 682q28 20 49.5 27t39 2t32.5 -21.5t32 -44.5l36 -60q-24 -14 -49.5 -13t-42.5 19z" />
    <glyph glyph-name="oacute" unicode="&#xf3;" horiz-adv-x="606" 
d="M301 530q79 0 140.5 -38t96.5 -97t37.5 -131t-36.5 -141q-33 -57 -86 -91t-113 -42.5t-120.5 10t-108.5 66.5q-54 55 -72 127t3 144q9 29 29.5 48t46.5 28t54 8t52 -11.5t40.5 -30t19.5 -47.5q-15 11 -36 11.5t-40.5 -9t-33 -29t-13.5 -48.5q0 -50 21 -83t52.5 -49.5
t68 -16.5t68 17t52.5 50.5t21 83.5q0 39 -14 69t-37.5 49.5t-54.5 27t-66 0.5q-15 18 -36.5 28.5t-46.5 14t-50 -1t-47 -17.5q40 48 93 74.5t116 26.5zM309 580q-17 -18 -42.5 -19t-49.5 13l42 70q16 28 31.5 44.5t33 21.5t39 -2t49.5 -27z" />
    <glyph glyph-name="ocircumflex" unicode="&#xf4;" horiz-adv-x="606" 
d="M301 530q79 0 140.5 -38t96.5 -97t37.5 -131t-36.5 -141q-33 -57 -86 -91t-113 -42.5t-120.5 10t-108.5 66.5q-54 55 -72 127t3 144q9 29 29.5 48t46.5 28t54 8t52 -11.5t40.5 -30t19.5 -47.5q-15 11 -36 11.5t-40.5 -9t-33 -29t-13.5 -48.5q0 -50 21 -83t52.5 -49.5
t68 -16.5t68 17t52.5 50.5t21 83.5q0 39 -14 69t-37.5 49.5t-54.5 27t-66 0.5q-15 18 -36.5 28.5t-46.5 14t-50 -1t-47 -17.5q40 48 93 74.5t116 26.5zM110 579l97 91q20 19 42.5 31t54.5 11h50l141 -133h-133l-58 61l-60 -61h-134z" />
    <glyph glyph-name="otilde" unicode="&#xf5;" horiz-adv-x="606" 
d="M301 530q79 0 140.5 -38t96.5 -97t37.5 -131t-36.5 -141q-33 -57 -86 -91t-113 -42.5t-120.5 10t-108.5 66.5q-54 55 -72 127t3 144q9 29 29.5 48t46.5 28t54 8t52 -11.5t40.5 -30t19.5 -47.5q-15 11 -36 11.5t-40.5 -9t-33 -29t-13.5 -48.5q0 -50 21 -83t52.5 -49.5
t68 -16.5t68 17t52.5 50.5t21 83.5q0 39 -14 69t-37.5 49.5t-54.5 27t-66 0.5q-15 18 -36.5 28.5t-46.5 14t-50 -1t-47 -17.5q40 48 93 74.5t116 26.5zM132 595q-11 9 -17.5 21t-7 25.5t6 27t22.5 25.5q19 13 40.5 16.5t43.5 0.5t43 -11t41 -18q14 -7 33 -12.5t37 -5.5
t33.5 7.5t22.5 27.5q9 -5 16 -15t9 -23.5t-3.5 -28.5t-21.5 -28q-25 -22 -56.5 -21t-64 11.5t-61.5 22.5t-48 12q-20 1 -38.5 -5.5t-29.5 -28.5z" />
    <glyph glyph-name="odieresis" unicode="&#xf6;" horiz-adv-x="606" 
d="M301 530q79 0 140.5 -38t96.5 -97t37.5 -131t-36.5 -141q-33 -57 -86 -91t-113 -42.5t-120.5 10t-108.5 66.5q-54 55 -72 127t3 144q9 29 29.5 48t46.5 28t54 8t52 -11.5t40.5 -30t19.5 -47.5q-15 11 -36 11.5t-40.5 -9t-33 -29t-13.5 -48.5q0 -50 21 -83t52.5 -49.5
t68 -16.5t68 17t52.5 50.5t21 83.5q0 39 -14 69t-37.5 49.5t-54.5 27t-66 0.5q-15 18 -36.5 28.5t-46.5 14t-50 -1t-47 -17.5q40 48 93 74.5t116 26.5zM407 747q28 0 48 -20q20 -19 20 -48t-20 -48q-20 -20 -48 -20q-26 0 -48 20q-20 20 -20 48t20 48q22 20 48 20zM198 747
q28 0 48 -20t20 -48t-20 -48t-48 -20t-48 20t-20 48t20 48t48 20z" />
    <glyph glyph-name="divide" unicode="&#xf7;" horiz-adv-x="587" 
d="M285 128q30 0 52 -22q21 -21 21 -52t-21 -52q-22 -22 -52 -22q-31 0 -53 22q-21 21 -21 52t21 52q22 22 53 22zM285 517q30 0 52 -22q21 -21 21 -52q0 -30 -21 -52q-24 -22 -52 -22q-29 0 -53 22q-21 21 -21 52t21 52q22 22 53 22zM466 304q47 0 64.5 -31t15.5 -87h-425
q-47 0 -64.5 31t-15.5 87h425z" />
    <glyph glyph-name="oslash" unicode="&#xf8;" horiz-adv-x="626" 
d="M310 529q84 0 149 -42l14 16q16 18 31 26t29.5 8t29 -6.5t29.5 -17.5l-70 -81q26 -31 42.5 -68.5t21 -78t-4 -83t-31.5 -82.5q-29 -51 -74.5 -83t-98 -45t-107.5 -4.5t-103 38.5l-16 -19q-16 -18 -31.5 -25t-30 -6t-28 8t-26.5 16l70 80q-46 54 -60 121.5t6 133.5
q9 29 29.5 48.5t46.5 28t54.5 8t52.5 -11t40.5 -30t19.5 -47.5q-16 10 -37 11t-40 -8.5t-32.5 -29t-13.5 -49.5q0 -23 5 -42t13 -36l188 216q-43 22 -96 11q-14 18 -35.5 28.5t-46.5 14t-50.5 -1t-47.5 -17.5q40 49 93.5 75t115.5 26zM249 120q31 -15 67 -14t67 18t51 50.5
t20 82.5q0 45 -18 78z" />
    <glyph glyph-name="ugrave" unicode="&#xf9;" horiz-adv-x="554" 
d="M181 517v-248q0 -18 0.5 -38.5t4 -40t12 -36.5t25.5 -29q11 -8 25.5 -12t29.5 -4t29 4t26 12q17 11 25.5 27.5t12 35.5t3.5 39v38v149q-1 54 35 80.5t94 24.5v-220q1 -68 -4.5 -113.5t-16.5 -71.5q-29 -67 -82 -96t-124 -29q-77 0 -132 34t-79 109q-7 23 -11 62.5
t-4 86.5v236h131zM167 682q28 20 49.5 27t39 2t32.5 -21.5t32 -44.5l36 -60q-24 -14 -49.5 -13t-42.5 19z" />
    <glyph glyph-name="uacute" unicode="&#xfa;" horiz-adv-x="554" 
d="M181 517v-248q0 -18 0.5 -38.5t4 -40t12 -36.5t25.5 -29q11 -8 25.5 -12t29.5 -4t29 4t26 12q17 11 25.5 27.5t12 35.5t3.5 39v38v149q-1 54 35 80.5t94 24.5v-220q1 -68 -4.5 -113.5t-16.5 -71.5q-29 -67 -82 -96t-124 -29q-77 0 -132 34t-79 109q-7 23 -11 62.5
t-4 86.5v236h131zM283 580q-17 -18 -42.5 -19t-49.5 13l42 70q16 28 31.5 44.5t33 21.5t39 -2t49.5 -27z" />
    <glyph glyph-name="ucircumflex" unicode="&#xfb;" horiz-adv-x="554" 
d="M181 517v-248q0 -18 0.5 -38.5t4 -40t12 -36.5t25.5 -29q11 -8 25.5 -12t29.5 -4t29 4t26 12q17 11 25.5 27.5t12 35.5t3.5 39v38v149q-1 54 35 80.5t94 24.5v-220q1 -68 -4.5 -113.5t-16.5 -71.5q-29 -67 -82 -96t-124 -29q-77 0 -132 34t-79 109q-7 23 -11 62.5
t-4 86.5v236h131zM84 579l97 91q20 19 42.5 31t54.5 11h50l141 -133h-133l-58 61l-60 -61h-134z" />
    <glyph glyph-name="udieresis" unicode="&#xfc;" horiz-adv-x="554" 
d="M181 517v-248q0 -18 0.5 -38.5t4 -40t12 -36.5t25.5 -29q11 -8 25.5 -12t29.5 -4t29 4t26 12q17 11 25.5 27.5t12 35.5t3.5 39v38v149q-1 54 35 80.5t94 24.5v-220q1 -68 -4.5 -113.5t-16.5 -71.5q-29 -67 -82 -96t-124 -29q-77 0 -132 34t-79 109q-7 23 -11 62.5
t-4 86.5v236h131zM381 747q28 0 48 -20q20 -19 20 -48t-20 -48q-20 -20 -48 -20q-26 0 -48 20q-20 20 -20 48t20 48q22 20 48 20zM172 747q28 0 48 -20t20 -48t-20 -48t-48 -20t-48 20t-20 48t20 48t48 20z" />
    <glyph glyph-name="yacute" unicode="&#xfd;" horiz-adv-x="552" 
d="M239 -194q-49 0 -90.5 13t-68.5 38.5t-36.5 64.5t5.5 90q12 -22 31.5 -38.5t43.5 -27.5t50 -16.5t51 -4.5q72 3 110 37.5t38 107.5q-7 -19 -24 -33t-38 -23.5t-43 -14.5t-40 -6q-38 -2 -75 10t-67 43q-45 46 -45 134v339h127q0 -17 -0.5 -45.5t-0.5 -63v-71t1 -69.5
t3 -58.5t5 -37.5q8 -32 30 -48t48 -16q17 0 32 5.5t26.5 15.5t18.5 22.5t7 27.5q25 -7 35 -35v373h129v-456q0 -118 -66.5 -187.5t-196.5 -69.5zM282 580q-17 -18 -42.5 -19t-49.5 13l42 70q16 28 31.5 44.5t33 21.5t39 -2t49.5 -27z" />
    <glyph glyph-name="thorn" unicode="&#xfe;" horiz-adv-x="614" 
d="M178 -193h-128v791q0 41 34 71.5t94 32.5v-407q0 -35 6.5 -69.5t22 -63t41.5 -46t65 -17.5q46 0 76.5 22.5t46 55.5t15 72.5t-16 72.5t-46 55.5t-76.5 22.5q-28 0 -58.5 -8.5t-47.5 -33.5q-9 16 -9.5 42.5t12 52t41.5 44.5t79 21q48 1 93.5 -18t80 -55t55.5 -85.5
t21 -109.5q0 -62 -19.5 -111t-51.5 -83.5t-73.5 -53.5t-86 -20.5t-89 15t-81.5 53.5v-243z" />
    <glyph glyph-name="ydieresis" unicode="&#xff;" horiz-adv-x="552" 
d="M239 -194q-49 0 -90.5 13t-68.5 38.5t-36.5 64.5t5.5 90q12 -22 31.5 -38.5t43.5 -27.5t50 -16.5t51 -4.5q72 3 110 37.5t38 107.5q-7 -19 -24 -33t-38 -23.5t-43 -14.5t-40 -6q-38 -2 -75 10t-67 43q-45 46 -45 134v339h127q0 -17 -0.5 -45.5t-0.5 -63v-71t1 -69.5
t3 -58.5t5 -37.5q8 -32 30 -48t48 -16q17 0 32 5.5t26.5 15.5t18.5 22.5t7 27.5q25 -7 35 -35v373h129v-456q0 -118 -66.5 -187.5t-196.5 -69.5zM380 747q28 0 48 -20q20 -19 20 -48t-20 -48q-20 -20 -48 -20q-26 0 -48 20q-20 20 -20 48t20 48q22 20 48 20zM171 747
q28 0 48 -20t20 -48t-20 -48t-48 -20t-48 20t-20 48t20 48t48 20z" />
    <glyph glyph-name="Abreve" unicode="&#x102;" horiz-adv-x="721" 
d="M260 607q20 53 59.5 77t108.5 12l268 -696h-138l-54 143q-30 0 -65 0.5t-63.5 -4.5t-44.5 -17.5t-8 -39.5q-36 10 -54.5 30.5t-22.5 43.5t5 45.5t27 37.5q17 15 38.5 21.5t45 9t47.5 2t46 -0.5l-94 240l-198 -511h-138zM498 924q-2 -27 -13.5 -50t-30 -40.5t-43 -27
t-51.5 -9.5t-51.5 9.5t-43 27t-30 40.5t-13.5 50h79q6 -26 22.5 -38.5t35.5 -12t35 13.5t22 37h82z" />
    <glyph glyph-name="abreve" unicode="&#x103;" 
d="M436 0h130v518h-130v-213q0 -35 -6.5 -70.5t-22 -64t-41.5 -46.5t-66 -18q-47 0 -78.5 22.5t-47 56.5t-15 73.5t16.5 73.5t47 56.5t77 22.5q29 0 60 -8.5t48 -33.5q9 16 8.5 42.5t-14 52.5t-42.5 45.5t-77 21.5q-49 2 -94.5 -17.5t-81 -55.5t-56.5 -87t-21 -111
q0 -63 19.5 -112.5t52 -85t75 -54.5t87.5 -20.5t89.5 15.5t82.5 54v-57zM446 712q-2 -27 -13.5 -50t-30 -40.5t-43 -27t-51.5 -9.5t-51.5 9.5t-43 27t-30 40.5t-13.5 50h79q6 -26 22.5 -38.5t35.5 -12t35 13.5t22 37h82z" />
    <glyph glyph-name="Aogonek" unicode="&#x104;" horiz-adv-x="721" 
d="M260 607q20 53 59.5 77t108.5 12l268 -696h-17q-12 -9 -30 -20t-33.5 -23t-25.5 -25.5t-6 -27.5q3 -14 18.5 -19.5t32.5 -7.5q20 -3 45 -1q1 -5 2 -11q1 -5 1.5 -11.5t1.5 -13.5q2 -16 4 -35q-44 -5 -86 -2t-71.5 18t-39.5 42t10 70q9 20 24.5 37.5t30.5 30.5l-53 142
q-30 0 -65 0.5t-63.5 -4.5t-44.5 -17.5t-8 -39.5q-36 10 -54.5 30.5t-22.5 43.5t5 45.5t27 37.5q17 15 38.5 21.5t45 9t47.5 2t46 -0.5l-94 240l-198 -511h-138z" />
    <glyph glyph-name="aogonek" unicode="&#x105;" 
d="M549 0q-12 -9 -30 -20t-33.5 -23t-25.5 -25.5t-6 -27.5q3 -14 18.5 -19.5t32.5 -7.5q20 -3 45 -1q1 -5 2 -11q1 -5 1.5 -11.5t1.5 -13.5q2 -16 4 -35q-44 -5 -86 -2t-71.5 18t-39.5 42t10 70q11 23 29.5 42.5t34.5 33.5v48q-38 -37 -82.5 -54t-89.5 -15.5t-87.5 20.5
t-75 54.5t-52 85t-19.5 112.5q0 60 21 111t56.5 87t81 55.5t94.5 17.5q48 -2 77 -21.5t42.5 -45.5t14 -52.5t-8.5 -42.5q-17 25 -48 33.5t-60 8.5q-46 0 -77 -22.5t-47 -56.5t-16.5 -73.5t15 -73.5t47 -56.5t78.5 -22.5q40 0 66 18t41.5 46.5t22 64t6.5 70.5v213h130v-518
h-17z" />
    <glyph glyph-name="Cacute" unicode="&#x106;" horiz-adv-x="725" 
d="M618 461q-14 37 -44 63t-68.5 40.5t-81.5 18t-81 -4.5q-41 -9 -73.5 -30.5t-55 -52t-34.5 -67.5t-12 -77q0 -75 32 -127.5t81 -80.5t107 -30t110 22q45 20 101 78l86 -93q-34 -35 -66 -60t-66.5 -41t-73 -24t-83.5 -8q-81 0 -143 26t-106 69.5t-69.5 100t-33.5 117.5
t3 121.5t40 112.5q28 49 63.5 82.5t77 54t88 29.5t96.5 10q35 0 73.5 -6.5t73 -20t61.5 -34.5t38 -49t3 -62.5t-43 -76.5zM369 792q-17 -18 -42.5 -19t-49.5 13l42 70q16 28 31.5 44.5t33 21.5t39 -2t49.5 -27z" />
    <glyph glyph-name="cacute" unicode="&#x107;" horiz-adv-x="550" 
d="M453 326q-8 28 -30.5 47t-52.5 28.5t-64 9t-64.5 -13.5t-53.5 -38.5t-32 -64.5q-7 -32 -2 -65t23 -59.5t48.5 -43.5t73.5 -17q81 0 126 59l95 -69q-76 -107 -219 -107q-75 0 -129.5 28.5t-88.5 74t-46 102t-2.5 112t41.5 105t87 80.5q41 23 87.5 31.5t93.5 1.5
q62 -9 96.5 -37t45.5 -60.5t1.5 -62t-34.5 -41.5zM281 580q-17 -18 -42.5 -19t-49.5 13l42 70q16 28 31.5 44.5t33 21.5t39 -2t49.5 -27z" />
    <glyph glyph-name="Ccircumflex" unicode="&#x108;" horiz-adv-x="725" 
d="M618 461q-14 37 -44 63t-68.5 40.5t-81.5 18t-81 -4.5q-41 -9 -73.5 -30.5t-55 -52t-34.5 -67.5t-12 -77q0 -75 32 -127.5t81 -80.5t107 -30t110 22q45 20 101 78l86 -93q-34 -35 -66 -60t-66.5 -41t-73 -24t-83.5 -8q-81 0 -143 26t-106 69.5t-69.5 100t-33.5 117.5
t3 121.5t40 112.5q28 49 63.5 82.5t77 54t88 29.5t96.5 10q35 0 73.5 -6.5t73 -20t61.5 -34.5t38 -49t3 -62.5t-43 -76.5zM170 791l97 91q20 19 42.5 31t54.5 11h50l141 -133h-133l-58 61l-60 -61h-134z" />
    <glyph glyph-name="ccircumflex" unicode="&#x109;" horiz-adv-x="550" 
d="M453 326q-8 28 -30.5 47t-52.5 28.5t-64 9t-64.5 -13.5t-53.5 -38.5t-32 -64.5q-7 -32 -2 -65t23 -59.5t48.5 -43.5t73.5 -17q81 0 126 59l95 -69q-76 -107 -219 -107q-75 0 -129.5 28.5t-88.5 74t-46 102t-2.5 112t41.5 105t87 80.5q41 23 87.5 31.5t93.5 1.5
q62 -9 96.5 -37t45.5 -60.5t1.5 -62t-34.5 -41.5zM82 579l97 91q20 19 42.5 31t54.5 11h50l141 -133h-133l-58 61l-60 -61h-134z" />
    <glyph glyph-name="Cdotaccent" unicode="&#x10a;" horiz-adv-x="725" 
d="M618 461q-14 37 -44 63t-68.5 40.5t-81.5 18t-81 -4.5q-41 -9 -73.5 -30.5t-55 -52t-34.5 -67.5t-12 -77q0 -75 32 -127.5t81 -80.5t107 -30t110 22q45 20 101 78l86 -93q-34 -35 -66 -60t-66.5 -41t-73 -24t-83.5 -8q-81 0 -143 26t-106 69.5t-69.5 100t-33.5 117.5
t3 121.5t40 112.5q28 49 63.5 82.5t77 54t88 29.5t96.5 10q35 0 73.5 -6.5t73 -20t61.5 -34.5t38 -49t3 -62.5t-43 -76.5zM362 928q31 0 52 -22q22 -21 22 -52t-22 -52q-21 -22 -52 -22q-30 0 -52 22q-21 21 -21 52t21 52q22 22 52 22z" />
    <glyph glyph-name="cdotaccent" unicode="&#x10b;" horiz-adv-x="550" 
d="M453 326q-8 28 -30.5 47t-52.5 28.5t-64 9t-64.5 -13.5t-53.5 -38.5t-32 -64.5q-7 -32 -2 -65t23 -59.5t48.5 -43.5t73.5 -17q81 0 126 59l95 -69q-76 -107 -219 -107q-75 0 -129.5 28.5t-88.5 74t-46 102t-2.5 112t41.5 105t87 80.5q41 23 87.5 31.5t93.5 1.5
q62 -9 96.5 -37t45.5 -60.5t1.5 -62t-34.5 -41.5zM274 716q31 0 52 -22q22 -21 22 -52t-22 -52q-21 -22 -52 -22q-30 0 -52 22q-21 21 -21 52t21 52q22 22 52 22z" />
    <glyph glyph-name="Ccaron" unicode="&#x10c;" horiz-adv-x="725" 
d="M618 461q-14 37 -44 63t-68.5 40.5t-81.5 18t-81 -4.5q-41 -9 -73.5 -30.5t-55 -52t-34.5 -67.5t-12 -77q0 -75 32 -127.5t81 -80.5t107 -30t110 22q45 20 101 78l86 -93q-34 -35 -66 -60t-66.5 -41t-73 -24t-83.5 -8q-81 0 -143 26t-106 69.5t-69.5 100t-33.5 117.5
t3 121.5t40 112.5q28 49 63.5 82.5t77 54t88 29.5t96.5 10q35 0 73.5 -6.5t73 -20t61.5 -34.5t38 -49t3 -62.5t-43 -76.5zM555 920l-97 -91q-20 -19 -42.5 -31t-54.5 -11h-50l-141 133h133l58 -61l60 61h134z" />
    <glyph glyph-name="ccaron" unicode="&#x10d;" horiz-adv-x="550" 
d="M453 326q-8 28 -30.5 47t-52.5 28.5t-64 9t-64.5 -13.5t-53.5 -38.5t-32 -64.5q-7 -32 -2 -65t23 -59.5t48.5 -43.5t73.5 -17q81 0 126 59l95 -69q-76 -107 -219 -107q-75 0 -129.5 28.5t-88.5 74t-46 102t-2.5 112t41.5 105t87 80.5q41 23 87.5 31.5t93.5 1.5
q62 -9 96.5 -37t45.5 -60.5t1.5 -62t-34.5 -41.5zM467 708l-97 -91q-20 -19 -42.5 -31t-54.5 -11h-50l-141 133h133l58 -61l60 61h134z" />
    <glyph glyph-name="Dcaron" unicode="&#x10e;" horiz-adv-x="660" 
d="M298 700q45 0 80.5 -12t64.5 -27q59 -30 97 -83.5t55 -118.5t13.5 -134.5t-28 -131t-69.5 -109t-110 -67.5q-26 -8 -70.5 -11.5t-94.5 -5t-99.5 -1t-86.5 0.5v581q0 25 6 47t19.5 38t36 25t55.5 9h131zM183 130h83t71.5 7.5t59.5 26.5t47 57q16 31 24 71t5.5 81t-16 78.5
t-40.5 64.5q-23 23 -55 37t-67 14h-112v-437zM522 920l-97 -91q-20 -19 -42.5 -31t-54.5 -11h-50l-141 133h133l58 -61l60 61h134z" />
    <glyph glyph-name="dcaron" unicode="&#x10f;" horiz-adv-x="809" 
d="M425 56q-37 -36 -80.5 -52.5t-87.5 -15t-85 20t-72.5 53t-50.5 82.5t-19 109q0 59 20.5 108t55 84.5t78.5 54.5t92 17q50 -2 78.5 -21t41 -44t12 -50.5t-9.5 -41.5q-17 24 -47.5 32.5t-57.5 8.5q-45 0 -75.5 -22t-46 -55t-15.5 -71.5t15 -71.5t45 -55t76 -22
q39 0 64.5 17.5t40.5 45.5t21.5 62.5t6.5 68.5v401q59 -2 92.5 -32t33.5 -70v-596h-126v55zM655 681q15 7 32 7.5t32 -6t26.5 -18.5t16.5 -29q7 -23 2.5 -51t-16.5 -55q-15 -35 -40 -64t-54 -40q13 37 10 60.5t-12.5 40t-21 29.5t-17.5 30q-11 31 3 57.5t39 38.5z" />
    <glyph glyph-name="Dcroat" unicode="&#x110;" horiz-adv-x="676" 
d="M334 700q45 0 80.5 -12t64.5 -27q59 -30 97 -83.5t55 -118.5t13.5 -134.5t-28 -131t-69.5 -109t-110 -67.5q-26 -8 -70.5 -11.5t-94.5 -5t-99.5 -1t-86.5 0.5v312h-12q-33 0 -48.5 24t-15.5 53h76v192q0 52 25.5 85.5t91.5 33.5h131zM219 389h75q33 0 51 -20t21 -57h-147
v-182h83t71.5 7.5t59.5 26.5t47 57q16 31 24 71t5.5 81t-16 78.5t-40.5 64.5q-23 23 -55 37t-67 14h-112v-178z" />
    <glyph glyph-name="dcroat" unicode="&#x111;" horiz-adv-x="601" 
d="M425 622v77q50 -2 81.5 -24t40.5 -54q39 -4 54 -34t13 -81h-63v-505h-126v55q-37 -36 -80.5 -52.5t-87.5 -15t-85 20t-72.5 53t-50.5 82.5t-19 109q0 59 20.5 108t55 84.5t78.5 54.5t92 17q50 -2 78.5 -21t41 -44t12 -50.5t-9.5 -41.5q-17 24 -47.5 32.5t-57.5 8.5
q-45 0 -75.5 -22t-46 -55t-15.5 -71.5t15 -71.5t45 -55t76 -22q39 0 64.5 17.5t40.5 45.5t21.5 62.5t6.5 68.5v208q-42 2 -57.5 32.5t-13.5 83.5h71z" />
    <glyph glyph-name="Ebreve" unicode="&#x114;" horiz-adv-x="503" 
d="M453 700v-131h-270v-155h270q-1 -23 -7 -46t-19 -41t-33.5 -29.5t-50.5 -11.5h-160v-155h270v-131h-403v579q0 58 32.5 89.5t82.5 31.5h288zM389 924q-2 -27 -13.5 -50t-30 -40.5t-43 -27t-51.5 -9.5t-51.5 9.5t-43 27t-30 40.5t-13.5 50h79q6 -26 22.5 -38.5t35.5 -12
t35 13.5t22 37h82z" />
    <glyph glyph-name="ebreve" unicode="&#x115;" horiz-adv-x="570" 
d="M403 200q-54 -14 -98.5 -10t-73 21.5t-38 47t5.5 66.5q31 -26 72 -28.5t79 1.5q32 3 48.5 14t20.5 25.5t-3 30.5t-22.5 29t-38 21t-49.5 7q-29 -2 -55 -14t-46 -33t-32 -49t-13 -62q-1 -28 6.5 -55t22.5 -49.5t36 -38t48 -19.5q38 -7 78 5t71 44l105 -51
q-41 -61 -97 -87.5t-128 -26.5q-67 0 -117.5 23.5t-84 62.5t-50 88.5t-15.5 101t20 101t55 87.5q40 43 93.5 61t109.5 18q62 0 107 -21t73 -53.5t37 -72t-1.5 -76.5t-41.5 -66.5t-84 -42.5zM423 712q-2 -27 -13.5 -50t-30 -40.5t-43 -27t-51.5 -9.5t-51.5 9.5t-43 27
t-30 40.5t-13.5 50h79q6 -26 22.5 -38.5t35.5 -12t35 13.5t22 37h82z" />
    <glyph glyph-name="Eogonek" unicode="&#x118;" horiz-adv-x="503" 
d="M453 700v-131h-270v-155h270q-1 -23 -7 -46t-19 -41t-33.5 -29.5t-50.5 -11.5h-160v-155h270v-131h-167q-13 -10 -26.5 -21.5t-23.5 -24t-15.5 -25.5t-2.5 -25q3 -14 18.5 -19.5t32.5 -7.5q20 -3 45 -1q1 -5 2 -11q1 -5 1.5 -11.5t1.5 -13.5q2 -16 4 -35q-44 -5 -86 -2
t-71.5 18t-39.5 42t10 70q9 20 24 37t30 30h-140v579q0 58 32.5 89.5t82.5 31.5h288z" />
    <glyph glyph-name="eogonek" unicode="&#x119;" horiz-adv-x="570" 
d="M403 200q-54 -14 -98.5 -10t-73 21.5t-38 47t5.5 66.5q31 -26 72 -28.5t79 1.5q32 3 48.5 14t20.5 25.5t-3 30.5t-22.5 29t-38 21t-49.5 7q-29 -2 -55 -14t-46 -33t-32 -49t-13 -62q-1 -28 6.5 -55t22.5 -49.5t36 -38t48 -19.5q38 -7 78 5t71 44l105 -51
q-41 -61 -97 -87.5t-128 -26.5h-8q-18 -17 -29.5 -35t-6.5 -35q3 -14 18.5 -19.5t32.5 -7.5q20 -3 45 -1q1 -5 2 -11q1 -5 1.5 -11.5t1.5 -13.5q2 -16 4 -35q-44 -5 -86 -2t-71.5 18t-39.5 42t10 70q7 15 17.5 28.5t21.5 24.5q-49 15 -84.5 44.5t-58 68.5t-31.5 84.5
t-4.5 90.5t23 87.5t50.5 76.5q40 43 93.5 61t109.5 18q62 0 107 -21t73 -53.5t37 -72t-1.5 -76.5t-41.5 -66.5t-84 -42.5z" />
    <glyph glyph-name="Ecaron" unicode="&#x11a;" horiz-adv-x="503" 
d="M453 700v-131h-270v-155h270q-1 -23 -7 -46t-19 -41t-33.5 -29.5t-50.5 -11.5h-160v-155h270v-131h-403v579q0 58 32.5 89.5t82.5 31.5h288zM444 920l-97 -91q-20 -19 -42.5 -31t-54.5 -11h-50l-141 133h133l58 -61l60 61h134z" />
    <glyph glyph-name="ecaron" unicode="&#x11b;" horiz-adv-x="570" 
d="M403 200q-54 -14 -98.5 -10t-73 21.5t-38 47t5.5 66.5q31 -26 72 -28.5t79 1.5q32 3 48.5 14t20.5 25.5t-3 30.5t-22.5 29t-38 21t-49.5 7q-29 -2 -55 -14t-46 -33t-32 -49t-13 -62q-1 -28 6.5 -55t22.5 -49.5t36 -38t48 -19.5q38 -7 78 5t71 44l105 -51
q-41 -61 -97 -87.5t-128 -26.5q-67 0 -117.5 23.5t-84 62.5t-50 88.5t-15.5 101t20 101t55 87.5q40 43 93.5 61t109.5 18q62 0 107 -21t73 -53.5t37 -72t-1.5 -76.5t-41.5 -66.5t-84 -42.5zM477 708l-97 -91q-20 -19 -42.5 -31t-54.5 -11h-50l-141 133h133l58 -61l60 61h134
z" />
    <glyph glyph-name="Gcircumflex" unicode="&#x11c;" horiz-adv-x="796" 
d="M663 450q-10 31 -35.5 57t-61.5 44t-78.5 27t-86 6t-84.5 -19.5t-74 -48.5q-37 -36 -53.5 -80t-15.5 -89t18.5 -87.5t50 -75.5t78 -53t102.5 -20q68 0 116 29t67 90h-185q-26 0 -46 11t-32.5 28.5t-18.5 39.5t-4 45h434q8 -91 -20 -160.5t-78.5 -116.5t-116.5 -71
t-133 -23q-46 1 -91.5 12.5t-87 34t-77 56.5t-60.5 79q-30 52 -41.5 107.5t-7 109.5t24.5 104t53 92q48 61 123 98.5t172 37.5q72 0 136.5 -20.5t105 -56.5t46.5 -84t-39 -103zM205 791l97 91q20 19 42.5 31t54.5 11h50l141 -133h-133l-58 61l-60 -61h-134z" />
    <glyph glyph-name="gcircumflex" unicode="&#x11d;" 
d="M301 -201q-50 0 -96.5 12t-79.5 36.5t-47 62t1 89.5q16 -18 41.5 -33t54 -25.5t58 -16.5t54.5 -5q46 2 75 15t45.5 33.5t22.5 46.5t6 54q-38 -38 -82.5 -54.5t-89.5 -15t-87.5 21t-75 54.5t-52 85t-19.5 112q0 60 21 109t56.5 83t81 52t94.5 16q48 -2 77 -21.5t42.5 -45
t14 -52.5t-8.5 -43q-9 12 -21.5 20.5t-27 13.5t-30 7t-29.5 2q-46 0 -77 -22t-47 -54.5t-16.5 -70.5t15 -70.5t47 -54.5t78.5 -22q40 0 66 16t41.5 42.5t22 60t6.5 68.5v213h130v-460q0 -59 -17 -107t-50.5 -82t-83 -52t-114.5 -18zM115 579l97 91q20 19 42.5 31t54.5 11h50
l141 -133h-133l-58 61l-60 -61h-134z" />
    <glyph glyph-name="Gbreve" unicode="&#x11e;" horiz-adv-x="796" 
d="M663 450q-10 31 -35.5 57t-61.5 44t-78.5 27t-86 6t-84.5 -19.5t-74 -48.5q-37 -36 -53.5 -80t-15.5 -89t18.5 -87.5t50 -75.5t78 -53t102.5 -20q68 0 116 29t67 90h-185q-26 0 -46 11t-32.5 28.5t-18.5 39.5t-4 45h434q8 -91 -20 -160.5t-78.5 -116.5t-116.5 -71
t-133 -23q-46 1 -91.5 12.5t-87 34t-77 56.5t-60.5 79q-30 52 -41.5 107.5t-7 109.5t24.5 104t53 92q48 61 123 98.5t172 37.5q72 0 136.5 -20.5t105 -56.5t46.5 -84t-39 -103zM536 924q-2 -27 -13.5 -50t-30 -40.5t-43 -27t-51.5 -9.5t-51.5 9.5t-43 27t-30 40.5t-13.5 50
h79q6 -26 22.5 -38.5t35.5 -12t35 13.5t22 37h82z" />
    <glyph glyph-name="gbreve" unicode="&#x11f;" 
d="M301 -201q-50 0 -96.5 12t-79.5 36.5t-47 62t1 89.5q16 -18 41.5 -33t54 -25.5t58 -16.5t54.5 -5q46 2 75 15t45.5 33.5t22.5 46.5t6 54q-38 -38 -82.5 -54.5t-89.5 -15t-87.5 21t-75 54.5t-52 85t-19.5 112q0 60 21 109t56.5 83t81 52t94.5 16q48 -2 77 -21.5t42.5 -45
t14 -52.5t-8.5 -43q-9 12 -21.5 20.5t-27 13.5t-30 7t-29.5 2q-46 0 -77 -22t-47 -54.5t-16.5 -70.5t15 -70.5t47 -54.5t78.5 -22q40 0 66 16t41.5 42.5t22 60t6.5 68.5v213h130v-460q0 -59 -17 -107t-50.5 -82t-83 -52t-114.5 -18zM446 712q-2 -27 -13.5 -50t-30 -40.5
t-43 -27t-51.5 -9.5t-51.5 9.5t-43 27t-30 40.5t-13.5 50h79q6 -26 22.5 -38.5t35.5 -12t35 13.5t22 37h82z" />
    <glyph glyph-name="Hcircumflex" unicode="&#x124;" horiz-adv-x="604" 
d="M185 700v-286h234v286h135v-700h-135v286h-133q-17 0 -34 4t-30.5 13t-23.5 23.5t-13 36.5v-363h-135v593q0 28 11.5 48.5t30 33.5t43 19t50.5 6zM109 791l97 91q20 19 42.5 31t54.5 11h50l141 -133h-133l-58 61l-60 -61h-134z" />
    <glyph glyph-name="hcircumflex" unicode="&#x125;" horiz-adv-x="547" 
d="M176 700v-253q8 17 24 30t35.5 21.5t40 13.5t38.5 6q37 2 73 -10t66 -43q44 -46 44 -132v-333h-125q0 16 0.5 44.5t0.5 62v70t-1 69t-3 57.5t-5 37q-8 30 -29 46t-47 16q-34 0 -52.5 -18t-18.5 -47q-11 3 -23.5 15t-17.5 26v-378h-126v598q0 48 34 75.5t92 26.5zM199 575
l75 71q15 14 32.5 23.5t42.5 9.5h39l110 -104h-103l-46 48l-46 -48h-104z" />
    <glyph glyph-name="Itilde" unicode="&#x128;" horiz-adv-x="252" 
d="M192 0h-132v595q0 50 36 78t96 27v-700zM-45 807q-11 9 -17.5 21t-7 25.5t6 27t22.5 25.5q19 13 40.5 16.5t43.5 0.5t43 -11t41 -18q14 -7 33 -12.5t37 -5.5t33.5 7.5t22.5 27.5q9 -5 16 -15t9 -23.5t-3.5 -28.5t-21.5 -28q-25 -22 -56.5 -21t-64 11.5t-61.5 22.5t-48 12
q-20 1 -38.5 -5.5t-29.5 -28.5z" />
    <glyph glyph-name="itilde" unicode="&#x129;" horiz-adv-x="319" 
d="M90 413q2 30 12.5 50t27.5 32t39.5 17.5t49.5 5.5v-518h-129v413zM-11 595q-11 9 -17.5 21t-7 25.5t6 27t22.5 25.5q19 13 40.5 16.5t43.5 0.5t43 -11t41 -18q14 -7 33 -12.5t37 -5.5t33.5 7.5t22.5 27.5q9 -5 16 -15t9 -23.5t-3.5 -28.5t-21.5 -28q-25 -22 -56.5 -21
t-64 11.5t-61.5 22.5t-48 12q-20 1 -38.5 -5.5t-29.5 -28.5z" />
    <glyph glyph-name="Ibreve" unicode="&#x12c;" horiz-adv-x="252" 
d="M192 0h-132v595q0 50 36 78t96 27v-700zM264 924q-2 -27 -13.5 -50t-30 -40.5t-43 -27t-51.5 -9.5t-51.5 9.5t-43 27t-30 40.5t-13.5 50h79q6 -26 22.5 -38.5t35.5 -12t35 13.5t22 37h82z" />
    <glyph glyph-name="ibreve" unicode="&#x12d;" horiz-adv-x="319" 
d="M90 413q2 30 12.5 50t27.5 32t39.5 17.5t49.5 5.5v-518h-129v413zM298 712q-2 -27 -13.5 -50t-30 -40.5t-43 -27t-51.5 -9.5t-51.5 9.5t-43 27t-30 40.5t-13.5 50h79q6 -26 22.5 -38.5t35.5 -12t35 13.5t22 37h82z" />
    <glyph glyph-name="Iogonek" unicode="&#x12e;" horiz-adv-x="252" 
d="M192 0h-17q-12 -9 -30 -20t-33.5 -23t-25.5 -25.5t-6 -27.5q3 -14 18.5 -19.5t32.5 -7.5q20 -3 45 -1q1 -5 2 -11q1 -5 1.5 -11.5t1.5 -13.5q2 -16 4 -35q-44 -5 -86 -2t-71.5 18t-39.5 42t10 70q11 23 28.5 41.5t33.5 32.5v588q0 50 36 78t96 27v-700z" />
    <glyph glyph-name="iogonek" unicode="&#x12f;" horiz-adv-x="268" 
d="M186 0q-11 -10 -29 -21t-34.5 -23.5t-27.5 -26t-7 -28.5q3 -14 18.5 -19.5t32.5 -7.5q20 -3 45 -1q1 -5 2 -11q1 -5 1.5 -11.5t1.5 -13.5q2 -16 4 -35q-44 -5 -86 -2t-71.5 18t-39.5 42t10 70q11 23 29.5 42.5t34.5 33.5v407q2 30 12.5 50t27.5 32t39.5 17.5t49.5 5.5
v-518h-13z" />
    <glyph glyph-name="dotlessi" unicode="&#x131;" horiz-adv-x="319" 
d="M90 413q2 30 12.5 50t27.5 32t39.5 17.5t49.5 5.5v-518h-129v413z" />
    <glyph glyph-name="Jcircumflex" unicode="&#x134;" horiz-adv-x="449" 
d="M389 240q0 -39 -2 -72.5t-9.5 -61.5t-22 -51t-40.5 -40q-41 -26 -96 -26q-45 0 -77.5 12.5t-53 31.5t-30 43t-8.5 47.5t12.5 43.5t31.5 32q9 -37 33.5 -56t49.5 -24q29 -6 45.5 -1.5t24 18t9 33.5t1.5 46v381q0 49 36 77t96 27v-460zM130 791l97 91q20 19 42.5 31
t54.5 11h50l141 -133h-133l-58 61l-60 -61h-134z" />
    <glyph glyph-name="jcircumflex" unicode="&#x135;" horiz-adv-x="265" 
d="M202 -20q0 -73 -14 -110q-16 -40 -48.5 -58t-74.5 -18q-33 0 -60.5 12.5t-44 32t-19.5 44t14 48.5q9 -9 22.5 -17t28.5 -11.5t29 -1t24 14.5q13 14 13 55q0 110 -0.5 219.5t-0.5 220.5q2 31 12.5 51t28 32t40.5 17t50 6v-537zM-60 579l97 91q20 19 42.5 31t54.5 11h50
l141 -133h-133l-58 61l-60 -61h-134z" />
    <glyph glyph-name="Lacute" unicode="&#x139;" horiz-adv-x="481" 
d="M191 127h240v-127h-372v595q0 50 36 78t96 27v-573zM235 792q-17 -18 -42.5 -19t-49.5 13l42 70q16 28 31.5 44.5t33 21.5t39 -2t49.5 -27z" />
    <glyph glyph-name="lacute" unicode="&#x13a;" horiz-adv-x="226" 
d="M176 700v-700h-126v598q0 48 34 75.5t92 26.5zM108 746q-17 -18 -42.5 -19t-49.5 13l42 70q16 28 31.5 44.5t33 21.5t39 -2t49.5 -27z" />
    <glyph glyph-name="Lcaron" unicode="&#x13d;" horiz-adv-x="481" 
d="M191 127h240v-127h-372v595q0 50 36 78t96 27v-573zM274 697q15 7 32 7.5t32 -6t26.5 -18.5t16.5 -29q7 -23 2.5 -51t-16.5 -55q-15 -35 -40 -64t-54 -40q13 37 10 60.5t-12.5 40t-21 29.5t-17.5 30q-11 31 3 57.5t39 38.5z" />
    <glyph glyph-name="lcaron" unicode="&#x13e;" horiz-adv-x="417" 
d="M176 700v-700h-126v598q0 48 34 75.5t92 26.5zM266 681q15 7 32 7.5t32 -6t26.5 -18.5t16.5 -29q7 -23 2.5 -51t-16.5 -55q-15 -35 -40 -64t-54 -40q13 37 10 60.5t-12.5 40t-21 29.5t-17.5 30q-11 31 3 57.5t39 38.5z" />
    <glyph glyph-name="Lslash" unicode="&#x141;" horiz-adv-x="481" 
d="M191 127h240v-127h-372v216l-28 -9q-29 -11 -48 7.5t-31 58.5l107 36v286q0 50 36 78t96 27v-346l28 10q29 10 47.5 -8.5t30.5 -57.5l-106 -37v-134z" />
    <glyph glyph-name="lslash" unicode="&#x142;" horiz-adv-x="226" 
d="M176 700v-346l29 10q29 10 47.5 -8.5t30.5 -57.5l-107 -37v-261h-126v218l-33 -11q-29 -11 -48 7.5t-31 58.5l112 38v287q0 48 34 75.5t92 26.5z" />
    <glyph glyph-name="Nacute" unicode="&#x143;" horiz-adv-x="660" 
d="M50 594q0 21 6.5 40t19.5 34t32.5 23.5t45.5 8.5h22l302 -461v461h132v-700h-127l-301 459v-459h-132v594zM324 792q-17 -18 -42.5 -19t-49.5 13l42 70q16 28 31.5 44.5t33 21.5t39 -2t49.5 -27z" />
    <glyph glyph-name="nacute" unicode="&#x144;" horiz-adv-x="558" 
d="M179 458q8 18 24.5 31t36.5 22t41 14t39 6q38 2 75 -10.5t68 -43.5q45 -47 45 -135v-342h-128q0 17 0.5 46t0.5 63.5v71.5t-1 70t-3 59t-5 38q-8 32 -30.5 48t-48.5 16q-34 0 -53 -18.5t-19 -48.5q-12 4 -24 16.5t-18 26.5v-388h-129v518h129v-60zM273 580
q-17 -18 -42.5 -19t-49.5 13l42 70q16 28 31.5 44.5t33 21.5t39 -2t49.5 -27z" />
    <glyph glyph-name="Ncaron" unicode="&#x147;" horiz-adv-x="660" 
d="M50 594q0 21 6.5 40t19.5 34t32.5 23.5t45.5 8.5h22l302 -461v461h132v-700h-127l-301 459v-459h-132v594zM522 920l-97 -91q-20 -19 -42.5 -31t-54.5 -11h-50l-141 133h133l58 -61l60 61h134z" />
    <glyph glyph-name="ncaron" unicode="&#x148;" horiz-adv-x="558" 
d="M179 458q8 18 24.5 31t36.5 22t41 14t39 6q38 2 75 -10.5t68 -43.5q45 -47 45 -135v-342h-128q0 17 0.5 46t0.5 63.5v71.5t-1 70t-3 59t-5 38q-8 32 -30.5 48t-48.5 16q-34 0 -53 -18.5t-19 -48.5q-12 4 -24 16.5t-18 26.5v-388h-129v518h129v-60zM471 708l-97 -91
q-20 -19 -42.5 -31t-54.5 -11h-50l-141 133h133l58 -61l60 61h134z" />
    <glyph glyph-name="Obreve" unicode="&#x14e;" horiz-adv-x="771" 
d="M387 713q148 0 253 -107q106 -106 106 -260q0 -153 -104 -257q-105 -105 -254 -105q-157 0 -260 108q-103 107 -103 257q0 15 1.5 32.5t4.5 36.5t8 36.5t13 32.5q16 32 45 52t61.5 27t65 1.5t56.5 -22.5t35 -46.5t0 -69.5q-19 23 -46.5 29t-52.5 -6t-42 -42t-15 -79
q4 -104 82 -167q64 -53 147 -53q93 0 159 68q66 69 66 168t-66 168q-68 68 -162 68q-44 0 -80 -13q-18 16 -42.5 25t-52 10t-55 -6t-51.5 -22q42 52 101 87q85 49 182 49zM523 924q-2 -27 -13.5 -50t-30 -40.5t-43 -27t-51.5 -9.5t-51.5 9.5t-43 27t-30 40.5t-13.5 50h79
q6 -26 22.5 -38.5t35.5 -12t35 13.5t22 37h82z" />
    <glyph glyph-name="obreve" unicode="&#x14f;" horiz-adv-x="606" 
d="M301 530q79 0 140.5 -38t96.5 -97t37.5 -131t-36.5 -141q-33 -57 -86 -91t-113 -42.5t-120.5 10t-108.5 66.5q-54 55 -72 127t3 144q9 29 29.5 48t46.5 28t54 8t52 -11.5t40.5 -30t19.5 -47.5q-15 11 -36 11.5t-40.5 -9t-33 -29t-13.5 -48.5q0 -50 21 -83t52.5 -49.5
t68 -16.5t68 17t52.5 50.5t21 83.5q0 39 -14 69t-37.5 49.5t-54.5 27t-66 0.5q-15 18 -36.5 28.5t-46.5 14t-50 -1t-47 -17.5q40 48 93 74.5t116 26.5zM441 712q-2 -27 -13.5 -50t-30 -40.5t-43 -27t-51.5 -9.5t-51.5 9.5t-43 27t-30 40.5t-13.5 50h79q6 -26 22.5 -38.5
t35.5 -12t35 13.5t22 37h82z" />
    <glyph glyph-name="Ohungarumlaut" unicode="&#x150;" horiz-adv-x="771" 
d="M387 713q148 0 253 -107q106 -106 106 -260q0 -153 -104 -257q-105 -105 -254 -105q-157 0 -260 108q-103 107 -103 257q0 15 1.5 32.5t4.5 36.5t8 36.5t13 32.5q16 32 45 52t61.5 27t65 1.5t56.5 -22.5t35 -46.5t0 -69.5q-19 23 -46.5 29t-52.5 -6t-42 -42t-15 -79
q4 -104 82 -167q64 -53 147 -53q93 0 159 68q66 69 66 168t-66 168q-68 68 -162 68q-44 0 -80 -13q-18 16 -42.5 25t-52 10t-55 -6t-51.5 -22q42 52 101 87q85 49 182 49zM318 830q-17 -18 -42.5 -19t-49.5 13l42 70q16 28 31.5 44.5t33 21.5t39 -2t49.5 -27zM498 830
q-17 -18 -42.5 -19t-49.5 13l42 70q16 28 31.5 44.5t33 21.5t39 -2t49.5 -27z" />
    <glyph glyph-name="ohungarumlaut" unicode="&#x151;" horiz-adv-x="606" 
d="M301 530q79 0 140.5 -38t96.5 -97t37.5 -131t-36.5 -141q-33 -57 -86 -91t-113 -42.5t-120.5 10t-108.5 66.5q-54 55 -72 127t3 144q9 29 29.5 48t46.5 28t54 8t52 -11.5t40.5 -30t19.5 -47.5q-15 11 -36 11.5t-40.5 -9t-33 -29t-13.5 -48.5q0 -50 21 -83t52.5 -49.5
t68 -16.5t68 17t52.5 50.5t21 83.5q0 39 -14 69t-37.5 49.5t-54.5 27t-66 0.5q-15 18 -36.5 28.5t-46.5 14t-50 -1t-47 -17.5q40 48 93 74.5t116 26.5zM226 580q-17 -18 -42.5 -19t-49.5 13l42 70q16 28 31.5 44.5t33 21.5t39 -2t49.5 -27zM406 580q-17 -18 -42.5 -19
t-49.5 13l42 70q16 28 31.5 44.5t33 21.5t39 -2t49.5 -27z" />
    <glyph glyph-name="OE" unicode="&#x152;" horiz-adv-x="1078" 
d="M390 717q140 0 241 -94q12 37 41 56.5t68 19.5h288v-130h-271v-155h271q-1 -24 -7 -47t-19 -41t-33.5 -29.5t-51.5 -11.5h-160v-155h271v-131h-403v68q-98 -85 -234 -85q-158 0 -261 109q-105 108 -105 259q0 15 1.5 33t5 37t8.5 36.5t13 32.5q16 33 45 53t62 27
t65.5 1.5t56.5 -23t35.5 -46.5t0.5 -70q-20 23 -47.5 29t-53 -6t-42.5 -42.5t-15 -79.5q6 -107 83 -169q64 -52 148 -52q94 0 161 68q66 69 66 169q0 101 -67 169q-66 69 -163 69q-44 0 -80 -13q-18 16 -43 25t-52.5 10t-55.5 -6t-52 -22q41 52 102 88q85 49 183 49z" />
    <glyph glyph-name="oe" unicode="&#x153;" horiz-adv-x="992" 
d="M302 544q66 0 120.5 -26.5t91.5 -71.5q4 5 8 9.5t9 9.5q40 43 93.5 61t109.5 18q62 0 107.5 -21t73 -53.5t37 -72.5t-1 -77t-41.5 -66.5t-84 -42.5q-54 -14 -98.5 -10t-73.5 21.5t-39 47t5 66.5q16 -13 34.5 -19.5t38.5 -8.5t40.5 -1.5t38.5 2.5q32 3 48.5 14t20.5 25.5
t-3 30.5t-22.5 29.5t-38 21.5t-49.5 7q-29 -2 -55 -14t-46.5 -33t-32.5 -49.5t-13 -62.5q0 -28 7.5 -55.5t22.5 -50t36.5 -38t48.5 -19.5q38 -6 77.5 6t71.5 44l105 -52q-42 -61 -97.5 -87.5t-128.5 -26.5q-72 0 -124 26.5t-86 70.5q-37 -44 -88 -68.5t-106.5 -27.5t-110 16
t-97.5 63q-27 27 -45 59.5t-27 67.5t-8.5 71.5t11.5 72.5q9 29 29.5 48t46.5 28t54.5 8t52.5 -11t40.5 -29.5t19.5 -47.5q-16 10 -37 11t-40 -8.5t-32.5 -29t-13.5 -49.5q0 -50 21 -83.5t52.5 -50t68 -16t68 17.5t52.5 50.5t21 83.5q0 39 -14 69.5t-37.5 50t-55 27
t-66.5 0.5q-14 18 -35.5 28.5t-46.5 14t-50.5 -1t-47.5 -17.5q40 48 93.5 74.5t116.5 26.5z" />
    <glyph glyph-name="Racute" unicode="&#x154;" horiz-adv-x="614" 
d="M161 700h153q73 0 122 -30t75 -76.5t29.5 -103t-12.5 -109.5t-51.5 -96t-87.5 -63l175 -222h-163l-194 246q-22 28 -19.5 62t19.5 59q5 -11 19 -17t31.5 -9t34.5 -3t29 2q27 5 46.5 24t29 44.5t9.5 54t-11.5 52.5t-36 39.5t-62.5 15.5h-113v-570h-133v577q0 55 25 89
t86 34zM301 792q-17 -18 -42.5 -19t-49.5 13l42 70q16 28 31.5 44.5t33 21.5t39 -2t49.5 -27z" />
    <glyph glyph-name="racute" unicode="&#x155;" horiz-adv-x="426" 
d="M50 520h112v-66q17 35 43.5 55.5t58.5 22.5q42 3 68 -15.5t36.5 -45t5.5 -54t-27 -43.5q-9 25 -34.5 32.5t-53.5 -2t-50.5 -35.5t-26.5 -68q-2 -24 -2 -47.5v-43.5v-210h-130v520zM207 580q-17 -18 -42.5 -19t-49.5 13l42 70q16 28 31.5 44.5t33 21.5t39 -2t49.5 -27z
" />
    <glyph glyph-name="Rcaron" unicode="&#x158;" horiz-adv-x="614" 
d="M161 700h153q73 0 122 -30t75 -76.5t29.5 -103t-12.5 -109.5t-51.5 -96t-87.5 -63l175 -222h-163l-194 246q-22 28 -19.5 62t19.5 59q5 -11 19 -17t31.5 -9t34.5 -3t29 2q27 5 46.5 24t29 44.5t9.5 54t-11.5 52.5t-36 39.5t-62.5 15.5h-113v-570h-133v577q0 55 25 89
t86 34zM499 920l-97 -91q-20 -19 -42.5 -31t-54.5 -11h-50l-141 133h133l58 -61l60 61h134z" />
    <glyph glyph-name="rcaron" unicode="&#x159;" horiz-adv-x="426" 
d="M50 520h112v-66q17 35 43.5 55.5t58.5 22.5q42 3 68 -15.5t36.5 -45t5.5 -54t-27 -43.5q-9 25 -34.5 32.5t-53.5 -2t-50.5 -35.5t-26.5 -68q-2 -24 -2 -47.5v-43.5v-210h-130v520zM406 708l-97 -91q-20 -19 -42.5 -31t-54.5 -11h-50l-141 133h133l58 -61l60 61h134z" />
    <glyph glyph-name="Sacute" unicode="&#x15a;" horiz-adv-x="547" 
d="M445 504q-19 37 -45 57t-52.5 27t-51 2t-40.5 -17t-20 -29t10 -35q19 -24 54 -52.5t72.5 -60.5t71.5 -66t50 -69q20 -45 17 -94.5t-28.5 -90.5t-72.5 -67.5t-114 -26.5q-40 0 -78.5 12.5t-72.5 35t-62.5 53.5t-47.5 69l105 77q9 -19 23 -37t31 -33.5t35.5 -27t35.5 -16.5
q30 -8 56.5 -2t41.5 22.5t15 41t-23 53.5q-25 31 -67 64t-83 70t-71 80t-30 94q0 39 16 72t42.5 56t61.5 36t73 13q48 0 89.5 -13.5t67.5 -38.5q19 -17 29 -38t10 -42.5t-11.5 -42t-36.5 -36.5zM268 792q-17 -18 -42.5 -19t-49.5 13l42 70q16 28 31.5 44.5t33 21.5t39 -2
t49.5 -27z" />
    <glyph glyph-name="sacute" unicode="&#x15b;" horiz-adv-x="425" 
d="M307 359q-8 19 -22 30.5t-30.5 17.5t-32 6.5t-25.5 -3.5q-18 -6 -23.5 -20.5t5.5 -27.5q9 -10 28.5 -19.5t43.5 -21t49.5 -26t46.5 -34.5t34.5 -47t13.5 -64q0 -43 -19 -75.5t-50.5 -52.5t-71 -27.5t-80 -1.5t-78.5 27.5t-66 58.5l80 86q25 -30 52.5 -43t51 -14.5t39.5 7
t19.5 23t-8.5 32t-46 34.5q-32 16 -62.5 33t-54 38t-38 47t-14.5 61q0 36 15 64t40 47t57 28t66 8q58 -3 88.5 -25.5t38 -51t-5 -55.5t-41.5 -39zM207 580q-17 -18 -42.5 -19t-49.5 13l42 70q16 28 31.5 44.5t33 21.5t39 -2t49.5 -27z" />
    <glyph glyph-name="Scedilla" unicode="&#x15e;" horiz-adv-x="547" 
d="M445 504q-19 37 -45 57t-52.5 27t-51 2t-40.5 -17t-20 -29t10 -35q19 -24 54 -52.5t72.5 -60.5t71.5 -66t50 -69q19 -42 17.5 -87.5t-22 -85t-59.5 -68t-95 -35.5q23 -15 31 -39t0 -47.5t-32 -41.5t-64 -22q-34 -3 -57 5t-36 22t-15 31t6 32q36 -26 65.5 -23.5t43 16
t6 29.5t-43.5 17l-26 -1l6 31q-58 18 -106.5 59.5t-77.5 98.5l105 77q9 -19 23 -37t31 -33.5t35.5 -27t35.5 -16.5q30 -8 56.5 -2t41.5 22.5t15 41t-23 53.5q-25 31 -67 64t-83 70t-71 80t-30 94q0 39 16 72t42.5 56t61.5 36t73 13q48 0 89.5 -13.5t67.5 -38.5
q19 -17 29 -38t10 -42.5t-11.5 -42t-36.5 -36.5z" />
    <glyph glyph-name="scedilla" unicode="&#x15f;" horiz-adv-x="425" 
d="M307 359q-8 19 -22 30.5t-30.5 17.5t-32 6.5t-25.5 -3.5q-18 -6 -23.5 -20.5t5.5 -27.5q9 -10 28.5 -19.5t43.5 -21t49.5 -26t46.5 -34.5t34.5 -47t13.5 -64q0 -33 -11 -59.5t-30.5 -46t-45.5 -32.5t-55 -18l4 -1q31 -12 43.5 -36.5t6.5 -50t-30.5 -46.5t-67.5 -25
q-34 -3 -57 5t-36 22t-15 31t6 32q36 -26 65.5 -23.5t43 16t6 29.5t-43.5 17l-26 -1l6 33q-36 8 -69 28.5t-59 54.5l80 86q25 -30 52.5 -43t51 -14.5t39.5 7t19.5 23t-8.5 32t-46 34.5q-32 16 -62.5 33t-54 38t-38 47t-14.5 61q0 36 15 64t40 47t57 28t66 8
q58 -3 88.5 -25.5t38 -51t-5 -55.5t-41.5 -39z" />
    <glyph glyph-name="Scaron" unicode="&#x160;" horiz-adv-x="578" 
d="M461 499q-19 38 -45 58t-53 26.5t-51 2t-40 -16.5t-20 -29.5t10 -35.5q19 -24 54 -52.5t73 -60.5t71.5 -66t49.5 -69q21 -46 17.5 -95.5t-29 -90.5t-72.5 -67.5t-114 -26.5q-40 0 -78.5 12.5t-73 35t-63 53.5t-47.5 69l105 77q9 -18 23.5 -36.5t31.5 -34t35.5 -27
t35.5 -15.5q30 -9 56.5 -3t41.5 22.5t15 41.5t-23 54q-25 31 -67 64t-83 70t-71 80t-30 95q0 39 15.5 72t42 56t61.5 36t74 13q48 0 90 -13.5t68 -37.5q19 -18 29 -39t9.5 -42.5t-12 -42t-36.5 -37.5zM260 892l61 -62l59 62h134l-142 -135h-51q-33 -1 -56 11.5t-43 31.5
l-97 92h135z" />
    <glyph glyph-name="scaron" unicode="&#x161;" horiz-adv-x="450" 
d="M165 691l61 -62l59 62h135l-143 -135h-51q-33 -1 -55.5 11.5t-42.5 31.5l-98 92h135zM316 359q-8 19 -22 30.5t-30.5 17.5t-32 6.5t-25.5 -3.5q-18 -6 -23.5 -20.5t5.5 -27.5q9 -10 28.5 -19.5t43.5 -21t49.5 -26t46.5 -34.5t34.5 -47t13.5 -64q0 -43 -19 -75.5
t-50.5 -52.5t-71 -27.5t-80 -1.5t-78.5 27.5t-66 58.5l80 86q25 -30 52.5 -43t51 -14.5t39.5 7t19.5 23t-8.5 32t-46 34.5q-32 16 -62.5 33t-54 38t-38 47t-14.5 61q0 36 15 64t40 47t57 28t66 8q58 -3 88.5 -25.5t38 -51t-5 -55.5t-41.5 -39z" />
    <glyph glyph-name="Tcaron" unicode="&#x164;" horiz-adv-x="569" 
d="M50 700h479q0 -31 -9 -55.5t-24 -41.5t-34.5 -26t-41.5 -9h-80v-568h-135v568h-155v132zM477 920l-97 -91q-20 -19 -42.5 -31t-54.5 -11h-50l-141 133h133l58 -61l60 61h134z" />
    <glyph glyph-name="tcaron" unicode="&#x165;" horiz-adv-x="545" 
d="M104 598q0 28 10.5 47.5t28 31.5t40.5 17.5t47 5.5v-186h116q0 -20 -3.5 -39t-13.5 -34.5t-27 -25t-44 -9.5h-28v-283q0 -16 12 -22.5t28 -6t32 7.5t23 19q13 -33 1.5 -58.5t-36 -41t-57 -20t-61 5t-48.5 34t-20 66.5v299h-64v108h64v84zM416 681q-25 -12 -39 -38.5
t-3 -57.5q6 -17 17.5 -30t21 -29.5t12.5 -40t-10 -60.5q29 11 54 40t40 64q12 27 16.5 55t-2.5 51q-5 17 -16.5 29t-26.5 18.5t-32 6t-32 -7.5z" />
    <glyph glyph-name="Ubreve" unicode="&#x16c;" horiz-adv-x="598" 
d="M50 700h133v-436q0 -33 5.5 -60.5t18.5 -47t34.5 -30.5t53.5 -11q65 0 93 40t28 112v312q0 27 6 50t21 39t40.5 24.5t64.5 7.5v-414q0 -65 -11 -120t-39.5 -94.5t-77.5 -61.5t-124 -22t-123 22t-75.5 61.5t-37.5 94t-10 120.5v414zM437 924q-2 -27 -13.5 -50t-30 -40.5
t-43 -27t-51.5 -9.5t-51.5 9.5t-43 27t-30 40.5t-13.5 50h79q6 -26 22.5 -38.5t35.5 -12t35 13.5t22 37h82z" />
    <glyph glyph-name="ubreve" unicode="&#x16d;" horiz-adv-x="554" 
d="M181 517v-248q0 -18 0.5 -38.5t4 -40t12 -36.5t25.5 -29q11 -8 25.5 -12t29.5 -4t29 4t26 12q17 11 25.5 27.5t12 35.5t3.5 39v38v149q-1 54 35 80.5t94 24.5v-220q1 -68 -4.5 -113.5t-16.5 -71.5q-29 -67 -82 -96t-124 -29q-77 0 -132 34t-79 109q-7 23 -11 62.5
t-4 86.5v236h131zM415 712q-2 -27 -13.5 -50t-30 -40.5t-43 -27t-51.5 -9.5t-51.5 9.5t-43 27t-30 40.5t-13.5 50h79q6 -26 22.5 -38.5t35.5 -12t35 13.5t22 37h82z" />
    <glyph glyph-name="Uring" unicode="&#x16e;" horiz-adv-x="598" 
d="M50 700h133v-436q0 -33 5.5 -60.5t18.5 -47t34.5 -30.5t53.5 -11q65 0 93 40t28 112v312q0 27 6 50t21 39t40.5 24.5t64.5 7.5v-414q0 -65 -11 -120t-39.5 -94.5t-77.5 -61.5t-124 -22t-123 22t-75.5 61.5t-37.5 94t-10 120.5v414zM292 949q42 0 71 -29t29 -71t-29 -70.5
t-71 -28.5t-70.5 28.5t-28.5 70.5t28.5 71t70.5 29zM292 888q-16 0 -27.5 -11t-11.5 -28t11.5 -28t27.5 -11q17 0 28.5 11t11.5 28t-11.5 28t-28.5 11z" />
    <glyph glyph-name="uring" unicode="&#x16f;" horiz-adv-x="554" 
d="M181 517v-248q0 -18 0.5 -38.5t4 -40t12 -36.5t25.5 -29q11 -8 25.5 -12t29.5 -4t29 4t26 12q17 11 25.5 27.5t12 35.5t3.5 39v38v149q-1 54 35 80.5t94 24.5v-220q1 -68 -4.5 -113.5t-16.5 -71.5q-29 -67 -82 -96t-124 -29q-77 0 -132 34t-79 109q-7 23 -11 62.5
t-4 86.5v236h131zM270 737q42 0 71 -29t29 -71t-29 -70.5t-71 -28.5t-70.5 28.5t-28.5 70.5t28.5 71t70.5 29zM270 676q-16 0 -27.5 -11t-11.5 -28t11.5 -28t27.5 -11q17 0 28.5 11t11.5 28t-11.5 28t-28.5 11z" />
    <glyph glyph-name="Uhungarumlaut" unicode="&#x170;" horiz-adv-x="598" 
d="M50 700h133v-436q0 -33 5.5 -60.5t18.5 -47t34.5 -30.5t53.5 -11q65 0 93 40t28 112v312q0 27 6 50t21 39t40.5 24.5t64.5 7.5v-414q0 -65 -11 -120t-39.5 -94.5t-77.5 -61.5t-124 -22t-123 22t-75.5 61.5t-37.5 94t-10 120.5v414zM256 830q-17 -18 -42.5 -19t-49.5 13
l42 70q16 28 31.5 44.5t33 21.5t39 -2t49.5 -27zM436 830q-17 -18 -42.5 -19t-49.5 13l42 70q16 28 31.5 44.5t33 21.5t39 -2t49.5 -27z" />
    <glyph glyph-name="uhungarumlaut" unicode="&#x171;" horiz-adv-x="554" 
d="M181 517v-248q0 -18 0.5 -38.5t4 -40t12 -36.5t25.5 -29q11 -8 25.5 -12t29.5 -4t29 4t26 12q17 11 25.5 27.5t12 35.5t3.5 39v38v149q-1 54 35 80.5t94 24.5v-220q1 -68 -4.5 -113.5t-16.5 -71.5q-29 -67 -82 -96t-124 -29q-77 0 -132 34t-79 109q-7 23 -11 62.5
t-4 86.5v236h131zM231 580q-17 -18 -42.5 -19t-49.5 13l42 70q16 28 31.5 44.5t33 21.5t39 -2t49.5 -27zM411 580q-17 -18 -42.5 -19t-49.5 13l42 70q16 28 31.5 44.5t33 21.5t39 -2t49.5 -27z" />
    <glyph glyph-name="Uogonek" unicode="&#x172;" horiz-adv-x="598" 
d="M50 700h133v-436q0 -33 5.5 -60.5t18.5 -47t34.5 -30.5t53.5 -11q65 0 93 40t28 112v312q0 27 6 50t21 39t40.5 24.5t64.5 7.5v-414q0 -60 -9.5 -111.5t-33.5 -90.5t-64.5 -63.5t-102.5 -30.5q-13 -9 -28.5 -19t-28 -20.5t-20 -22.5t-4.5 -24q3 -14 18.5 -19.5t32.5 -7.5
q20 -3 45 -1q1 -5 2 -11q1 -5 1.5 -11.5t1.5 -13.5q2 -16 4 -35q-44 -5 -86 -2t-71.5 18t-39.5 42t10 70q8 17 21 33t27 29q-53 10 -86.5 35.5t-52.5 63t-26.5 86.5t-7.5 106v414z" />
    <glyph glyph-name="uogonek" unicode="&#x173;" horiz-adv-x="554" 
d="M181 517v-248q0 -18 0.5 -38.5t4 -40t12 -36.5t25.5 -29q11 -8 25.5 -12t29.5 -4t29 4t26 12q17 11 25.5 27.5t12 35.5t3.5 39v38v149q-1 54 35 80.5t94 24.5v-220q1 -68 -4.5 -113.5t-16.5 -71.5q-24 -57 -65.5 -85.5t-97.5 -36.5q-13 -9 -29 -19t-29.5 -21t-21 -23
t-4.5 -25q3 -14 18.5 -19.5t32.5 -7.5q20 -3 45 -1q1 -5 2 -11q1 -5 1.5 -11.5t1.5 -13.5q2 -16 4 -35q-44 -5 -86 -2t-71.5 18t-39.5 42t10 70q8 19 22.5 35t28.5 30q-50 12 -85.5 44.5t-53.5 89.5q-7 23 -11 62.5t-4 86.5v236h131z" />
    <glyph glyph-name="Wcircumflex" unicode="&#x174;" horiz-adv-x="880" 
d="M35 698h131l101 -446l91 325q17 59 50.5 92.5t93.5 28.5l127 -446l73 326q15 65 52 97t106 23l-159 -698h-127l-128 451l-126 -451h-126zM247 791l97 91q20 19 42.5 31t54.5 11h50l141 -133h-133l-58 61l-60 -61h-134z" />
    <glyph glyph-name="wcircumflex" unicode="&#x175;" horiz-adv-x="823" 
d="M30 517h126l105 -295l85 222q9 24 20.5 38.5t25 22.5t29 10.5t31.5 1.5l110 -291l79 221q11 30 28.5 47t38 24.5t42.5 6.5t43 -8l-187 -518h-83l-111 295l-114 -295h-82zM219 579l97 91q20 19 42.5 31t54.5 11h50l141 -133h-133l-58 61l-60 -61h-134z" />
    <glyph glyph-name="Ycircumflex" unicode="&#x176;" horiz-adv-x="560" 
d="M248 -9q-49 0 -90 12.5t-68 38t-36.5 64t5.5 89.5q12 -22 31.5 -38.5t43.5 -27t50 -15.5t51 -4q71 2 109 36.5t38 106.5q-7 -18 -24 -32t-38 -23.5t-43 -14.5t-40 -6q-38 -2 -74.5 10t-66.5 43q-44 44 -44 133v337h126q0 -17 -0.5 -45.5t-0.5 -62.5v-70.5t1 -69t3 -58
t5 -37.5q8 -31 29.5 -47.5t47.5 -15.5q17 0 32 5.5t26.5 15t18 22t6.5 27.5q14 -4 22.5 -13t13.5 -22v371h128v-453q0 -117 -66.5 -186.5t-195.5 -69.5zM87 791l97 91q20 19 42.5 31t54.5 11h50l141 -133h-133l-58 61l-60 -61h-134z" />
    <glyph glyph-name="ycircumflex" unicode="&#x177;" horiz-adv-x="547" 
d="M234 -194q-49 0 -90.5 13t-68.5 38.5t-36.5 64.5t5.5 90q12 -22 31.5 -38.5t43.5 -27.5t50 -16.5t51 -4.5q72 3 110 37.5t38 107.5q-7 -19 -24 -33t-38 -23.5t-43 -14.5t-40 -6q-38 -2 -75 10t-67 43q-45 46 -45 134v339h127q0 -17 -0.5 -45.5t-0.5 -63v-71t1 -69.5
t3 -58.5t5 -37.5q8 -32 30 -48t48 -16q17 0 32 5.5t26.5 15.5t18.5 22.5t7 27.5q25 -7 35 -35v373h129v-456q0 -118 -66.5 -187.5t-196.5 -69.5zM81 579l97 91q20 19 42.5 31t54.5 11h50l141 -133h-133l-58 61l-60 -61h-134z" />
    <glyph glyph-name="Ydieresis" unicode="&#x178;" horiz-adv-x="573" 
d="M256 -19q-50 0 -91.5 13t-69 39t-37 65t5.5 91q12 -22 32 -39t44 -28t50.5 -16t51.5 -4q73 2 111.5 37t38.5 109q-7 -19 -24 -33t-38.5 -23.5t-44 -15t-40.5 -6.5q-38 -2 -75.5 10.5t-68.5 43.5q-45 46 -45 136v342h128v-46t-0.5 -63.5t0 -72t1.5 -70.5t3 -59t5 -38
q8 -32 30 -48t48 -16q17 0 32.5 5.5t27.5 15.5t18.5 23t6.5 28q14 -4 22.5 -13.5t13.5 -21.5v376h130v-461q0 -59 -17 -107t-50.5 -82t-83 -52.5t-115.5 -18.5zM394 876q29 0 49 -20t20 -49t-20 -49t-49 -20t-49 20t-20 49t20 49t49 20zM183 876q29 0 49 -20t20 -49t-20 -49
t-49 -20t-49 20t-20 49t20 49t49 20z" />
    <glyph glyph-name="Zacute" unicode="&#x179;" horiz-adv-x="608" 
d="M206 700h352l-287 -571h270v-129h-494l292 568h-122q-22 0 -40.5 -0.5t-34.5 -5t-29.5 -14.5t-25.5 -30q-27 40 -26.5 73.5t20 57.5t53.5 37.5t72 13.5zM298 792q-17 -18 -42.5 -19t-49.5 13l42 70q16 28 31.5 44.5t33 21.5t39 -2t49.5 -27z" />
    <glyph glyph-name="zacute" unicode="&#x17a;" horiz-adv-x="533" 
d="M178 518h305l-233 -408h219v-110h-419l233 408h-82q-15 0 -32.5 -1.5t-33 -7t-27 -15t-14.5 -25.5q-20 18 -27.5 45.5t0.5 52.5t35 43t76 18zM261 580q-17 -18 -42.5 -19t-49.5 13l42 70q16 28 31.5 44.5t33 21.5t39 -2t49.5 -27z" />
    <glyph glyph-name="Zdotaccent" unicode="&#x17b;" horiz-adv-x="608" 
d="M206 700h352l-287 -571h270v-129h-494l292 568h-122q-22 0 -40.5 -0.5t-34.5 -5t-29.5 -14.5t-25.5 -30q-27 40 -26.5 73.5t20 57.5t53.5 37.5t72 13.5zM303 928q31 0 52 -22q22 -21 22 -52t-22 -52q-21 -22 -52 -22q-30 0 -52 22q-21 21 -21 52t21 52q22 22 52 22z" />
    <glyph glyph-name="zdotaccent" unicode="&#x17c;" horiz-adv-x="533" 
d="M178 518h305l-233 -408h219v-110h-419l233 408h-82q-15 0 -32.5 -1.5t-33 -7t-27 -15t-14.5 -25.5q-20 18 -27.5 45.5t0.5 52.5t35 43t76 18zM266 716q31 0 52 -22q22 -21 22 -52t-22 -52q-21 -22 -52 -22q-30 0 -52 22q-21 21 -21 52t21 52q22 22 52 22z" />
    <glyph glyph-name="Zcaron" unicode="&#x17d;" horiz-adv-x="584" 
d="M199 699h353l-288 -571h270v-129h-494l292 569h-122q-22 0 -40.5 -0.5t-34 -5t-29.5 -15t-26 -30.5q-27 40 -26.5 73.5t20 57.5t53.5 37.5t72 13.5zM259 892l60 -62l59 62h135l-143 -135h-51q-32 -1 -55 11.5t-43 31.5l-97 92h135z" />
    <glyph glyph-name="zcaron" unicode="&#x17e;" horiz-adv-x="524" 
d="M162 519h305l-233 -408h220v-111h-421l234 409h-83q-14 0 -31.5 -1.5t-33.5 -7t-27.5 -15t-14.5 -25.5q-20 18 -27.5 45.5t1 52.5t35.5 43t76 18zM229 691l61 -62l59 62h135l-143 -135h-51q-33 -1 -55.5 11.5t-42.5 31.5l-98 92h135z" />
    <glyph glyph-name="florin" unicode="&#x192;" horiz-adv-x="565" 
d="M520 686l-16 -112q-39 27 -66 27q-19 0 -31 -16q-11 -16 -19 -72l-10 -71h105l-15 -110h-106l-51 -355q-5 -35 -12 -60.5t-16 -42.5q-18 -34 -48 -52q-29 -19 -64 -19q-28 0 -56 9q-29 9 -70 34l16 113q44 -34 75 -34q19 0 29 13q11 14 17 62l49 332h-105l16 110h105
l16 117q12 88 45 127q33 38 95 38q15 0 29 -1.5t26 -5.5q13 -4 28.5 -12t33.5 -19z" />
    <glyph glyph-name="circumflex" unicode="&#x2c6;" horiz-adv-x="485" 
d="M50 579l97 91q20 19 42.5 31t54.5 11h50l141 -133h-133l-58 61l-60 -61h-134z" />
    <glyph glyph-name="caron" unicode="&#x2c7;" horiz-adv-x="478" 
d="M434 708l-97 -91q-20 -19 -42.5 -31t-54.5 -11h-50l-141 133h133l58 -61l60 61h134z" />
    <glyph glyph-name="breve" unicode="&#x2d8;" horiz-adv-x="391" 
d="M336 712q-2 -27 -13.5 -50t-30 -40.5t-43 -27t-51.5 -9.5t-51.5 9.5t-43 27t-30 40.5t-13.5 50h79q6 -26 22.5 -38.5t35.5 -12t35 13.5t22 37h82z" />
    <glyph glyph-name="dotaccent" unicode="&#x2d9;" horiz-adv-x="317" 
d="M153 716q31 0 52 -22q22 -21 22 -52t-22 -52q-21 -22 -52 -22q-30 0 -52 22q-21 21 -21 52t21 52q22 22 52 22z" />
    <glyph glyph-name="ring" unicode="&#x2da;" horiz-adv-x="286" 
d="M150 737q42 0 71 -29t29 -71t-29 -70.5t-71 -28.5t-70.5 28.5t-28.5 70.5t28.5 71t70.5 29zM150 676q-16 0 -27.5 -11t-11.5 -28t11.5 -28t27.5 -11q17 0 28.5 11t11.5 28t-11.5 28t-28.5 11z" />
    <glyph glyph-name="ogonek" unicode="&#x2db;" horiz-adv-x="280" 
d="M135 28l104 -1q-11 -7 -31 -20t-38.5 -30t-31.5 -36t-8 -37q3 -14 18.5 -19.5t32.5 -7.5q20 -3 45 -1q1 -5 2 -11q1 -5 1.5 -11.5t1.5 -13.5q2 -16 4 -35q-44 -5 -86 -2t-71.5 18t-39.5 42t10 70q8 17 21 32.5t26 28t24 21.5t16 13z" />
    <glyph glyph-name="tilde" unicode="&#x2dc;" horiz-adv-x="443" 
d="M71 595q-11 9 -17.5 21t-7 25.5t6 27t22.5 25.5q19 13 40.5 16.5t43.5 0.5t43 -11t41 -18q14 -7 33 -12.5t37 -5.5t33.5 7.5t22.5 27.5q9 -5 16 -15t9 -23.5t-3.5 -28.5t-21.5 -28q-25 -22 -56.5 -21t-64 11.5t-61.5 22.5t-48 12q-20 1 -38.5 -5.5t-29.5 -28.5z" />
    <glyph glyph-name="hungarumlaut" unicode="&#x2dd;" horiz-adv-x="462" 
d="M143 580q-17 -18 -42.5 -19t-49.5 13l42 70q16 28 31.5 44.5t33 21.5t39 -2t49.5 -27zM323 580q-17 -18 -42.5 -19t-49.5 13l42 70q16 28 31.5 44.5t33 21.5t39 -2t49.5 -27z" />
    <glyph glyph-name="Wgrave" unicode="&#x1e80;" horiz-adv-x="880" 
d="M35 698h131l101 -446l91 325q17 59 50.5 92.5t93.5 28.5l127 -446l73 326q15 65 52 97t106 23l-159 -698h-127l-128 451l-126 -451h-126zM345 894q28 20 49.5 27t39 2t32.5 -21.5t32 -44.5l36 -60q-24 -14 -49.5 -13t-42.5 19z" />
    <glyph glyph-name="wgrave" unicode="&#x1e81;" horiz-adv-x="823" 
d="M30 517h126l105 -295l85 222q9 24 20.5 38.5t25 22.5t29 10.5t31.5 1.5l110 -291l79 221q11 30 28.5 47t38 24.5t42.5 6.5t43 -8l-187 -518h-83l-111 295l-114 -295h-82zM317 682q28 20 49.5 27t39 2t32.5 -21.5t32 -44.5l36 -60q-24 -14 -49.5 -13t-42.5 19z" />
    <glyph glyph-name="Wacute" unicode="&#x1e82;" horiz-adv-x="880" 
d="M35 698h131l101 -446l91 325q17 59 50.5 92.5t93.5 28.5l127 -446l73 326q15 65 52 97t106 23l-159 -698h-127l-128 451l-126 -451h-126zM434 792q-17 -18 -42.5 -19t-49.5 13l42 70q16 28 31.5 44.5t33 21.5t39 -2t49.5 -27z" />
    <glyph glyph-name="wacute" unicode="&#x1e83;" horiz-adv-x="823" 
d="M30 517h126l105 -295l85 222q9 24 20.5 38.5t25 22.5t29 10.5t31.5 1.5l110 -291l79 221q11 30 28.5 47t38 24.5t42.5 6.5t43 -8l-187 -518h-83l-111 295l-114 -295h-82zM406 580q-17 -18 -42.5 -19t-49.5 13l42 70q16 28 31.5 44.5t33 21.5t39 -2t49.5 -27z" />
    <glyph glyph-name="Wdieresis" unicode="&#x1e84;" horiz-adv-x="880" 
d="M35 698h131l101 -446l91 325q17 59 50.5 92.5t93.5 28.5l127 -446l73 326q15 65 52 97t106 23l-159 -698h-127l-128 451l-126 -451h-126zM544 959q28 0 48 -20q20 -19 20 -48t-20 -48q-20 -20 -48 -20q-26 0 -48 20q-20 20 -20 48t20 48q22 20 48 20zM335 959
q28 0 48 -20t20 -48t-20 -48t-48 -20t-48 20t-20 48t20 48t48 20z" />
    <glyph glyph-name="wdieresis" unicode="&#x1e85;" horiz-adv-x="823" 
d="M30 517h126l105 -295l85 222q9 24 20.5 38.5t25 22.5t29 10.5t31.5 1.5l110 -291l79 221q11 30 28.5 47t38 24.5t42.5 6.5t43 -8l-187 -518h-83l-111 295l-114 -295h-82zM516 747q28 0 48 -20q20 -19 20 -48t-20 -48q-20 -20 -48 -20q-26 0 -48 20q-20 20 -20 48t20 48
q22 20 48 20zM307 747q28 0 48 -20t20 -48t-20 -48t-48 -20t-48 20t-20 48t20 48t48 20z" />
    <glyph glyph-name="endash" unicode="&#x2013;" horiz-adv-x="627" 
d="M486 339q47 0 64.5 -31t15.5 -87h-425q-47 0 -64.5 31t-15.5 87h425z" />
    <glyph glyph-name="emdash" unicode="&#x2014;" horiz-adv-x="1000" 
d="M859 339q47 0 64.5 -31t15.5 -87h-798q-47 0 -64.5 31t-15.5 87h798z" />
    <glyph glyph-name="quoteleft" unicode="&#x2018;" horiz-adv-x="337" 
d="M201 432q-15 -8 -32 -8t-32 6.5t-26.5 18.5t-16.5 29q-7 23 -2.5 50.5t16.5 55.5q15 35 40 64t53 40q-12 -38 -9.5 -61t12.5 -39.5t21.5 -29.5t17.5 -30q10 -31 -3.5 -57.5t-38.5 -38.5z" />
    <glyph glyph-name="quoteright" unicode="&#x2019;" horiz-adv-x="338" 
d="M137 681q15 7 32 7.5t32 -6t26.5 -18.5t16.5 -29q7 -23 2.5 -51t-16.5 -55q-15 -35 -40 -64t-54 -40q13 37 10 60.5t-12.5 40t-21 29.5t-17.5 30q-11 31 3 57.5t39 38.5z" />
    <glyph glyph-name="quotesinglbase" unicode="&#x201a;" horiz-adv-x="295" 
d="M115 137q15 7 32 7.5t31.5 -6t26 -18.5t16.5 -28q7 -23 2.5 -50.5t-15.5 -54.5q-16 -35 -40.5 -63.5t-52.5 -39.5q12 37 9.5 60t-12 39t-21 29t-17.5 30q-10 31 3.5 57t37.5 38z" />
    <glyph glyph-name="quotedblleft" unicode="&#x201c;" horiz-adv-x="519" 
d="M201 459q-15 -8 -32 -8t-32 6.5t-26.5 18t-16.5 28.5q-7 23 -2.5 51t15.5 56q16 35 41 64t53 40q-12 -38 -9.5 -61t12.5 -39.5t21.5 -29.5t17.5 -30q10 -32 -3.5 -58t-38.5 -38zM383 459q-15 -8 -32 -8t-32 6.5t-26.5 18t-16.5 28.5q-7 23 -2.5 51t16.5 56q15 35 40 64
t53 40q-12 -38 -9.5 -61t12.5 -39.5t21.5 -29.5t17.5 -30q10 -32 -3.5 -58t-38.5 -38z" />
    <glyph glyph-name="quotedblright" unicode="&#x201d;" horiz-adv-x="519" 
d="M318 708q15 7 32 7t32 -6t26.5 -18t16.5 -29q7 -23 2.5 -51t-16.5 -55q-15 -35 -40 -64t-53 -41q12 38 9.5 61.5t-12.5 40t-21.5 29.5t-17.5 30q-10 31 3.5 57.5t38.5 38.5zM136 708q15 7 32 7t32 -6t26.5 -18t16.5 -29q7 -23 2.5 -51t-16.5 -55q-15 -35 -40 -64t-53 -41
q12 38 9.5 61.5t-12.5 40t-21.5 29.5t-17.5 30q-10 31 3.5 57.5t38.5 38.5z" />
    <glyph glyph-name="quotedblbase" unicode="&#x201e;" horiz-adv-x="462" 
d="M105 137q15 7 32 7.5t31.5 -6t26 -18.5t16.5 -28q7 -23 2.5 -50.5t-15.5 -54.5q-16 -35 -40.5 -63.5t-52.5 -39.5q12 37 9.5 60t-12 39t-21.5 29t-17 30q-10 31 3 57t38 38zM398 92q7 -23 2.5 -50.5t-16.5 -54.5q-15 -35 -39.5 -63.5t-52.5 -39.5q12 37 9.5 60t-12 39
t-21.5 29t-17 30q-11 31 2.5 57t38.5 38q15 7 32 7.5t31.5 -6t26 -18.5t16.5 -28z" />
    <glyph glyph-name="dagger" unicode="&#x2020;" horiz-adv-x="479" 
d="M368 469q36 0 50 -24t12 -68h-159v-487q0 -12 -6.5 -22t-17 -17t-24 -10.5t-27.5 -1.5v538h-95q-36 0 -50 24t-12 68h157v178q0 12 6.5 22t17 17t24 10.5t27.5 1.5v-229h97v0z" />
    <glyph glyph-name="daggerdbl" unicode="&#x2021;" horiz-adv-x="502" 
d="M377 173q36 0 50 -24t12 -68h-159v-191q0 -12 -6.5 -22t-17 -17t-24 -10.5t-27.5 -1.5v242h-95q-36 0 -50 24t-12 68h157v204h-95q-36 0 -50 24t-12 68h157v178q0 12 6.5 22t17 17t24 10.5t27.5 1.5v-229h97q36 0 50 -24t12 -68h-159v-204h97v0z" />
    <glyph glyph-name="bullet" unicode="&#x2022;" horiz-adv-x="514" 
d="M256 500q49 0 84.5 -26t51 -64.5t9 -81.5t-40.5 -77q-35 -35 -78.5 -41.5t-81.5 9.5t-64 51t-26 84q0 30 11.5 57t31 46.5t46.5 31t57 11.5z" />
    <glyph glyph-name="ellipsis" unicode="&#x2026;" horiz-adv-x="889" 
d="M445 138q37 0 55 -23t18 -51t-18.5 -51t-54.5 -23t-54.5 23t-18.5 51t18 51t55 23zM124 138q37 0 55 -23t18 -51t-18.5 -51t-54.5 -23t-54.5 23t-18.5 51t18 51t55 23zM766 138q36 0 54.5 -23t18.5 -51t-18.5 -51t-54.5 -23t-54.5 23t-18.5 51t18 51t55 23z" />
    <glyph glyph-name="perthousand" unicode="&#x2030;" horiz-adv-x="1279" 
d="M609 680q23 37 59.5 47t80.5 3l-469 -721q-12 -19 -28 -29t-34 -14.5t-37.5 -5t-39.5 0.5zM1064 290q34 0 64 -13t52.5 -35.5t35.5 -52.5t13 -64t-13 -64t-35.5 -52t-52.5 -35t-64 -13t-63.5 13t-52 35t-35.5 52t-13 64t13 64t35.5 52.5t52 35.5t63.5 13zM1064 41
q18 0 33 6.5t26.5 18t18 27t6.5 32.5t-6.5 32.5t-18 27t-26.5 18t-33 6.5q-35 0 -59 -24.5t-24 -59.5t24 -59.5t59 -24.5zM379 566q0 -34 -13 -64t-35.5 -52.5t-52.5 -35.5t-64 -13t-64 13t-52 35.5t-35 52.5t-13 64t13 64t35 52t52 35t64 13t64 -13t52.5 -35t35.5 -52
t13 -64zM130 566q0 -35 24.5 -59.5t59.5 -24.5t59.5 24.5t24.5 59.5t-24.5 59t-59.5 24t-59.5 -24t-24.5 -59zM676 290q34 0 64 -13t52 -35.5t35 -52.5t13 -64t-13 -64t-35 -52t-52 -35t-64 -13t-64 13t-52.5 35t-35.5 52t-13 64t13 64t35.5 52.5t52.5 35.5t64 13zM676 41
q35 0 59 24.5t24 59.5t-24 59.5t-59 24.5t-59.5 -24.5t-24.5 -59.5t24.5 -59.5t59.5 -24.5z" />
    <glyph glyph-name="guilsinglleft" unicode="&#x2039;" horiz-adv-x="348" 
d="M137 456q11 32 49.5 51t91.5 10l-87 -261l87 -261q-53 -8 -91.5 10.5t-49.5 50.5l-67 200z" />
    <glyph glyph-name="guilsinglright" unicode="&#x203a;" horiz-adv-x="349" 
d="M279 260l-68 -201q-11 -32 -49 -51t-92 -10l87 261v1l-87 261q54 9 92 -10t49 -51z" />
    <glyph glyph-name="fraction" unicode="&#x2044;" horiz-adv-x="482" 
d="M40 51l293 787q13 35 42.5 43.5t66.5 5.5l-296 -793q-6 -16 -16.5 -25.5t-25 -14t-31 -5t-33.5 1.5z" />
    <glyph glyph-name="Euro" unicode="&#x20ac;" horiz-adv-x="617" 
d="M256 242q20 -44 54.5 -73.5t76.5 -44t88.5 -13t91.5 19.5v-133q-39 -11 -81.5 -12.5t-85 5.5t-82 23t-72.5 39q-95 67 -129 189h-67l18 77h36v60h-54l19 77h49q22 74 69.5 129t109.5 86.5t132 39t138 -12.5l-29 -124q-42 13 -84 11t-79.5 -17.5t-68 -44t-49.5 -67.5h253
q-5 -35 -23.5 -56t-54.5 -21h-197v-60h243q-15 -79 -76 -77h-146z" />
    <glyph glyph-name="trademark" unicode="&#x2122;" horiz-adv-x="810" 
d="M398 376v324h98l58 -221l57 221h99v-324h-60v256l-65 -256h-63l-64 256v-256h-60zM196 376v269h-96v55h257v-55h-96v-269h-65z" />
    <glyph glyph-name="minus" unicode="&#x2212;" horiz-adv-x="607" 
d="M476 339q47 0 64.5 -31t15.5 -87h-425q-47 0 -64.5 31t-15.5 87h425z" />
    </font>
</defs>
</svg>
