<?xml version="1.0" encoding="UTF-8" standalone="no"?><!DOCTYPE svg PUBLIC "-//W3C//DTD SVG 1.1//EN" "http://www.w3.org/Graphics/SVG/1.1/DTD/svg11.dtd"><svg width="100%" height="100%" viewBox="0 0 1000 1000" version="1.1" xmlns="http://www.w3.org/2000/svg" xmlns:xlink="http://www.w3.org/1999/xlink" xml:space="preserve" xmlns:serif="http://www.serif.com/" style="fill-rule:evenodd;clip-rule:evenodd;stroke-linejoin:round;stroke-miterlimit:2;"><g><path d="M789.493,666.303l-620.332,0c-4.97,0 -9,-4.03 -9,-9c0,-4.971 4.03,-9 9,-9l620.332,0c4.971,0 9,4.029 9,9c0,4.97 -4.029,9 -9,9Z" style="fill:#c9c9c9;fill-rule:nonzero;"/><path d="M285.891,573.289c-9.562,0 -17.342,-7.78 -17.342,-17.343c0,-9.562 7.78,-17.342 17.342,-17.342l98.034,0l0,34.685l-98.034,0Z" style="fill:#cececf;fill-rule:nonzero;"/><path d="M389.603,579.289l-103.712,0c-12.891,0 -23.342,-10.451 -23.342,-23.343c0,-12.891 10.451,-23.342 23.342,-23.342l103.712,0l0,46.685Z" style="fill:#fff;fill-rule:nonzero;"/><path d="M279.549,552.567l104.376,0c1.104,0 2,-0.895 2,-2c0,-1.104 -0.896,-2 -2,-2l-104.376,0c-1.104,0 -2,0.896 -2,2c0,1.105 0.896,2 2,2Z" style="fill:#1d3969;fill-rule:nonzero;"/><path d="M279.549,563.158l104.376,0c1.104,0 2,-0.895 2,-2c0,-1.104 -0.896,-2 -2,-2l-104.376,0c-1.104,0 -2,0.896 -2,2c0,1.105 0.896,2 2,2Z" style="fill:#1d3969;fill-rule:nonzero;"/><path d="M285.891,573.289l0,-2c-4.233,-0.001 -8.057,-1.717 -10.843,-4.5c-2.782,-2.785 -4.498,-6.609 -4.499,-10.843c0.001,-4.233 1.717,-8.057 4.499,-10.843c2.786,-2.782 6.61,-4.499 10.843,-4.5l96.034,0l0,30.686l-96.034,0l0,4l98.034,0c0.526,0 1.042,-0.213 1.414,-0.586c0.372,-0.372 0.586,-0.887 0.586,-1.414l0,-34.685c0,-0.527 -0.214,-1.042 -0.586,-1.415c-0.372,-0.372 -0.888,-0.585 -1.414,-0.585l-98.034,0c-10.671,0.003 -19.338,8.671 -19.342,19.342c0.004,10.671 8.671,19.339 19.342,19.343l0,-2Z" style="fill:#1d3969;fill-rule:nonzero;"/><path d="M285.891,573.289c-9.562,0 -17.342,-7.78 -17.342,-17.343c0,-9.562 7.78,-17.342 17.342,-17.342l99.712,0l4,-6l-103.712,0c-12.891,0 -23.342,10.451 -23.342,23.342c0,12.892 10.451,23.343 23.342,23.343l103.712,0l-4,-6l-99.712,0Z" style="fill:#ef4343;fill-rule:nonzero;"/><path d="M285.891,573.289l0,-2c-4.233,-0.001 -8.057,-1.717 -10.843,-4.5c-2.782,-2.785 -4.498,-6.609 -4.499,-10.843c0.001,-4.233 1.717,-8.057 4.499,-10.843c2.786,-2.782 6.61,-4.499 10.843,-4.5l99.712,0c0.669,0 1.294,-0.334 1.664,-0.89l4.001,-6c0.41,-0.616 0.448,-1.401 0.099,-2.053c-0.349,-0.653 -1.023,-1.057 -1.764,-1.057l-103.712,0c-13.997,0.002 -25.342,11.346 -25.342,25.343c0,13.997 11.345,25.342 25.342,25.343l103.712,0c0.741,0 1.415,-0.404 1.764,-1.056c0.349,-0.653 0.311,-1.437 -0.099,-2.053l-4.001,-6c-0.37,-0.557 -0.995,-0.891 -1.664,-0.891l-99.712,0l0,4l98.642,0l1.334,2l-99.976,0c-5.9,-0.001 -11.223,-2.386 -15.091,-6.251c-3.865,-3.869 -6.25,-9.192 -6.251,-15.092c0.001,-5.9 2.386,-11.223 6.251,-15.091c3.868,-3.866 9.191,-6.25 15.091,-6.252l99.975,0l-1.333,2.001l-98.642,0c-10.671,0.003 -19.338,8.671 -19.342,19.342c0.004,10.671 8.671,19.339 19.342,19.343l0,-2Z" style="fill:#1d3969;fill-rule:nonzero;"/><path d="M353.914,571.289l-3.001,0l0,-8.131l3.001,0l0,8.131Zm0,-12.131l-3.001,0l0,-6.591l3.001,0l0,6.591Zm0,-10.591l-3.001,0l0,-7.964l3.001,0l0,7.964Z" style="fill:#c1c7d4;fill-rule:nonzero;"/><rect x="350.913" y="548.567" width="3.001" height="4" style="fill:#1d3969;fill-rule:nonzero;"/><rect x="350.913" y="559.158" width="3.001" height="4" style="fill:#1d3969;fill-rule:nonzero;"/><path d="M353.914,577.289l-3.001,0l0,-2l3.001,0l0,2Zm0,-40.685l-3.001,0l0,-2l3.001,0l0,2Z" style="fill:#c23e4b;fill-rule:nonzero;"/><path d="M353.914,575.289l-3.001,0l0,-4l3.001,0l0,4Zm0,-34.686l-3.001,0l0,-3.999l3.001,0l0,3.999Z" style="fill:#1d3969;fill-rule:nonzero;"/><path d="M350.913,536.604l-3.999,0l0,-2.001l7,0l0,0.001l-3.001,0l0,2Z" style="fill:#c23e4b;fill-rule:nonzero;"/><path d="M353.914,534.603l-7,0l0,-1.999c0,-0.526 0.213,-1.041 0.585,-1.414c0.373,-0.372 0.888,-0.586 1.414,-0.586l5.001,0l0,3.999Z" style="fill:#1d3969;fill-rule:nonzero;"/><path d="M350.913,571.289l-3.999,0l0,-8.131l3.999,0l0,8.131Zm0,-12.131l-3.999,0l0,-6.591l3.999,0l0,6.591Zm0,-10.591l-3.999,0l0,-7.964l3.999,0l0,7.964Z" style="fill:#c1c7d4;fill-rule:nonzero;"/><rect x="346.914" y="548.567" width="3.999" height="4" style="fill:#1d3969;fill-rule:nonzero;"/><rect x="346.914" y="559.158" width="3.999" height="4" style="fill:#1d3969;fill-rule:nonzero;"/><rect x="346.914" y="575.289" width="3.999" height="2" style="fill:#c23e4b;fill-rule:nonzero;"/><path d="M350.913,575.289l-3.999,0l0,-4l3.999,0l0,4Zm0,-34.686l-3.999,0l0,-3.999l3.999,0l0,3.999Z" style="fill:#1d3969;fill-rule:nonzero;"/><path d="M378.934,617.846l-189.902,0c-3.735,0 -6.762,-3.028 -6.762,-6.761l0,-25.035c0,-3.734 3.027,-6.761 6.762,-6.761l189.902,0c3.735,0 6.762,3.027 6.762,6.761l0,25.035c0,3.733 -3.027,6.761 -6.762,6.761Z" style="fill:#4fb56e;fill-rule:nonzero;"/><path d="M240.281,598.324c1.98,0 2.818,-0.932 2.818,-2.419c0,-1.542 -0.838,-2.456 -2.818,-2.456l-2.552,0l0,4.875l2.552,0Zm0,1.429l-2.552,0l0,5.541l-1.733,0l0,-13.273l4.285,0c3.123,0 4.589,1.714 4.589,3.884c0,2.02 -1.295,3.848 -4.589,3.848Z" style="fill:#fff;fill-rule:nonzero;"/><path d="M249.729,592.021l1.923,0l3.275,6.722l3.276,-6.722l1.923,0l-4.323,8.265l0,5.008l-1.733,0l0,-5.008l-4.341,-8.265Z" style="fill:#fff;fill-rule:nonzero;"/><path d="M264.946,592.021l8.989,0l0,1.41l-3.619,0l0,11.863l-1.733,0l0,-11.863l-3.637,0l0,-1.41Z" style="fill:#fff;fill-rule:nonzero;"/><path d="M288.371,599.276l-6.76,0l0,6.018l-1.733,0l0,-13.273l1.733,0l0,5.828l6.76,0l0,-5.828l1.733,0l0,13.273l-1.733,0l0,-6.018Z" style="fill:#fff;fill-rule:nonzero;"/><path d="M302.865,603.923c2.8,0 4.894,-2.037 4.894,-5.276c0,-3.255 -2.094,-5.274 -4.894,-5.274c-2.799,0 -4.894,2.019 -4.894,5.274c0,3.239 2.095,5.276 4.894,5.276Zm0,1.504c-3.732,0 -6.665,-2.799 -6.665,-6.78c0,-3.979 2.933,-6.779 6.665,-6.779c3.752,0 6.665,2.8 6.665,6.779c0,3.981 -2.913,6.78 -6.665,6.78Z" style="fill:#fff;fill-rule:nonzero;"/><path d="M326.063,592.002l0,13.292l-1.733,0l-6.97,-10.568l0,10.568l-1.733,0l0,-13.292l1.733,0l6.97,10.55l0,-10.55l1.733,0Z" style="fill:#fff;fill-rule:nonzero;"/><path d="M378.934,617.846l0,-2l-189.902,0c-1.321,-0.001 -2.499,-0.53 -3.367,-1.395c-0.865,-0.868 -1.394,-2.045 -1.395,-3.366l0,-25.035c0.001,-1.321 0.53,-2.498 1.395,-3.366c0.868,-0.865 2.046,-1.394 3.367,-1.395l189.902,0c1.322,0.001 2.499,0.53 3.367,1.395c0.865,0.867 1.394,2.045 1.395,3.366l0,25.035c-0.001,1.321 -0.53,2.498 -1.395,3.366c-0.868,0.865 -2.045,1.394 -3.367,1.395l0,4c4.84,-0.002 8.76,-3.922 8.762,-8.761l0,-25.035c-0.002,-4.839 -3.922,-8.76 -8.762,-8.761l-189.902,0c-4.84,0.001 -8.761,3.922 -8.762,8.761l0,25.035c0.001,4.839 3.922,8.759 8.762,8.761l189.902,0l0,-2Z" style="fill:#1d3969;fill-rule:nonzero;"/><path d="M383.696,609.347l-17.721,0c-4.166,-0.001 -7.918,-1.683 -10.65,-4.412c-2.729,-2.732 -4.411,-6.484 -4.412,-10.65l0,-12.996l3.001,0l0,11.058c0.001,7.732 6.267,13.998 13.999,14l15.783,0l0,3Z" style="fill:#40926e;fill-rule:nonzero;"/><path d="M383.126,613.347l-17.151,0c-10.528,-0.002 -19.06,-8.534 -19.061,-19.062l0,-12.996l7,0l-3.001,0l0,12.996c0.001,4.166 1.683,7.918 4.412,10.65c2.732,2.729 6.484,4.411 10.65,4.412l17.721,0l0,1.738c-0.001,0.823 -0.206,1.59 -0.57,2.262Z" style="fill:#40926e;fill-rule:nonzero;"/><path d="M385.683,613.347l-2.557,0c0.364,-0.672 0.569,-1.439 0.57,-2.262l0,-1.738l0,-3l4,0l0,4.738l-0.003,0.1l-0.013,0.262c-0.054,1.067 -0.929,1.9 -1.997,1.9Z" style="fill:#1d3969;fill-rule:nonzero;"/><path d="M353.914,581.289l-7,0l0,-2c0,-0.527 0.213,-1.042 0.585,-1.414c0.373,-0.373 0.888,-0.586 1.414,-0.586l5.001,0l0,4Z" style="fill:#1d3969;fill-rule:nonzero;"/><path d="M432.39,625.587l-219.948,0c1.282,3.25 2.031,7.155 2.031,11.357c0,4.203 -0.749,8.109 -2.031,11.359l219.948,0c-1.282,-3.25 -2.031,-7.156 -2.031,-11.359c0,-4.202 0.749,-8.107 2.031,-11.357Z" style="fill:#cececf;fill-rule:nonzero;"/><rect x="206.485" y="619.543" width="231.87" height="6.044" style="fill:#5c62ac;fill-rule:nonzero;"/><path d="M438.355,625.587l0,-2l-229.87,0l0,-2.044l227.87,0l0,4.044l2,0l0,-2l0,2l2,0l0,-6.044c0,-0.527 -0.213,-1.042 -0.586,-1.414c-0.372,-0.373 -0.887,-0.586 -1.414,-0.586l-231.87,0c-0.527,0 -1.042,0.213 -1.414,0.586c-0.373,0.372 -0.586,0.887 -0.586,1.414l0,6.044c0,0.527 0.213,1.042 0.586,1.414c0.372,0.373 0.887,0.586 1.414,0.586l231.87,0c0.527,0 1.042,-0.213 1.414,-0.586c0.373,-0.372 0.586,-0.887 0.586,-1.414l-2,0Z" style="fill:#1d3969;fill-rule:nonzero;"/><rect x="206.485" y="648.303" width="231.87" height="6.044" style="fill:#f7fafd;fill-rule:nonzero;"/><rect x="206.485" y="648.303" width="231.87" height="6.044" style="fill:#5c62ac;fill-rule:nonzero;"/><path d="M438.355,654.347l0,-2l-229.87,0l0,-2.044l227.87,0l0,4.044l2,0l0,-2l0,2l2,0l0,-6.044c0,-0.527 -0.213,-1.042 -0.586,-1.415c-0.372,-0.372 -0.887,-0.585 -1.414,-0.585l-231.87,0c-0.527,0 -1.042,0.213 -1.414,0.585c-0.373,0.373 -0.586,0.888 -0.586,1.415l0,6.044c0,0.526 0.213,1.041 0.586,1.414c0.372,0.372 0.887,0.586 1.414,0.586l231.87,0c0.527,0 1.042,-0.214 1.414,-0.586c0.373,-0.373 0.586,-0.888 0.586,-1.414l-2,0Z" style="fill:#1d3969;fill-rule:nonzero;"/><path d="M553.632,632.998l-3.015,-33.651l-49.407,0l-3.014,33.651c-0.7,7.816 -5.404,15.305 -12.777,21.276l-0.009,0.073l81.007,0l-0.009,-0.073c-7.373,-5.971 -12.077,-13.46 -12.776,-21.276Z" style="fill:#bfcfe2;fill-rule:nonzero;"/><path d="M550.24,617.543l-48.652,0l1.003,-11.196l46.646,0l1.003,11.196Z" style="fill:#92a4bf;fill-rule:nonzero;"/><path d="M499.223,621.535c-0.497,-0.044 -0.958,-0.27 -1.298,-0.642c-0.381,-0.417 -0.566,-0.966 -0.516,-1.528l1.166,-13.018l2.008,0l-1.36,15.188Zm53.382,0l-1.361,-15.188l2.009,0l1.166,13.018c0.05,0.562 -0.135,1.111 -0.516,1.528c-0.341,0.372 -0.801,0.598 -1.298,0.642Z" style="fill:#b1baca;fill-rule:nonzero;"/><path d="M552.427,621.543l-53.026,0c-0.06,0 -0.119,-0.003 -0.178,-0.008l1.36,-15.188l2.008,0l-1.003,11.196l48.652,0l-1.003,-11.196l2.007,0l1.361,15.188c-0.059,0.005 -0.118,0.008 -0.178,0.008Z" style="fill:#92a4bf;fill-rule:nonzero;"/><path d="M553.632,632.998l1.992,-0.178l-3.015,-33.652c-0.092,-1.034 -0.954,-1.821 -1.992,-1.821l-49.407,0c-1.038,0 -1.9,0.787 -1.992,1.821l-3.014,33.652c-0.319,3.566 -1.554,7.097 -3.603,10.469c-2.047,3.37 -4.909,6.572 -8.441,9.431c-0.403,0.327 -0.664,0.798 -0.726,1.313l-0.009,0.072c-0.069,0.567 0.109,1.14 0.488,1.568c0.379,0.428 0.926,0.674 1.497,0.674l81.007,0c0.572,0 1.118,-0.246 1.497,-0.674c0.379,-0.428 0.557,-1.001 0.488,-1.568l-0.008,-0.072c-0.063,-0.515 -0.324,-0.986 -0.727,-1.313c-3.531,-2.859 -6.393,-6.061 -8.441,-9.431c-2.048,-3.372 -3.283,-6.903 -3.602,-10.469l-1.992,0.178l-1.992,0.178c0.38,4.251 1.847,8.371 4.168,12.191c2.323,3.821 5.499,7.349 9.341,10.462l1.259,-1.555l-1.985,0.242l0.009,0.072l1.985,-0.241l0,-2l-81.007,0l0,2l1.986,0.241l0.008,-0.072l-1.985,-0.242l1.259,1.555c3.842,-3.113 7.018,-6.641 9.341,-10.462c2.322,-3.82 3.789,-7.94 4.169,-12.191l2.851,-31.829l45.749,0l2.852,31.829l1.992,-0.178Z" style="fill:#1d3969;fill-rule:nonzero;"/><path d="M683.914,604.347l-316.001,0c-6.627,0 -12,-5.373 -12,-12l0,-206.001c0,-6.627 5.373,-12 12,-12l316.001,0c6.627,0 12,5.373 12,12l0,206.001c0,6.627 -5.373,12 -12,12Z" style="fill:#fff;fill-rule:nonzero;"/><path d="M683.914,604.347l-316.001,0c-6.627,0 -12,-5.373 -12,-12l0,-206.001c0,-6.627 5.373,-12 12,-12l316.001,0c6.627,0 12,5.373 12,12l0,206.001c0,6.627 -5.373,12 -12,12Z" style="fill:#bfcfe2;fill-rule:nonzero;"/><path d="M683.914,604.347l0,-2l-316.001,0c-2.767,-0.001 -5.255,-1.117 -7.071,-2.93c-1.812,-1.815 -2.928,-4.303 -2.929,-7.07l0,-206.001c0.001,-2.768 1.117,-5.255 2.929,-7.071c1.816,-1.813 4.304,-2.928 7.071,-2.929l316.001,0c2.768,0.001 5.255,1.116 7.071,2.929c1.813,1.816 2.928,4.303 2.929,7.071l0,206.001c-0.001,2.767 -1.116,5.255 -2.929,7.07c-1.816,1.813 -4.304,2.929 -7.071,2.93l0,4c7.733,-0.002 13.999,-6.268 14,-14l0,-206.001c-0.001,-7.733 -6.268,-13.998 -14,-14l-316.001,0c-7.732,0.002 -13.998,6.267 -13.999,14l0,206.001c0.001,7.732 6.267,13.998 13.999,14l316.001,0l0,-2Z" style="fill:#1d3969;fill-rule:nonzero;"/><rect x="372.914" y="391.346" width="306" height="174.592" style="fill:#f7fafd;fill-rule:nonzero;"/><rect x="385.928" y="376.346" width="5" height="13" style="fill:#92a4bf;fill-rule:nonzero;"/><path d="M562.673,518.94l-170.745,0c-1.663,-0.002 -3.15,-0.669 -4.242,-1.758c-1.089,-1.091 -1.757,-2.58 -1.758,-4.242l0,-119.594l5,0l0,108.594c0.001,5.523 4.476,9.998 10,9.999l161.745,0l0,7.001Z" style="fill:#bac4d4;fill-rule:nonzero;"/><path d="M385.928,389.346l-4,0l0,-13l9,0l-5,0l0,13Z" style="fill:#92a4bf;fill-rule:nonzero;"/><path d="M390.928,376.346l-7,0l0,-2l0,2l-2,0l0,-2c0,-0.526 0.214,-1.042 0.586,-1.414c0.372,-0.372 0.887,-0.586 1.414,-0.586l7,0l0,4Z" style="fill:#1d3969;fill-rule:nonzero;"/><path d="M562.673,522.94l-170.745,0c-5.524,-0.002 -9.998,-4.477 -10,-10l0,-119.594l4,0l0,119.594c0.001,1.662 0.669,3.151 1.758,4.242c1.092,1.089 2.579,1.756 4.242,1.758l170.745,0l0,4Z" style="fill:#bac4d4;fill-rule:nonzero;"/><path d="M372.914,565.938l1.999,0l0,-172.592l302.001,0l0,170.591l-304,0l0,2.001l1.999,0l-1.999,0l0,2l306,0c0.527,0 1.042,-0.214 1.414,-0.586c0.373,-0.373 0.586,-0.888 0.586,-1.414l0,-174.592c0,-0.526 -0.213,-1.042 -0.586,-1.414c-0.372,-0.372 -0.887,-0.586 -1.414,-0.586l-306,0c-0.527,0 -1.042,0.214 -1.415,0.586c-0.372,0.372 -0.585,0.888 -0.585,1.414l0,174.592c0,0.526 0.213,1.041 0.585,1.414c0.373,0.372 0.888,0.586 1.415,0.586l0,-2Z" style="fill:#1d3969;fill-rule:nonzero;"/><path d="M512.468,587.048l26.891,0c1.105,0 2,-0.896 2,-2c0,-1.105 -0.895,-2 -2,-2l-26.891,0c-1.105,0 -2,0.895 -2,2c0,1.104 0.895,2 2,2Z" style="fill:#1d3969;fill-rule:nonzero;"/><path d="M590.001,509.939l-189.073,0c-4.418,0 -8,-3.581 -8,-7.999l0,-148.286c0,-4.419 3.582,-8 8,-8l189.073,0c4.418,0 8,3.581 8,8l0,148.286c0,4.418 -3.582,7.999 -8,7.999Z" style="fill:#2d425f;fill-rule:nonzero;"/><path d="M598.001,365.108l0,-2l-203.073,0l0,-9.454c0.001,-1.664 0.669,-3.151 1.757,-4.243c1.093,-1.089 2.58,-1.756 4.243,-1.757l189.073,0c1.663,0.001 3.15,0.668 4.243,1.757c1.088,1.092 1.756,2.58 1.757,4.243l0,11.454l2,0l0,-2l0,2l2,0l0,-11.454c-0.001,-5.524 -4.477,-9.999 -10,-10l-189.073,0c-5.524,0.001 -9.999,4.476 -10,10l0,11.454c0,0.527 0.214,1.042 0.586,1.414c0.372,0.373 0.888,0.586 1.414,0.586l205.073,0c0.527,0 1.042,-0.213 1.414,-0.586c0.373,-0.372 0.586,-0.887 0.586,-1.414l-2,0Z" style="fill:#1d3969;fill-rule:nonzero;"/><path d="M598.001,368.918l-205.073,0l0,-15.264c0,-4.419 3.582,-8 8,-8l189.073,0c4.418,0 8,3.581 8,8l0,15.264Z" style="fill:#d0ddf0;fill-rule:nonzero;"/><path d="M598.001,368.918l0,-2l-203.073,0l0,-13.264c0.001,-1.664 0.669,-3.151 1.757,-4.243c1.093,-1.089 2.58,-1.756 4.243,-1.757l189.073,0c1.663,0.001 3.15,0.668 4.243,1.757c1.088,1.092 1.756,2.58 1.757,4.243l0,15.264l2,0l0,-2l0,2l2,0l0,-15.264c-0.001,-5.524 -4.477,-9.999 -10,-10l-189.073,0c-5.524,0.001 -9.999,4.476 -10,10l0,15.264c0,0.527 0.214,1.042 0.586,1.414c0.372,0.373 0.888,0.586 1.414,0.586l205.073,0c0.527,0 1.042,-0.213 1.414,-0.586c0.373,-0.372 0.586,-0.887 0.586,-1.414l-2,0Z" style="fill:#1d3969;fill-rule:nonzero;"/><path d="M598.001,368.918l0,-2l-203.073,0l0,-13.264c0.001,-1.664 0.669,-3.151 1.757,-4.243c1.093,-1.089 2.58,-1.756 4.243,-1.757l189.073,0c1.663,0.001 3.15,0.668 4.243,1.757c1.088,1.092 1.756,2.58 1.757,4.243l0,15.264l2,0l0,-2l0,2l2,0l0,-15.264c-0.001,-5.524 -4.477,-9.999 -10,-10l-189.073,0c-5.524,0.001 -9.999,4.476 -10,10l0,15.264c0,0.527 0.214,1.042 0.586,1.414c0.372,0.373 0.888,0.586 1.414,0.586l205.073,0c0.527,0 1.042,-0.213 1.414,-0.586c0.373,-0.372 0.586,-0.887 0.586,-1.414l-2,0Z" style="fill:#1d3969;fill-rule:nonzero;"/><path d="M590.001,509.939l0,-2l-189.073,0c-1.663,-0.001 -3.151,-0.668 -4.242,-1.757c-1.089,-1.092 -1.757,-2.579 -1.758,-4.242l0,-148.286c0.001,-1.664 0.669,-3.151 1.758,-4.243c1.091,-1.089 2.579,-1.756 4.242,-1.757l189.073,0c1.663,0.001 3.15,0.668 4.242,1.757c1.089,1.092 1.757,2.58 1.758,4.243l0,148.286c-0.001,1.662 -0.669,3.15 -1.758,4.242c-1.092,1.089 -2.579,1.756 -4.242,1.757l0,4c5.523,-0.001 9.999,-4.476 10,-9.999l0,-148.286c-0.001,-5.524 -4.477,-9.999 -10,-10l-189.073,0c-5.523,0.001 -9.999,4.476 -10,10l0,148.286c0.001,5.523 4.476,9.998 10,9.999l189.073,0l0,-2Z" style="fill:#1d3969;fill-rule:nonzero;"/><path d="M688.689,545.346l0,-2l-7.775,0l0,-3l12.973,0c-0.263,0.454 -0.585,0.871 -0.955,1.242c-1.092,1.089 -2.58,1.757 -4.243,1.758l0,2Z" style="fill:#92a4bf;fill-rule:nonzero;"/><path d="M676.914,543.346l-104.241,0c-1.663,-0.001 -3.151,-0.669 -4.243,-1.758c-1.089,-1.092 -1.756,-2.579 -1.757,-4.242l0,-14.406l4,0l0,7.406c0.001,5.523 4.476,9.998 10,10l96.241,0l0,3Z" style="fill:#bac4d4;fill-rule:nonzero;"/><rect x="566.673" y="511.939" width="4" height="7.001" style="fill:#8f9db6;fill-rule:nonzero;"/><rect x="566.673" y="518.94" width="4" height="4" style="fill:#8f9db6;fill-rule:nonzero;"/><rect x="676.914" y="540.346" width="4" height="3" style="fill:#1d3969;fill-rule:nonzero;"/><path d="M570.673,507.939l-4,0l0,-93.539c0.001,-1.663 0.668,-3.151 1.757,-4.243c0.63,-0.628 1.392,-1.116 2.243,-1.416l0,99.198Z" style="fill:#283f61;fill-rule:nonzero;"/><rect x="566.673" y="507.939" width="4" height="4" style="fill:#1d3969;fill-rule:nonzero;"/><path d="M688.689,547.346l-7.775,0l0,-4l7.775,0l0,4Z" style="fill:#92a4bf;fill-rule:nonzero;"/><path d="M676.914,547.346l-104.241,0c-5.524,-0.002 -9.999,-4.477 -10,-10l0,-14.406l4,0l0,14.406c0.001,1.663 0.668,3.15 1.757,4.242c1.092,1.089 2.58,1.757 4.243,1.758l104.241,0l0,4Z" style="fill:#bac4d4;fill-rule:nonzero;"/><rect x="562.673" y="511.939" width="4" height="7.001" style="fill:#8f9db6;fill-rule:nonzero;"/><rect x="562.673" y="518.94" width="4" height="4" style="fill:#8f9db6;fill-rule:nonzero;"/><rect x="676.914" y="543.346" width="4" height="4" style="fill:#1d3969;fill-rule:nonzero;"/><path d="M697.914,541.212l0,-0.941c0.119,-0.014 0.237,-0.031 0.355,-0.05c-0.101,0.338 -0.22,0.669 -0.355,0.991Z" style="fill:#b1baca;fill-rule:nonzero;"/><path d="M688.689,547.346l0,-2l0,-2c1.663,-0.001 3.151,-0.669 4.243,-1.758c0.37,-0.371 0.692,-0.788 0.955,-1.242l0.027,0l0,5.527c-1.52,0.934 -3.309,1.472 -5.225,1.473Z" style="fill:#92a4bf;fill-rule:nonzero;"/><path d="M693.914,545.873l0,-5.527l2.775,0l0,-2l0,2c0.415,0 0.824,-0.026 1.225,-0.075l0,0.941c-0.815,1.941 -2.224,3.571 -4,4.661Z" style="fill:#1d3969;fill-rule:nonzero;"/><path d="M566.673,507.939l-4,0l0,-93.539c0.001,-4.986 3.648,-9.118 8.42,-9.876c-0.273,0.911 -0.42,1.876 -0.42,2.876l0,1.341c-0.851,0.3 -1.613,0.788 -2.243,1.416c-1.089,1.092 -1.756,2.58 -1.757,4.243l0,93.539Z" style="fill:#283f61;fill-rule:nonzero;"/><rect x="562.673" y="507.939" width="4" height="4" style="fill:#1d3969;fill-rule:nonzero;"/><path d="M696.689,538.346l-116.016,0c-4.418,0 -8,-3.582 -8,-8l0,-122.946c0,-4.419 3.582,-8 8,-8l116.016,0c4.418,0 8.001,3.581 8.001,8l0,122.946c0,4.418 -3.583,8 -8.001,8Z" style="fill:#5199d3;fill-rule:nonzero;"/><path d="M696.689,538.346l0,-2l-116.016,0c-1.663,-0.001 -3.15,-0.669 -4.243,-1.758c-1.089,-1.092 -1.756,-2.579 -1.757,-4.242l0,-122.946c0.001,-1.663 0.668,-3.151 1.757,-4.243c1.092,-1.089 2.58,-1.756 4.243,-1.757l116.016,0c1.663,0.001 3.151,0.668 4.243,1.757c1.089,1.092 1.756,2.58 1.758,4.243l0,122.946c-0.002,1.663 -0.669,3.15 -1.758,4.242c-1.092,1.089 -2.58,1.757 -4.243,1.758l0,4c5.524,-0.002 9.999,-4.477 10,-10l0,-122.946c-0.001,-5.524 -4.476,-9.999 -10,-10l-116.016,0c-5.523,0.001 -9.999,4.476 -10,10l0,122.946c0.001,5.523 4.476,9.998 10,10l116.016,0l0,-2Z" style="fill:#1d3969;fill-rule:nonzero;"/><path d="M679.426,438.473l-81.569,0c-3.407,-0.001 -6.166,-2.761 -6.167,-6.167l0,-7.801c0.001,-3.406 2.76,-6.166 6.167,-6.167l81.569,0c3.406,0.001 6.166,2.761 6.167,6.167l0,7.801c-0.001,3.406 -2.761,6.166 -6.167,6.167l0,-1l0,-1c1.154,0 2.189,-0.465 2.946,-1.22c0.756,-0.758 1.22,-1.793 1.221,-2.947l0,-7.801c-0.001,-1.153 -0.465,-2.189 -1.221,-2.946c-0.757,-0.756 -1.792,-1.22 -2.946,-1.221l-81.569,0c-1.154,0.001 -2.189,0.465 -2.946,1.221c-0.756,0.757 -1.22,1.792 -1.221,2.946l0,7.801c0.001,1.154 0.465,2.189 1.221,2.947c0.757,0.755 1.792,1.22 2.946,1.22l81.569,0l0,2Z" style="fill:#80bce7;fill-rule:nonzero;"/><path d="M643.58,467.78l-45.644,0c-3.406,0 -6.166,-2.76 -6.166,-6.167l0,-7.8c0,-3.406 2.76,-6.166 6.166,-6.167l45.644,0c3.406,0.001 6.166,2.761 6.167,6.167l0,7.8c-0.001,3.407 -2.761,6.167 -6.167,6.167l0,-1l0,-1c1.154,0 2.189,-0.465 2.947,-1.22c0.755,-0.757 1.22,-1.793 1.22,-2.947l0,-7.8c0,-1.154 -0.465,-2.189 -1.221,-2.946c-0.757,-0.756 -1.792,-1.221 -2.946,-1.221l-45.644,0c-1.153,0 -2.189,0.465 -2.946,1.221c-0.756,0.757 -1.22,1.792 -1.22,2.946l0,7.8c0,1.154 0.464,2.19 1.22,2.947c0.757,0.755 1.793,1.22 2.946,1.22l45.644,0l0,2Z" style="fill:#80bce7;fill-rule:nonzero;"/><path d="M679.506,467.78l-17.654,0c-3.407,0 -6.167,-2.76 -6.167,-6.167l0,-7.8c0,-3.406 2.759,-6.166 6.167,-6.167l17.654,0c3.406,0.001 6.166,2.761 6.167,6.167l0,7.8c-0.001,3.407 -2.761,6.167 -6.167,6.167l0,-1l0,-1c1.154,0 2.189,-0.465 2.946,-1.22c0.756,-0.757 1.22,-1.793 1.221,-2.947l0,-7.8c-0.001,-1.154 -0.465,-2.189 -1.221,-2.946c-0.757,-0.756 -1.792,-1.221 -2.946,-1.221l-17.654,0c-1.155,0 -2.19,0.465 -2.947,1.221c-0.756,0.757 -1.22,1.792 -1.22,2.946l0,7.8c0,1.154 0.464,2.19 1.22,2.947c0.757,0.755 1.792,1.22 2.947,1.22l17.654,0l0,2Z" style="fill:#80bce7;fill-rule:nonzero;"/><path d="M592.69,498.23l91.903,0c0.552,0 1,-0.447 1,-1c0,-0.552 -0.448,-1 -1,-1l-91.903,0c-0.552,0 -1,0.448 -1,1c0,0.553 0.448,1 1,1Z" style="fill:#fff;fill-rule:nonzero;"/><path d="M592.69,509.021l91.903,0c0.552,0 1,-0.448 1,-1c0,-0.553 -0.448,-1 -1,-1l-91.903,0c-0.552,0 -1,0.447 -1,1c0,0.552 0.448,1 1,1Z" style="fill:#fff;fill-rule:nonzero;"/><path d="M592.69,519.812l55.977,0c0.552,0 1,-0.448 1,-1c0,-0.553 -0.448,-1 -1,-1l-55.977,0c-0.552,0 -1,0.447 -1,1c0,0.552 0.448,1 1,1Z" style="fill:#fff;fill-rule:nonzero;"/><path d="M417,357.286c0,2.209 -1.791,4 -4,4c-2.209,0 -4,-1.791 -4,-4c0,-2.209 1.791,-4 4,-4c2.209,0 4,1.791 4,4Z" style="fill:#1d3969;fill-rule:nonzero;"/><path d="M430.886,357.286c0,2.209 -1.791,4 -4,4c-2.209,0 -4,-1.791 -4,-4c0,-2.209 1.791,-4 4,-4c2.209,0 4,1.791 4,4Z" style="fill:#1d3969;fill-rule:nonzero;"/><path d="M444.771,357.286c0,2.209 -1.791,4 -4,4c-2.208,0 -4,-1.791 -4,-4c0,-2.209 1.792,-4 4,-4c2.209,0 4,1.791 4,4Z" style="fill:#1d3969;fill-rule:nonzero;"/><path d="M510.74,389.378l12.929,0c1.104,0 2,-0.895 2,-2c0,-1.104 -0.896,-2 -2,-2l-12.929,0c-1.104,0 -2,0.896 -2,2c0,1.105 0.896,2 2,2Z" style="fill:#fff;fill-rule:nonzero;"/><path d="M444.771,389.378l56.377,0c1.105,0 2,-0.895 2,-2c0,-1.104 -0.895,-2 -2,-2l-56.377,0c-1.104,0 -2,0.896 -2,2c0,1.105 0.896,2 2,2Z" style="fill:#95ce91;fill-rule:nonzero;"/><path d="M417,389.378l19.771,0c1.105,0 2,-0.895 2,-2c0,-1.104 -0.895,-2 -2,-2l-19.771,0c-1.105,0 -2,0.896 -2,2c0,1.105 0.895,2 2,2Z" style="fill:#796ab0;fill-rule:nonzero;"/><path d="M442.771,487.938l43.059,0c1.105,0 2,-0.895 2,-2c0,-1.104 -0.895,-2 -2,-2l-43.059,0c-1.104,0 -2,0.896 -2,2c0,1.105 0.896,2 2,2Z" style="fill:#796ab0;fill-rule:nonzero;"/><path d="M417,487.938l13.885,0c1.105,0 2,-0.895 2,-2c0,-1.104 -0.895,-2 -2,-2l-13.885,0c-1.105,0 -2,0.896 -2,2c0,1.105 0.895,2 2,2Z" style="fill:#95ce91;fill-rule:nonzero;"/><path d="M501.148,401.699l8.016,0c1.105,0 2,-0.896 2,-2c0,-1.105 -0.895,-2 -2,-2l-8.016,0c-1.104,0 -2,0.895 -2,2c0,1.104 0.896,2 2,2Z" style="fill:#fff;fill-rule:nonzero;"/><path d="M464.279,401.699l27.227,0c1.104,0 2,-0.896 2,-2c0,-1.105 -0.896,-2 -2,-2l-27.227,0c-1.104,0 -2,0.895 -2,2c0,1.104 0.896,2 2,2Z" style="fill:#796ab0;fill-rule:nonzero;"/><path d="M426.886,401.699l27.744,0c1.104,0 2,-0.896 2,-2c0,-1.105 -0.896,-2 -2,-2l-27.744,0c-1.105,0 -2,0.895 -2,2c0,1.104 0.895,2 2,2Z" style="fill:#fdc47e;fill-rule:nonzero;"/><path d="M469.831,414.019l23.836,0c1.105,0 2,-0.896 2,-2c0,-1.105 -0.895,-2 -2,-2l-23.836,0c-1.105,0 -2,0.895 -2,2c0,1.104 0.895,2 2,2Z" style="fill:#fff;fill-rule:nonzero;"/><path d="M439.769,414.019l22.482,0c1.105,0 2,-0.896 2,-2c0,-1.105 -0.895,-2 -2,-2l-22.482,0c-1.105,0 -2,0.895 -2,2c0,1.104 0.895,2 2,2Z" style="fill:#f15959;fill-rule:nonzero;"/><path d="M473.009,426.338l4.938,0c1.104,0 2,-0.895 2,-2c0,-1.104 -0.896,-2 -2,-2l-4.938,0c-1.104,0 -2,0.896 -2,2c0,1.105 0.896,2 2,2Z" style="fill:#fff;fill-rule:nonzero;"/><path d="M453.189,426.338l11.09,0c1.105,0 2,-0.895 2,-2c0,-1.104 -0.895,-2 -2,-2l-11.09,0c-1.105,0 -2,0.896 -2,2c0,1.105 0.895,2 2,2Z" style="fill:#796ab0;fill-rule:nonzero;"/><path d="M426.886,426.338l17.885,0c1.105,0 2,-0.895 2,-2c0,-1.104 -0.895,-2 -2,-2l-17.885,0c-1.105,0 -2,0.896 -2,2c0,1.105 0.895,2 2,2Z" style="fill:#95ce91;fill-rule:nonzero;"/><path d="M465.288,438.659l31.894,0c1.104,0 2,-0.896 2,-2c0,-1.105 -0.896,-2 -2,-2l-31.894,0c-1.104,0 -2,0.895 -2,2c0,1.104 0.896,2 2,2Z" style="fill:#fdc47e;fill-rule:nonzero;"/><path d="M426.886,438.659l28.627,0c1.105,0 2,-0.896 2,-2c0,-1.105 -0.895,-2 -2,-2l-28.627,0c-1.105,0 -2,0.895 -2,2c0,1.104 0.895,2 2,2Z" style="fill:#f15959;fill-rule:nonzero;"/><path d="M502.182,450.979l17.342,0c1.105,0 2,-0.896 2,-2c0,-1.105 -0.895,-2 -2,-2l-17.342,0c-1.105,0 -2,0.895 -2,2c0,1.104 0.895,2 2,2Z" style="fill:#796ab0;fill-rule:nonzero;"/><path d="M465.288,450.979l27.749,0c1.105,0 2,-0.896 2,-2c0,-1.105 -0.895,-2 -2,-2l-27.749,0c-1.104,0 -2,0.895 -2,2c0,1.104 0.896,2 2,2Z" style="fill:#f15959;fill-rule:nonzero;"/><path d="M439.769,450.979l15.744,0c1.105,0 2,-0.896 2,-2c0,-1.105 -0.895,-2 -2,-2l-15.744,0c-1.105,0 -2,0.895 -2,2c0,1.104 0.895,2 2,2Z" style="fill:#95ce91;fill-rule:nonzero;"/><path d="M477.893,463.298l15.144,0c1.105,0 2,-0.895 2,-2c0,-1.104 -0.895,-2 -2,-2l-15.144,0c-1.105,0 -2,0.896 -2,2c0,1.105 0.895,2 2,2Z" style="fill:#fff;fill-rule:nonzero;"/><path d="M439.769,463.298l27.744,0c1.105,0 2,-0.895 2,-2c0,-1.104 -0.895,-2 -2,-2l-27.744,0c-1.105,0 -2,0.896 -2,2c0,1.105 0.895,2 2,2Z" style="fill:#796ab0;fill-rule:nonzero;"/><path d="M517.205,475.619l17.292,0c1.105,0 2,-0.896 2,-2c0,-1.105 -0.895,-2 -2,-2l-17.292,0c-1.106,0 -2,0.895 -2,2c0,1.104 0.894,2 2,2Z" style="fill:#fff;fill-rule:nonzero;"/><path d="M464.279,475.619l43.569,0c1.104,0 2,-0.896 2,-2c0,-1.105 -0.896,-2 -2,-2l-43.569,0c-1.104,0 -2,0.895 -2,2c0,1.104 0.896,2 2,2Z" style="fill:#fdc47e;fill-rule:nonzero;"/><path d="M426.886,475.619l27.744,0c1.104,0 2,-0.896 2,-2c0,-1.105 -0.896,-2 -2,-2l-27.744,0c-1.105,0 -2,0.895 -2,2c0,1.104 0.895,2 2,2Z" style="fill:#fff;fill-rule:nonzero;"/><path d="M214.896,634.522l215.463,0c1.105,0 2,-0.895 2,-2c0,-1.104 -0.895,-2 -2,-2l-215.463,0c-1.105,0 -2,0.896 -2,2c0,1.105 0.895,2 2,2Z" style="fill:#1d3969;fill-rule:nonzero;"/><path d="M214.896,642.539l215.463,0c1.105,0 2,-0.895 2,-2c0,-1.105 -0.895,-2 -2,-2l-215.463,0c-1.105,0 -2,0.895 -2,2c0,1.105 0.895,2 2,2Z" style="fill:#1d3969;fill-rule:nonzero;"/><path d="M432.39,625.587l0,-2l-219.948,0c-0.662,0 -1.281,0.327 -1.654,0.875c-0.372,0.547 -0.45,1.243 -0.207,1.859c1.181,2.989 1.893,6.659 1.892,10.623c0.001,3.965 -0.711,7.636 -1.892,10.625c-0.243,0.616 -0.165,1.312 0.207,1.859c0.373,0.547 0.992,0.875 1.654,0.875l219.948,0c0.662,0 1.281,-0.328 1.654,-0.875c0.372,-0.547 0.45,-1.243 0.207,-1.859c-1.181,-2.989 -1.893,-6.66 -1.892,-10.625c-0.001,-3.964 0.711,-7.634 1.892,-10.623c0.243,-0.616 0.165,-1.312 -0.207,-1.859c-0.373,-0.548 -0.992,-0.875 -1.654,-0.875l0,2l-1.86,-0.734c-1.384,3.511 -2.169,7.651 -2.171,12.091c0.002,4.441 0.787,8.582 2.171,12.092l1.86,-0.733l0,-2l-219.948,0l0,2l1.86,0.734c1.384,-3.511 2.17,-7.652 2.171,-12.093c-0.001,-4.44 -0.787,-8.58 -2.171,-12.091l-1.86,0.734l0,2l219.948,0l0,-2l-1.86,-0.734l1.86,0.734Z" style="fill:#1d3969;fill-rule:nonzero;"/><path d="M736.775,616.273l-9.747,1.145l-8.469,-72.154l9.747,-1.145l8.469,72.154Z" style="fill:#f9a165;fill-rule:nonzero;"/><path d="M729.167,551.459l-9.747,1.145l-0.861,-7.34l9.747,-1.145l0.861,7.34Z" style="fill:#5199d3;fill-rule:nonzero;"/><path d="M729.167,551.459l-0.233,-1.986l-7.761,0.911l-0.395,-3.367l5.774,-0.678l0.629,5.353l1.986,-0.233l-0.233,-1.986l0.233,1.986l1.986,-0.233l-0.861,-7.34c-0.061,-0.523 -0.333,-1.01 -0.747,-1.336c-0.413,-0.327 -0.95,-0.479 -1.473,-0.417l-9.747,1.144c-1.097,0.129 -1.882,1.123 -1.753,2.22l0.862,7.34c0.061,0.523 0.333,1.009 0.746,1.336c0.414,0.326 0.95,0.478 1.473,0.417l9.747,-1.145c1.097,-0.129 1.882,-1.122 1.753,-2.219l-1.986,0.233Z" style="fill:#1d3969;fill-rule:nonzero;"/><path d="M736.775,616.273l-0.233,-1.986l-7.761,0.911l-8.003,-68.181l5.774,-0.678l8.237,70.168l1.986,-0.234l-0.233,-1.986l0.233,1.986l1.987,-0.233l-8.47,-72.154c-0.062,-0.523 -0.333,-1.01 -0.747,-1.336c-0.413,-0.327 -0.95,-0.479 -1.473,-0.417l-9.747,1.144c-1.097,0.129 -1.882,1.123 -1.753,2.22l8.47,72.154c0.061,0.523 0.333,1.01 0.747,1.336c0.413,0.327 0.949,0.479 1.473,0.417l9.747,-1.144c0.523,-0.062 1.009,-0.334 1.336,-0.747c0.326,-0.413 0.478,-0.95 0.417,-1.473l-1.987,0.233Z" style="fill:#1d3969;fill-rule:nonzero;"/><path d="M747.3,631.032l-9.757,-1.06l7.85,-72.224l9.757,1.061l-7.85,72.223Z" style="fill:#f05455;fill-rule:nonzero;"/><path d="M747.3,631.032l0.216,-1.988l-7.769,-0.844l7.419,-68.248l5.78,0.629l-7.635,70.235l1.989,0.216l0.216,-1.988l-0.216,1.988l1.988,0.216l7.851,-72.223c0.056,-0.524 -0.1,-1.059 -0.43,-1.47c-0.33,-0.41 -0.819,-0.678 -1.342,-0.735l-9.758,-1.06c-1.097,-0.12 -2.085,0.674 -2.204,1.772l-7.85,72.224c-0.12,1.098 0.674,2.084 1.772,2.204l9.757,1.061c0.523,0.056 1.058,-0.1 1.469,-0.43c0.41,-0.33 0.678,-0.819 0.735,-1.343l-1.988,-0.216Z" style="fill:#1d3969;fill-rule:nonzero;"/><path d="M754.352,566.155l-9.757,-1.06l0.799,-7.347l9.756,1.061l-0.798,7.346Z" style="fill:#2d425f;fill-rule:nonzero;"/><path d="M754.352,566.155l0.216,-1.988l-7.769,-0.844l0.367,-3.371l5.78,0.629l-0.583,5.358l1.989,0.216l0.216,-1.988l-0.216,1.988l1.988,0.216l0.799,-7.346c0.056,-0.524 -0.1,-1.059 -0.43,-1.47c-0.33,-0.41 -0.819,-0.678 -1.343,-0.735l-9.756,-1.06c-1.099,-0.12 -2.085,0.674 -2.205,1.772l-0.799,7.346c-0.057,0.524 0.1,1.059 0.43,1.47c0.33,0.41 0.819,0.678 1.343,0.735l9.756,1.061c1.099,0.119 2.085,-0.675 2.205,-1.773l-1.988,-0.216Z" style="fill:#1d3969;fill-rule:nonzero;"/><path d="M761.069,654.573l-39.261,0l-6.384,-60.183l52.031,0l-6.386,60.183Z" style="fill:#6667af;fill-rule:nonzero;"/><path d="M715.541,595.495l-0.117,-1.105l0.117,1.105Z" style="fill:#e6e9f5;"/><path d="M761.069,654.573l-12.154,0l6.267,-59.078l-39.641,0l-0.117,-1.105l52.031,0l-6.386,60.183Z" style="fill:#565daa;fill-rule:nonzero;"/><path d="M761.069,654.573l0,-2l-37.462,0l-5.96,-56.183l47.585,0l-6.152,57.972l1.989,0.211l0,-2l0,2l1.989,0.211l6.386,-60.183c0.059,-0.561 -0.125,-1.129 -0.502,-1.549c-0.377,-0.419 -0.923,-0.662 -1.487,-0.662l-52.031,0c-0.564,0 -1.11,0.243 -1.487,0.662c-0.377,0.42 -0.562,0.987 -0.502,1.549l6.385,60.183c0.108,1.02 0.963,1.789 1.989,1.789l39.26,0c1.02,0 1.882,-0.775 1.989,-1.789l-1.989,-0.211Z" style="fill:#1d3969;fill-rule:nonzero;"/></g></svg>